<?xml version="1.0" encoding="utf-8"?>
<!-- Generator: Adobe Illustrator 24.0.2, SVG Export Plug-In . SVG Version: 6.00 Build 0)  -->
<svg version="1.1" id="Layer_1" xmlns="http://www.w3.org/2000/svg" xmlns:xlink="http://www.w3.org/1999/xlink" x="0px" y="0px"
	 viewBox="0 0 566.9 566.9" style="enable-background:new 0 0 566.9 566.9;" xml:space="preserve">
<style type="text/css">
	.st0{opacity:0.5;}
	.st1{fill-rule:evenodd;clip-rule:evenodd;}
</style>
<g id="react-group-223" transform="translate(160.999594, 54.000301)" class="st0">
	<path id="react-path-227" class="st1" d="M293,4.4C309.5,16,328.3,24,345.5,34.5c4.3,2.6,17.7,8.1,17.6,13
		c-0.1,2.9-4.1,6.4-5.9,8.4c-3,3.4-5.9,6.8-8.6,10.4c-12.8,16.4-24.8,33-38.6,48.6c-2.1,2.3-8.4,13.5-10.4,8
		c-0.9-2.5-0.2-5.4-2.6-7.7c-1.2-1.2-6-1.9-4.6-4.5c0.9,0.4,1.8,0.8,2.8,1.2c-0.7-2.1-0.7-4.4-1.7-6.3c-0.7-1.2-2-1.8-2.4-3.2
		c-0.6-1.9,0.4-4.1,0.3-6.1c-0.2-1.9-1.2-3.8-1.8-5.6c-3.6-10.9-4.9-21.9-6.7-33.1c-1.8-11.1-4.6-21.9-5.7-33.2
		c-1.2-11.9-2.6-23.8-4.5-35.5c3.4,0.5,6,4.2,8.5,6.3C284.8-1.5,288.9,1.4,293,4.4 M280.1,119.5c-0.8-0.6-1.4-1.4-1.8-2.3
		C286.4,113.2,281.5,120,280.1,119.5 M275.2,110.9c-3.5,1-6,1.2-8.7-0.3c-0.3-0.1,0-1.2-0.4-1.4c-0.4-0.2-1,0-1.4-0.1
		c-1.2-0.6-3.2,0.7-3.4-1.6c4.5-1.4,8.9-3.9,13.6-4.3C281.5,102.6,281.2,109.3,275.2,110.9 M259.9,97.7c-4.8,1.1-8.7,3.7-13.8,3.1
		c-4.8-0.6-8.9-3.1-12.7-6c9.4-2.7,19.3-3.2,28.7-5.7c3.1-0.8,7.1-3.1,10.4-2.2c3.7,1,3.9,4.4,5,7.6
		C271.6,95.5,265.7,96.3,259.9,97.7 M229.9,84.4c-4.6,1.1-9.3,3.5-13.2-0.6c-0.6-0.7-1.2,0-1.1-2.1c0.1-2.2,2.1-3.6,3.8-4.3
		c4-1.8,9.6-0.6,13.8-0.9c6.8-0.4,13.7-1.8,20.3-2.9c4.6-0.7,9.4-2.4,14.2-2.1c3.7,0.3,8.1,3.4,2.7,5.6c-4.9,2.1-12.1,1.8-17.4,2.7
		C245.3,81.1,237.6,82.6,229.9,84.4 M225.4,62.8c0.3,0.3,0.6,0.6,0.9,0.9c0,0,1.8-1.5,2.2-1.5c2.3-0.2,4.7,0,7-0.2
		c5.4-0.3,10.8-1.2,16.1-2.3c4.3-0.8,8.7-2.3,13.1-1.9c3.8,0.3,4.2,1.1,4.5,4.8c-9.8,0-19.9-0.2-29.5,1.9
		c-6.3,1.3-13.2,5.4-16.3-1.9C224.1,62.6,224.7,62.7,225.4,62.8 M231.5,47.1c2.4,1.9,9.1-1.2,12-1.5c3.2-0.3,6.1-0.7,9.2-1.5
		c2.7-0.7,11.7-4.2,13.8-0.9c3.2,5.1-9.7,6.1-11.8,6.3c-8.6,1.1-17.5,2-25.9,4.3C229.7,51.6,230.6,49.3,231.5,47.1 M243.3,29.7
		c0.6,2.4,20.1-6.4,20.4,0c0.3,4.9-19.3,7.3-22.8,6.9C241.8,34.3,244,32.3,243.3,29.7 M249.9,14.8c0.4-4.8,1.1-4.7,4.9-5.2
		c2.9-0.3,6.9-2.1,6.2,3.1C260.3,17.2,249.4,19.6,249.9,14.8 M256.8-1.6c0.9-2.6,3,0.9,3,2.2c0.1,3.5-2.5,2.7-5,2.7
		C255.5,1.7,256.2,0.1,256.8-1.6 M288.8-20.8c-0.5-0.6-3.4-0.9-4.2-1.2c-2-0.7-1.7-2.3-4.3-0.8c-0.1-0.1,0.1-1.3,0-1.4
		c-0.1,0-1.9-0.7-2.5-1.1c-1.4-0.9-2.7-1.8-4-3c-1.4-1.2-2.8-3-4.4-4c-0.7-0.4-1.2-1-2-1.1c-2.1-0.3-1.5,1.1-3.3,1.4
		c-1.1,0.2-2-1.1-3.4-0.6c-1.3,0.5-2,2.3-2.6,3.3c-2.1,3.9-3.7,8.1-5.7,12C242,3,230.2,22.3,220.2,42.5c-4.8,9.7-9.9,19.6-13.3,29.9
		c-2.5,7.5-8,18.4-3.2,25.8c3.5,5.4,10.4,7.8,15.9,10.4c8.3,3.9,16,9.1,24.4,12.9c10,4.6,19.8,9.3,29.6,14.4
		c4.2,2.2,7.9,5.3,12.1,7.4c2.5,1.3,6.5-0.9,7.3,2c3.2-3.9,8.3-1.3,12-4c2.2-1.6,3.8-4.7,5.6-6.7c2.7-3,5.7-5.7,8.4-8.6
		c11-11.5,21.1-23.5,31.1-35.9c9.5-11.8,20.7-23,28.8-35.9c3.2-5.1,3.8-10.5,1.7-16.2c-1.5-4.1-5.3-10.4-10.6-7.6
		c2-3.3-5.8-6.9-8.1-7.6c0,0-0.5,2.6-1.2,2.5c0.2,0-2-5.7-2.9-6.4c-2.9-2.2-6.4-4.7-9.5-6.5c-2.9-1.6-5.9-2.5-8.7-4.3
		c-3.4-2.2-6.5-4.9-9.9-7.1c-3.3-2.1-6.9-4.7-10.6-6.1c-3.1-1.3-6-1.5-8.8-3.6c-3.5-2.6-6.6-4.3-10.6-6.1
		C296.2-16.5,291.3-17.8,288.8-20.8"/>
	<path id="react-path-228" class="st1" d="M54.7,301c0.6-1.5,1.3-3,1.9-4.5C57.4,299.1,57.6,300.4,54.7,301 M55.5,308
		c-1.4,0.2-0.8-4.1-0.8-4.9C57.1,304.5,55.1,306.1,55.5,308 M53.3,295.4c1.2-0.7,2.4-1.4,3.6-2.1c-1.7,3.1-1,1.1-0.3,3.2
		C55.3,296.8,54.1,296.4,53.3,295.4 M46.3,319.3c-4.4,16.1-18.6,28.8-33.5,35.4c-8.6,3.8-17,4.7-26.2,4.3c-3.6-0.2-7.8-1.3-11.2-1.1
		c-2.6,0.2-2.5,0.3-4.7,2.5c-1-1.8-0.3-3-2.2-4.1c-2.4-1.3-3.4,0.2-4.6,2c-1.6-1.6-2.2-2.5-4.3-3.5c0.1,0-2,0-1.9,0
		c-0.4-0.1-2.6-1.5-3.2-1.8c-2.8-1.1-6.1-1.5-8.7-3c-2.3-1.3-4.1-5-6.8-2.2c0-4.8-6.4-6.8-9.5-9.3c-4.7-3.9-8.5-9.7-10.8-15.3
		c-2.5-6-3.3-11.7-4.5-17.8c-0.8-4.3-6.2-10.5-3-14.8c0.8,1.8,0.4,3.7,1.7,5.3c1.1-2.2,1.8-4.7,2.3-7.1c0.3-1.2,1.7-4.7,1.6-5.7
		c-0.3-2.1-3-2.2-1.5-4.8c3,3.3,5.4-2.5,3.2-4.8c-1.1,1.3-1.5,2.7-2.1,4.3c-3-6,5.2-4,3.4-9.4c3-0.6,4.7-1.3,5.8-4.3
		c1.3-3.3,0.3-4,3.2-6.2c1-0.7,3.8-1.8,4.3-3c1-2.4-1.5-3.1,0.7-5.3c0.7,1.3,3.6,3.9,5.2,1.4c0.3-0.5-1-0.8,0-2c1.4-1.7,3-3.3,5.5-3
		c-1.9-4.8,10.4-5.2,13.5-6.3c3.2-1.1,5.8-1.9,9.2-2.1c3.3-0.3,3.5-1.2,6.3-3.3c0.2,2.9,0.9,2.2,3,2.8c0.5-0.8,1-0.9,1.5-0.3
		c0.5,0.5,1.1,0.7,1.9,0.7c1.1,0.1,2.4-0.1,3.6-0.1c2.8,0.1,5.6-0.2,8.3-0.1c0.7-0.1,1.4-0.4,2-0.7c0.3,0.5,0.5,1,0.8,1.4
		c1.4,0.2,1.5,2,3.3,0c0.5,2.5,2,1.2,3.6,1.9c1.4,0.6,1.7,1.6,3,2.3c0.9,0.7,1.8,0.8,2.8,0.3c1,0.7,1.9,1.4,2.9,2.1
		c1.8,1,4,1.7,5.9,2.5c1.3,0.5,2.5,1.1,3.8,1.6c0,1.5,0.7,2.1,2,1.6c1.2,1,1.5,1,2.7,2.7c2.6,3.9,5,6.8,8.3,10.3
		C47.3,278.4,51.8,299.5,46.3,319.3 M50.7,255.6c-6.5-8.7-15.7-18.7-24-24.2c-4.2-2.8-10.1-7.8-15.2-9.3c-1.2-0.3-2.5-0.4-3.7-0.7
		c-0.9-0.3-1.4-1.2-2.5-1.4c-0.7-0.1-0.8,1.5-1.6,1.4c-1.6-0.3-2.7-1.9-3.8-3c-2.5,4.3-3.8-2.9-7.5,1.9c-4.3-6.8-14.5-5.3-21.4-5
		c-2.1,0.1-3,0.8-4.8,1.4c-1.7,0.5-1.9,0.4-3.7,0.4c-4.6,0-8.7,0.5-13,2.6c-7.2,3.4-13.7,8.7-20.5,12.8
		c-7.6,4.6-14.4,10.4-20.2,17.1c-21,24.2-26.6,59.5-9.9,87.6c26.6,44.6,95.2,49.3,134.1,19.1C63.1,332.9,74.5,287.4,50.7,255.6"/>
	<path id="react-path-229" class="st1" d="M175.4,206c-1.4,3.4-14.7,2.3-15-1.8C159.9,198.2,177.8,200.1,175.4,206 M189.5,203.8
		c7.5,0.6,19.9,5.7,27.2,2.6c11.1-4.7-0.6-12-6.5-14.1c-6-2.2-15.1-1-18.2-7.4c-2.3-4.8,3.4-18-3.7-15.9
		c-7.5,2.2-5.3,21.3-17.1,14.8c-5.6-3.1-3.3-21.7-12.8-12.2c-2.6,2.6-2.8,7.4-6.2,9.3c-3.5,2-7.9-0.1-11.5,0.1
		c-9.8,0.5-12.9,9.6-3,13.2c3.7,1.3,17.4,3,9.1,9c-5.3,3.8-16.9-4.1-21.5,2.4c-6.2,9,10.4,9.2,14.9,11.9c7.6,4.6,1.3,15.2,1.9,22.8
		c0.9,11.6,7.7,9.2,10.1-0.6c2.1-8.3-0.5-20.3,12-17c20.4,5.4-11.4,31.3,3.6,38c9.5,4.2,10.9-18.6,11.6-22.6
		c2.7-14.5,10.9-11.1,23.3-10.7c14.5,0.5,17.9-10.2,2.6-13.2c-4.9-1-11.6,0.3-15.8-2.9C187,209.5,183.5,203.3,189.5,203.8"/>
	<path id="react-path-230" class="st1" d="M108.5,404.2c-11.7-4.2-31.3-3.3-34.2,11.8c-1.2,6.3,1.1,13,5.5,17.6
		c5.1,5.3,13.1,5.8,12.7-3.5c-0.3-6.4-6.4-12,4.3-13.3c6.7-0.8,16.6,4.2,16.9,11.6c0.8,16.6-28.1,17.9-38.7,15.1
		c-21.1-5.7-15.3-27.8-0.9-37.9c3.7-2.6,14.5-6.6,15-12c0.7-7.2-8.2-5.7-12.6-4.8c-31.9,7-38.9,60.5-5.5,70.6
		c15.2,4.6,36.5-0.1,45.6-13.9C125.3,432.7,125.5,410.3,108.5,404.2"/>
	<path id="react-path-231" class="st1" d="M-43.2,72.8c-10,4.8-20,9.6-30,14.4c-3.3-7.1-8.9-26.4-17.2-28.8c-13.6-4-4.9,17-2.6,21.9
		c1.9,4,6.4,10.1,5.3,14.8c-1.5,6.3-10.4,8.6-15.1,11.9c-11.6,8.1-11.5,25.1,5.3,17.9c9.5-4.1,21.3-15.4,28.5-2.5
		c3.4,5.9,11.3,39.1,19.6,17.4c5.1-13.4-19.6-27.3-7.4-38.7c3.9-3.7,8.5-4,12.5-6.1C-34.8,89.8-40.1,80.5-43.2,72.8"/>
	<path id="react-path-232" class="st1" d="M344.2,357.4c-6-2.2-13.3-6.4-19.9-5c-7,1.5-9.9,8.6-15,12.8c-13.9,11.5-22-5.6-29.6-15.1
		c-7.2-8.9-16-11-26.2-5.6c-4.1,2.2-21.1,12.1-18.2,18.5c2.1,4.6,10.6,0.5,13.5-0.5c6.2-2.2,12.1-4.1,18.4-0.9
		c12,5.9,15.1,22.3,29.6,24.8c15,2.6,15.5-11.6,26.2-17c7.2-3.6,12.2,2.8,19.1,1.5C348.7,369.8,351.8,360.2,344.2,357.4"/>
	<path id="react-path-233" class="st1" d="M223.1,414.9c5.3,1.2,8.8-9.1,12.1-11.7c5.5-4.3,15.1-5.2,20.7-0.8
		c11,8.5,7.2,26.8,22.8,31.6c13.9,4.3,20.5-14.1,32.2-18.7c6.8-2.7,14.3-4.4,11.6-13.9c-1.8-6.6-7.3-8.3-13.1-5.8
		c-10.1,4.4-13.6,22.1-25.6,22.4c-12.4,0.3-13.8-17.6-19.1-25.4c-8.1-11.9-24.8-14.8-34.3-3.4C227.5,392.7,213,412.7,223.1,414.9"/>
	<path id="react-path-231_1_" class="st1" d="M36.6-2.7C29.9,0.5,23.2,3.8,16.5,7c-2.2-4.7-6-17.7-11.6-19.4
		C-4.2-15.1,1.6-1,3.1,2.3C4.4,4.9,7.4,9,6.7,12.2c-1,4.3-7,5.8-10.1,8c-7.8,5.4-7.7,16.9,3.6,12c6.4-2.7,14.3-10.4,19.2-1.7
		c2.3,4,7.6,26.2,13.2,11.7c3.5-9-13.2-18.4-5-26c2.6-2.5,5.7-2.7,8.4-4.1C42.3,8.7,38.7,2.4,36.6-2.7"/>
</g>
</svg>
