<?xml version="1.0" encoding="utf-8"?>
<!-- Generator: Adobe Illustrator 24.0.2, SVG Export Plug-In . SVG Version: 6.00 Build 0)  -->
<svg version="1.1" id="Layer_1" xmlns="http://www.w3.org/2000/svg" xmlns:xlink="http://www.w3.org/1999/xlink" x="0px" y="0px"
	 viewBox="0 0 1024 768" style="enable-background:new 0 0 1024 768;" xml:space="preserve">
<style type="text/css">
	.st0{display:none;fill-rule:evenodd;clip-rule:evenodd;fill:#FF6161;}
	.st1{fill-rule:evenodd;clip-rule:evenodd;}
</style>
<g id="react-group-235_1_">
	<g id="react-group-236">
		<path id="react-path-238" class="st0" d="M452.6,621.2c1.9,7.8,3.2,15.7,5.5,23.4c1,3.2,2.9,6.1,3.6,9.3c0.8,3.5-1.6,4.6-4.2,6.5
			c1.4-1.9,3.1-3.1,3-5.7c-4.2,1-8.3,5.3-11.5,8c-4.2,3.5-8.4,7.1-12.6,10.7c-7.7,6.6-15.4,13.3-23,20c-7.2,6.3-14.9,11.9-22.5,17.7
			c-6.7,5-13,10.4-18.6,16.7c-1.1,1.3-4.7,7-6.9,6.1c-1.1-0.5-1.4-2.2-1.8-3.2c-0.7-1.7-1.3-3.4-2-5.1c-1.4-3.9-2.7-7.9-4.1-11.8
			c-1.2-3.2-3.1-5.7,0-8.5c5.8-5.2,11.1-10.8,16.9-16c6.7-5.9,13.7-11.4,20.5-17.2c6.5-5.6,12.7-11.5,19.4-16.9
			c6.5-5.4,13-10.7,19.3-16.3C440.2,633.1,446.1,626.8,452.6,621.2z M873.9,565.4c-1.3,2-2.4,2.9-4.3,4.4c-2,1.6-3.6,3.7-5.4,5.6
			c-3.4,3.6-7.1,6.8-10.8,10.1c-7.8,6.8-16.5,12.5-24.3,19.2c-3.8,3.2-6.4,7.5-10.1,10.7c-3.4,3-7.9,4.2-11.7,6.7
			c-1.9,1.3-3.4,3.2-5.5,4.2c-2,1-4.4,1.3-6.5,2.1c-2.7,1-5.1,1.5-8,1.9c-2.4,0.3-4.4,1-6.8,0.6c1.2-0.7,2.3-1.7,3.6-2.2
			c1.2-0.4,2.2-0.2,3.4-0.2c2.4-0.1,4.5-1.4,7-1.5c-2.2-1.8-5.6-0.5-8,0.2c-3.1,0.9-6.2,1.7-9.3,2.6c-14.4,4.3-29,7.8-43.6,11.2
			c-14.5,3.3-29,7-43.6,9.8c-14.1,2.7-28.4,4.5-42.6,7.1c-15,2.8-30,5.7-44.9,9.1c-7,1.6-14.1,2.9-21,4.8
			c-6.7,1.8-13.4,3.6-20.1,5.4c-1.8,0.5-3.7,0.9-5.5,1.5c-1.7,0.6-3.1,1.5-4.8,1.8c-3.1,0.5-5.9,1.3-8.9,1.9
			c-6.9,1.6-13.6,3.9-20.4,5.8c-7.4,2-14.7,4.1-21.9,6.4c-6.8,2.1-13.8,3.6-20.5,5.9c-1.6,0.6-3.1,1.3-4.8,1.6
			c-1.4,0.2-2.8,0.1-4.1,0.5c-1.4,0.5-2.6,1.3-4.1,1.6c-1.6,0.2-2.2,0.4-3.7,1.2c-3,1.6-6.6,1.7-9.9,2.5c-3.2,0.7-6.3,1.8-9.4,2.8
			c-6.8,2.1-13.7,4-20.5,6c-3.6,1-7.1,2.4-10.6,3.6c-0.9,0.3-5.8,2.3-4.8,0.3c0.4-0.8,2.6-2,3.3-2.4c1.3-1,2.7-2,4-3
			c2.7-2,5.4-4,8-6.1c5.8-4.6,11.1-9.9,16.8-14.7c5.3-4.5,10.8-8.6,15.6-13.5c4.9-5,9.3-10.8,13.8-16.2c1.9-2.3,2.8-4.8,4.4-7.2
			c1.5-2.4,3.7-2.3,6.2-2.3l0.5,0c7.3,0,14.8-2.6,21.8-4.7c6.6-2,13.3-4,20-5.5c3.4-0.8,6.8-1.2,10.2-2.1c3.3-1,6.7-1.6,10.1-2.3
			c7.2-1.4,14.1-3.6,21.1-5.8c6.8-2.1,13.8-3.6,20.7-5.5c3.8-1,7.6-2.1,11.4-3.1c3.1-0.8,6.5-2,9.8-2.3c7-0.5,13.6-1.5,20.4-3.4
			c3.5-1,7.1-1.6,10.7-2.5c3.3-0.8,6.3-2.6,9.7-3.3c6.9-1.4,13.7-2.8,20.6-4.6c13.8-3.6,27.6-6.6,41.6-8.7c3.6-0.5,7-1.6,10.6-2.3
			c3.4-0.7,6.9-1,10.3-1.5c7.4-1.1,14.7-3,22-4.4c7.2-1.4,14.4-2.3,21.6-3.7c3.7-0.7,7.4-1.3,11-2.2c3.3-0.8,6.1-2.3,9.5-2.7
			c3.6-0.3,6.9-1.4,10.3-2.5c3.2-1,6.3-1.5,9.5-2.1c1.9-0.3,3.2-1.5,5-2c1.4-0.4,3-0.2,4.5-0.3c3.4-0.4,6.7-1.7,10.1-2.4
			c7-1.4,14-2.6,20.9-4.2C860.2,569.4,867,567.3,873.9,565.4z M728.9,603.1c-2.8,0.1-5.5,0.2-8.3,0.4c-6,0.5-12,1.4-17.9,2.3
			c-12.2,2-24.3,5.2-36.2,8.1c-21.5,5.3-42.8,10.8-63.8,17.9c-10.5,3.6-21,7.2-31.5,10.7c-8.6,2.9-18.1,5.7-25.6,11
			c-1.9,1.3-5.6,4.2-3.4,6.7c1.3,1.5,3.7,1.5,5.5,1.8c2.5,0.4,4.4,0.5,6.8,0.3c5.4-0.5,10.7,0.1,16.1-0.5c5.1-0.7,10.3-1.4,15.3-2.7
			c2.5-0.6,4.9-1.4,7.4-2c2.6-0.6,5.4-0.5,8-1.1c2.3-0.5,4.7-1.1,7-1.7c1.8-0.4,3.4-0.9,4.9-1.7c1.8-0.9,3.9-0.5,5.9-0.9
			c2.3-0.4,4.7-1,7-1.4c2.9-0.6,5.9-1.2,8.8-1.8c2-0.4,3.9-0.8,5.5-2.2c-2.7-2.1-5.1-0.8-8.2-0.1c-3.5,0.8-7,1.6-10.6,2.4
			c-6.6,1.5-13.2,3.2-19.9,4.4c-6.6,1.2-13.1,2.7-19.8,3.4c-6.7,0.7-13.5,1-20.2,2c-3.2,0.5-5.6,0.8-8.7,0.2
			c-1.9-0.4-4.5-0.3-2.3-2.4c1.4-1.4,3.7-1.7,4.7-3.5c0.5-1,0.4-1.6,1.6-2c0.7-0.2,1.9-0.3,2.7-0.3c1-0.1,1.8,0.3,2.8,0.1
			c0.9-0.2,2-0.9,2.8-1.3c2.2-1,4.7-1,6.9-1.9c0.9-0.4,2-1.7,2.9-1.9c0.6-0.1,1.3,0.4,2,0.4c1.9-0.1,4-1.6,5.6-2.5
			c1.3-0.7,1.7-0.7,3-0.6c1.3,0.1,1.3,0.2,2.5-0.5c2.4-1.3,4.2-1.5,6.9-1.9c2.8-0.4,5.5-1.3,8-2.4c1.1-0.5,2-1.2,3.1-1.7
			c0.8-0.3,1.6-0.3,2.3-0.6c1.3-0.6,0.2-0.7,0.7-1.3c0.6-0.5,1,0,1.7,0.1c1,0.1,0.9-0.1,1.7-0.4c0.9-0.3,1-0.2,2.2-0.2
			c2.7,0.1,5.3-1.6,7.7-2.5c0.9-0.4,2.1-0.5,3-1.1c0.6-0.4,1.1-1.4,1.9-1.3c1,0.1,1.2,1.3,2.4,1.2c0.9-0.1,1.6-0.9,2.3-1.3
			c2-1.2,4.5-0.7,6.7-1.5c1.1-0.4,2.1-0.9,3.3-1.1c0.8-0.2,1.3-0.5,2-0.7c2.2-0.7,3.9,0,6.1-1.4c0.9-0.6,1.5-1.2,2.6-1.3
			c0.9-0.1,1.7,0.3,2.6,0.2c2.3-0.3,4.9-1.5,7-2.3c2.6-1,5.1-1.9,7.9-2.2c2.7-0.2,5.2-0.2,7.8-1.1c2.6-0.9,5.2-1.7,7.7-2.7
			c2.4-0.9,4.9-0.8,7.4-1.2c2.5-0.4,5.8-0.5,8-1.6c1.7-0.8,3.6-0.8,5.3-1.6c1.3-0.6,2-1.3,3.5-1.3c1.1,0,2,0.2,3.2,0
			c1.1-0.2,1.9-0.5,3-0.4c1.4,0.1,1.4,0.1,2.6-0.5c2.3-1,5.1-0.8,7.5-1.2c2.7-0.4,5.2-1.3,7.9-2c0.5-0.2,0.9-0.5,1.2-0.8
			C733.8,602.9,731.2,603,728.9,603.1z M878.2,528.8c1.6,3.6,2.3,8.1,3.5,11.9c1.1,3.7,2.2,7.4,3.3,11.2c0.8,2.8-1.3,3-3.4,3.2
			c-3.5,0.4-6.8,1.3-10.2,2.4c-7.4,2.3-14.9,3.7-22.5,5.2c-7.8,1.5-15.5,3.4-23.4,4.6c-7.3,1.1-14.5,3.3-21.8,4.6
			c-3.7,0.6-7.6,1.4-11.1,2.8c-1.6,0.6-3,1.3-4.7,1.4c-1.8,0.1-3.4,0.1-5.2,0.5c-7.3,1.7-14.8,2.7-22.2,3.6c-7.8,1-15.5,2.7-23.2,4
			c-3.8,0.7-7.6,1.3-11.4,2c-3.3,0.6-6.8,2.1-10.1,2.2c-2.2,0.1-4.2-0.2-6.4,0.2c-1.7,0.3-3.4,0.7-5.2,1c-3.8,0.7-7.4,1.8-11.2,2.6
			c-15.2,3.2-30.4,6.3-45.5,10c-3.8,0.9-7.5,2-11.3,2.8c-3.5,0.7-6.7,1.9-10.1,2.8c-7.2,1.8-14.6,2.3-21.7,4.3
			c-7.1,2-14.5,2-21.7,3.8c-7.7,2-15.4,4.2-23,6.6c-15,4.6-30.3,7.6-45.5,11.5c-7.5,1.9-14.8,4.3-22.2,6.5c-3.8,1.1-7.7,2.2-11.6,3
			c-2.7,0.6-6.2,1.8-8.9,1.5c-2.5-0.3-4-4.7-5.1-6.6c-1.5-2.9-1.8-5.7-2.2-8.9c-0.1-1.5-0.4-3.1-1-4.5c-0.4-0.9-2.1-2.2-2.2-2.9
			c-0.3-1.6,5.3-1.6,6.5-1.9c3.5-0.7,6.8-2.4,10.3-3.3c3.5-0.9,6.8-2.1,10.2-3.4c7-2.7,14.1-5,21.2-7.2c3.8-1.1,7.4-2.7,11.1-3.9
			c3-1,6.2-1,9.2-2c7.2-2.3,14.8-3.8,22.1-5.8c4-1.1,8.2-1.5,12.2-2.3c3.6-0.8,7.2-1.7,10.9-2.2c3.4-0.5,6.4-1.4,9.7-2.3
			c3.5-1,7.1-1.2,10.6-1.8c3.9-0.8,7.7-1.6,11.6-2.2c3.4-0.5,6.7-0.9,9.9-2.2c3.2-1.3,6.2-1.3,9.6-2.1c3.5-0.8,7-1.2,10.5-1.8
			c4.1-0.7,8.2-1.7,12.4-2.5c3.3-0.6,6.7-0.6,9.9-1.6c1.8-0.6,3.1-1.4,5-1.6c1.6-0.2,3.1-0.3,4.7-0.6c3.7-0.7,7.5-1,11.2-1.6
			c7.6-1.3,15.2-2.2,22.7-3.8c4.1-0.9,8.1-2,12.2-2.6c3.6-0.6,7.2-1,10.8-2c3.9-1.1,7.5-2.2,11.6-2.8c3.3-0.5,6.7-1,10-1.7
			c8-1.7,16.1-2.1,24.1-3.3c7.3-1.1,14.7-2.4,21.6-5c3.6-1.4,7.5-1.9,11.1-3c3.6-1,7.2-2.1,10.7-3.1c15-4.4,30.2-8,45.5-11.2
			c3.7-0.8,7.4-1.6,11.1-2.4c1.5-0.3,3.2-1,4.7-1.2C877.5,527.4,877.6,527.5,878.2,528.8z M660.2,630.7c-5,0.6-9.9,1.2-14.9,1.9
			c-4.7,0.6-9.6,1-13.9,3.3c7.6-0.5,15.2-0.7,22.7-1.8c6.8-1,13.9-3.1,20.8-1.3c-3.1,2.4-7.1,3.3-10.7,4.5
			c-4.6,1.5-9.2,3.2-13.7,4.7c1.4,1.8,3.7,0.5,5.4-0.1c2.1-0.8,4.3-1.2,6.4-1.9c4.9-1.6,9.6-3.7,14.4-5.8c1.3-0.6,3.4-2.1,1.9-3.6
			c-0.9-0.9-2.7-0.7-3.9-0.7C669.9,629.8,665.1,630.2,660.2,630.7z M394,147.9c2.4,3,0,5.3,0.2,8.5c0.2,3,3.3,1.5,5.3,1.1l0.1,0
			l-1.8,8.9c-0.7-0.8,0.1-1.5-1.2-1.4c-0.2,0-1.1,0.7-1.3,0.8c-0.7,0.3-1.5,0.4-2.2,0.7c0.6,0.4,1.7,1.7,2.2,1.9
			c1.2,0.4,1.4-0.8,2.3-1.3c-1.2,16.2-4.3,34.5,2.2,50c0.8,1.9,1.9,3.8,2.6,5.7c0.5,1.5,0.3,1.4-0.7,2.3c-0.4,0.4-1.1,1-1,1.7
			c0.3,1.2,1.2,0.6,1.9,1.1c1.1,0.8,0.9,2.2,1.1,3.5c0.2,1.3,0.7,2.3,1,3.5c0.2,0.7-0.5,0.6,0.3,1.1c0.6,0.4,1.3-0.1,2,0
			c1.1,0.1,0.4-0.2,0.9,0.6c0.2,0.4,0.7,1.9,0.6,2.3c-0.3,1.4-1.6,1.2-2.8,1.6c0.8,0.8,1.7,1.4,2.4,2.2c0.2,0.3,0.2,1,0.6,1.1
			c0.7,0.2,2.1-0.7,2.7-1c0.8-0.5,1.7-1.7,2.6-1.8c1.5-0.2,1.9,1.3,3,1.9c1.4,0.7,3,0,4.4,0.2c1.7,0.1,3.3,0.8,5,1.3
			c3.8,1.2,7.7,1.6,11.7,1.3c6.5-0.5,13.2-3.2,19.1-6c5.7-2.8,9.4-7.9,13-13c3.9-5.5,7.8-10.9,10.7-17.1c3-6.6,4.9-13.5,6-20.7
			c0.6-3.7,0.9-7.3,1-11.1c0.1-2.7,2-5.3,4.9-5.5c1.8-0.1,3,1.2,4.6,1.3c1.1,0.1,2.3-1.1,3.2-0.9c0.9,0.1,1.9,2.3,2.4,3
			c1,1.3,1.9,2.7,2.9,4c2,2.8,4,5.8,5.8,8.7c0.9,1.4,0.8,2.8,1.5,4.2c0.6,1.3,1.7,1.7,2,3.1c0.4,1.5,0.2,2.3,1.5,3.3
			c1.1,0.9,1.6,0.8,2,2.4c0.3,1.3,0.4,2.8,0.5,4.2c0.1,1.4-0.8,3.7,0,5c0.5-1.1,1-3.1,2.5-3c0.8,0,1.2,1,2,1.1
			c0.8,0.1,1.4-0.8,2.2-0.4c1.8,0.9,0.5,2.7-0.3,3.5c-1.6,1.5-2.1,3.2-1,5.2c1.8-2.2,3.6-0.7,5,1.1c-1.4,0.4-3.1,0.6-1.8,2.3
			c0.3,0.4,2.2,2.1,2.6,2c0.7-0.1,0.3-0.9,1.2-1.1c0.5-0.1,1.3,0.6,1.6,1c0.7,1.2-1.1,3.8-1.6,5c1.3-0.6,2.2-2.5,3.7-2.7
			c1.6-0.1,3.1,1.7,3,3.2c-0.1,1.2-1.3,2,0,2.9c1.6,1.1,4.1-0.7,5.8-0.3c1.7,0.4,1.9,2.9,3.2,4.1c1.3,1.2,1.6,2.6,3.1,3.5
			c3.8,2.2,3.8,7.1,6.6,10.4c1.4-1.3,1.5-1.7,3.3-1.7c0.8,0,2-0.3,2.7,0.1c1.1,0.6,0.7,1.8,1.3,2.7c0.7,1,1.7,1,2.8,1.2l0.2,0
			l-0.9,4.9c1-0.7,1.6-2.9,2.6-0.9c1.2-1.3,0.6-3.5,3.3-2.6c1.7,0.6,2.9,2.2,4.2,3.3c4,3.2,9.1,4.8,14,5.8c1.1,0.2,3.1,0,4.1,0.4
			c0.8,0.4,0.6,0.5,1,1.2c0.3,0.5,0,1.3,0.8,1.2c0.6-0.1,0.7-1.4,0.9-1.8c1.1-1.8,2.9-1.2,4.7-0.7c2.3,0.6,2.5,2.4,3.4,4.5
			c1.1-1.2,2-2.5,3.6-3.2c1.7-0.7,3.8-0.8,5.7-1.3c1.9-0.5,3.7-1.4,5.6-2.1c1.6-0.6,3.4-0.9,4.9-1.7c1.6-0.8,2.7-2.1,4.4-2.9
			c1.8-0.8,3.7-1.5,5.5-2.4c3.7-1.7,7.3-3.7,10.4-6.3c3.3-2.7,6.1-6,8.9-9.2c1.3-1.5,4.5-6.4,1.2-7.9c-1.4-0.6-2.6,0.9-3.5,1.8
			c-1.5,1.6-3,3.2-4.6,4.6c-3,2.5-6.4,4.6-10.2,5.9c2-3.4,5.3-5.9,7.8-8.9c2.6-3.1,5.4-6.3,8.8-8.6c2.5-1.6,5.6-2.3,7.6-4.6
			c1.5-1.7,4.3-6.7,6.9-6c2,0.6,3.6,1.7,5.7,1.6c1.4-0.1,2.5-0.6,3.9-0.2c1.3,0.5,2.6,1.5,3.9,2.2c1.7,0.9,3.2,1.7,4.6,3
			c5,5,9.5,11.9,12.1,18.6c1.4,3.6-0.9,6.5-2.6,9.5c-1.7,3.1-3.5,6.1-5.6,8.9c-4.7,6.4-9.4,12.7-13.8,19.2
			c-4.2,6.2-8.6,12.3-13.5,18c-2.6,2.9-5.2,5.9-8.1,8.6c-2.4,2.2-5.2,3.8-7.8,5.7c-6.9,4.9-13.7,9.8-20.6,14.6
			c-6.1,4.2-12.8,7.1-19.8,9.3c-0.2-1.3-1-0.5-1.9-0.6c-1.1-0.1-2.4-1.3-3.3-2c-0.8-0.6-1.6-1.5-2.4-1.9c-0.9-0.5-1.3,0-2-0.2
			c-2-0.4-3.8-4.8-4.8-6.4c-1.8-2.7-3.6-5.5-5.4-8.2c-7.1-10.8-15.2-22.2-25.9-29.7c-9.6-6.6-21.9-7.3-33-4.5
			c-4.2,1.1-11.5,5.1-15,1.2c-0.8-0.9-2.5-2.6-2.9-3.7c-0.3-0.9,0.6-2.2,0.8-3.3c0.6-2.4,0.5-4.9,0.2-7.4c-0.7-5.3-2.6-10.4-4-15.6
			c-1.7-6.2-3.4-12.3-4.6-18.6c-1.1-6-2.7-12.8-2.3-19c0.1-1.8,2-5.1-0.5-6.1c-2.3-0.9-3.7,1.6-4.1,3.5c-1,5.2-0.2,11.3,0.4,16.4
			c0.7,6,2,11.9,3.4,17.8c1.4,5.9,2.9,11.7,4.5,17.6c0.7,2.6,1.1,5.1,0.1,7.7c-0.9,2.4-2.6,4.5-3.7,6.8c-1.2,2.6-2.1,5.5-3.9,7.7
			c-1.1,1.3-2.8,2.3-3,4.1c-0.2,2,1.8,3-0.1,4.4c-1.8,1.4-3.9,2.6-5.9,3.8c-5,3-10.4,5.5-15.2,8.7c-1.2,0.8-6.3,5.4-7.7,3.6
			c0.3,1.7-6.6,4.7-7.8,5.4c-4.5,2.8-9,5.6-13.4,8.4c-9,5.7-18.1,11.3-26.7,17.5c-4.2,3-8.5,5.2-13,7.6c-2.4,1.3-4.7,2.7-7.1,4.1
			c-2.3,1.3-3.4,1.7-5.9,1.7c-1.9-0.1-2.9,0.9-4.3,2.1c-1.9,1.7-4,3.2-6,4.7c-4.3,3.2-8.7,6.1-13.2,9.1c-3.3,2.2-6.5,4.4-9.6,6.8
			c-2.6,2-5.2,4.3-8.3,5.5c-0.4-1.3-0.9-2.6-1.3-3.9c-0.5,1-1,2-1.1,3.1c-0.1,0.6,0.4,1.6,0.4,2.1c-0.2,1.1-2.4,2.7-3.3,3.4
			c-3.3,2.6-6.6,5.2-9.9,7.9c-3.3,2.7-6,6-9.2,8.7c-1.5,1.2-3.2,2.8-4.9,3.6c-1.6,0.8-2.1,0.2-3.1-1.2c-1,2.1-0.9,2.8-3.2,3.3
			c-1.8,0.4-2.9,1-3.3-1.2c-0.9-4.7-1.5-9.7-1.7-14.5c-0.2-4.9-0.1-10,0.2-14.9c0.1-2.3,0.3-4.7,0.9-7c0.5-1.9,0.4-2.3-0.3-4.1
			c-0.8-2.2,0.8-1.9,1.2-3.6c0.4-1.5-1.6-2.5-1-4.2c0.2-0.7,1-0.9,1.2-1.7c0.2-0.8-0.4-1.4-0.5-2.1c-0.2-0.8-0.3-1,0.1-1.8
			c0.3-0.6,1-0.1,1-0.8c0-1.3-1.9-1.9-1.4-3.7c0.2-0.7,0.9-1.1,1.1-1.6c0.1-0.5-0.3-1.1,0-1.7c0.4-1,1-1.3,1.1-2.3
			c0.1-0.8,0.2-1.5,0.5-2.3c0.7-1.8,1.2-3.2,1.2-5.2c0.1-2.2-0.4-4.4,0.3-6.6c0.5-1.4,1.5-2.7,1.5-4.3c0-1.9-1.9-2.9-2.4-4.7
			c-0.6-2-0.5-4.3,0.4-6.2c0.3,1.1,0.7,2.2,1,3.3c0.3-1,0.8-2.1,0.6-3.1c-0.2-0.8-0.7-0.9-1-1.6c-0.7-1.4,0.1-0.8,0.6-2.1
			c0.3-0.6-0.1-1.5,0-2.2c0.1-0.8,0.4-1.5,0.6-2.3c0.4-1.6,0-2.6,1.2-3.9c2.5-2.6,5.7-4.8,8.4-7.2c1.5-1.3,3-2.6,4.5-4
			c1.4-1.3,1.4-2,1.3-3.9c-4.4,1.6-7.5,5.4-11,8.3c-3.7,3.1-7.9,5.8-11.8,8.8c-7.6,5.8-15.7,11.1-24,15.9c-4.1,2.3-8.2,4.6-12.3,6.9
			c-3.8,2.1-7.5,4.3-11.8,5.4c-3.6,0.9-8.2,1.9-11.1-1.2c-1.4-1.5-0.9-3.3-1.8-4.9c-0.5-0.9-1-0.6-1.5-1.2c-0.8-0.8-0.5-0.2-0.3-1.3
			c0.2-1,0.7-0.8,0.4-2.1c-0.2-0.8-0.7-1.7-1-2.5c-0.6-1.7-1-3.4-2.4-4.7c-0.9-0.9-0.7-0.4-0.9-1.5c-0.1-0.6,0-0.8-0.3-1.4
			c-0.7-1.2-2.4-1.8-3.5-2.6c0.3,0.2,0.6,0.3,0.8,0.5c-0.1-1.5-1-2.8-1.1-4.4c-0.1-1.5,0.2-2.1-0.6-3.4c-0.7-1.1-1.8-1.9-2.4-3
			c-0.7-1.3-1-2.8-1.6-4.1c-1-2.3-3.1-4-3.5-6.6c-0.1-0.8,0.1-1.4-0.4-2.1c-0.2-0.3-0.7-0.3-0.9-0.5c-0.6-0.9-0.3-2-1-2.8
			c-0.6-0.8-2-0.7-2.6-1.5c-0.7-1-0.1-1.7,0.3-2.7c1.2-2.8-1-3.2-2.2-5.4c-1.2-2.2-1.6-4.9-2.5-7.3c-0.5-1.4-1-1.9-1.9-2.9
			c-0.8-0.9-0.7-0.5-0.3-1.8c-2.6,0.1-2.4-5.4-3-7.1c-0.2-0.6-0.5-2-1.1-2.4c-0.3-0.2-1.4,0-1.5,0l0,0l-0.3-0.2
			c-0.6-0.5-1.1-2.2-1.1-2.8c0.1-0.5,0.5-0.6,0.5-1.2c-0.1-0.6-0.8-1.2-1.2-1.6c-1.9-2-5.1-6-4-9c5.5,5.7,10.5,11.8,16.3,17.2
			c4.9,4.5,10.6,6.6,17.1,7.3c3.9,0.4,7.8,0.7,11.7,0.5c3.2-0.2,6.5-0.7,9.8-0.6c1.4,0.1,2.2,0.1,2.7,1.4c0.5,1.1-0.2,1.7,1.3,1.8
			c2,0,3.4-2.1,4.5,0.4l0.1,0.2l0.1-0.3c0.8-2.7,3.5-4,6-4.9l0.2-0.1c3.7-1.3,7.2-2.8,10.6-4.6c6.5-3.4,12.5-7.8,17.5-13.2
			c8.8-9.8,14.6-21.8,20.4-33.5c6.2-12.4,13.2-24.6,21.2-36c3.7-5.3,8-9.9,13.2-13.8c5.1-3.8,10.8-8.4,17.2-9.6
			c3.2-0.6,6.5-1.1,9.8-1.6C388.7,145.8,391.9,145.2,394,147.9z M199,246.7l2.2-4.3c13.3,29.8,26.7,59.5,40,89.3
			c-2.3-0.5-4.6-1.1-6.7-2.1c-1.1-0.5-3.4-2.4-4.7-2c-0.4,0.1-0.3,0.8-0.6,0.8c-0.7,0.2-0.9,0.2-1.7,0.1c-1.9-0.4-3.7-1.5-5.6-2.1
			c1.1-1.8,0.2-3.4-1-4.8c-0.5-0.7-1.4-2-2.4-1.8c-1.2,0.3-0.9,2.1-2.5,1.3c-0.4-0.2-0.3-0.9-0.8-1.1c-0.6-0.2-0.9,0.4-1.4,0.3
			c-1.3-0.2-1.6-2.3-2.9-2.3c-0.9,0-1.2,1.2-2.2,1.3c-1.5,0.2-1.6-0.9-1.7-2l0-0.2c-0.2-1.7-0.1-2.6-1.8-3.6
			c-0.4,1.5-0.1,3.7-2.1,3.3c-1.5-0.3-3.1-1.8-3.8,0.6c-8.9-4.4-16.8-10.2-24.1-16.8c-6.9-6.1-11.8-13.5-16.8-21.2
			c-2.3-3.5-5-7-6.9-10.7c-1-2-0.5-3.3,0.1-5.4c0.2-0.8,0.5-1.6,0.4-2.5c0-0.4-0.5-1.2-0.3-1.6c0.6-1.3,3.2-0.6,4.3-0.5
			c2,0.1,4.1-0.1,6.1-0.3c4.3-0.4,8.6-1.1,12.7-2.5c8.5-3,15.3-7.9,22.6-13l0.8,2l0,0L199,246.7l2.2-4.3L199,246.7z M204.8,312.7
			c-0.5,0.3-0.4,0.5,0.4,0.7C205.1,313.1,204.9,312.9,204.8,312.7z M461.2,306.3c0.2,2.2,1.9,1.6,3.2,1.9
			C463.8,306.8,462.6,306.3,461.2,306.3z M459.6,307.2c0,0.1,0,0.1,0,0.2C459.6,307.3,459.6,307.3,459.6,307.2z M668.1,269.6
			c-0.4,1.4-1.3,2.8-2.4,3.8c-1.2,1.1-2.6,1.1-4,1.8c-2.4,1.3-2.6,4.3-3.6,6.5c0,0.4,0.1,0.9,0.2,1.3c1.4-0.6,1.9-2.1,3.4-2.5
			c0.7-0.2,1.1,0,1.7-0.4c0.6-0.3,0.9-1.2,1.4-1.6c1.2-1.2,2.8-1.9,3.8-3.3c1-1.4,1.6-3.1,2.3-4.7c-0.8-0.3-1,0.7-1.7,0.7
			C668.3,271.2,668.4,270.3,668.1,269.6z M468.2,266.1c-0.3,0.1-1.3,0-1.4,0.3c-0.5,1.5-0.7,3.1-1.1,4.7
			C467.9,270.2,468,268.2,468.2,266.1z M164.1,261.2c-0.3,1-0.6,1.8,0.5,2.4c0.4,0.1,0.7,0.1,1.1,0
			C165.1,262.8,164.6,262,164.1,261.2z M532.9,246.5c-0.2,0.9-0.5,1.8-0.8,3C535.1,248.3,535.1,248.2,532.9,246.5z M532.2,239
			c-0.6,0-1.2,0.1-1.8,0.2c0.6,0.7,1.5,1.4,1.8,2.3c0.1,0.4-0.2,1.4,0.1,1.8c0.9,1.1,2.6-0.1,3.5-0.4c-1-0.6-2-1.1-2.6-2.1
			C533,240.6,532.6,239,532.2,239z M535.1,233.5l-0.1,0.2c-0.4,1.3-1.5,2.6-1,4.1c0.4,1.1,1,1.5,2,1c1.3-0.7,1.6-2.1,0.8-3
			c-0.2-0.2-0.6-0.1-0.8-0.4c-0.4-0.5-0.5-1.1-0.7-1.7L535.1,233.5z M667.2,230.5c0.3,0.4,0.8,0.8,0.9,1.4c0.1,0.4-0.5,0.7-0.4,1.2
			c0.1,0.9,0.3,1.2,1.3,1.3c2.1,0.2,3.7-2.4,1.3-3.4C669.3,230.5,668.2,230.7,667.2,230.5z M529.7,229.4c-0.4,0.6-2.9,4.2-1,3.6
			c0.6-0.2,1.7-1.6,2-2.1c0.1-0.2,0.5-0.5,0.5-0.8C531.2,229.6,530,228.9,529.7,229.4z M521.3,228.7L521.3,228.7
			c-0.2,0.2-0.2,0.5-0.3,0.7c-1.6,1.1,2.3,3.1,3,3.6c0.6-1.7,0.2-1.7-1-2.7C522.8,230.2,521.8,228.9,521.3,228.7L521.3,228.7z
			 M686.2,223.9l-0.6,0.6c0.8,0.1,0.3,1.1,0.9,1.4c0.9,0.5,1.3,0.1,1.9-0.7C687.7,224.7,687,224.3,686.2,223.9z M506.8,190.8
			c0,0.1-0.1,0.2-0.1,0.3C506.8,191,507,191.1,506.8,190.8z M507.5,186.2l-0.5,0.1l-0.5,0.1l0.5,2.8
			C508.3,188.8,507.6,187.1,507.5,186.2z"/>
		<g id="react-group-235" transform="translate(127.000006, 21.999983)">
			<path id="react-path-239" class="st1" d="M72.9,89.4c0.1,0.2,0.2,0.4,0.3,0.6C73.1,88.9,73,88.7,72.9,89.4"/>
			<path id="react-path-240" class="st1" d="M510.3,218.8C510.3,218.8,510.3,218.8,510.3,218.8L510.3,218.8z"/>
			<path id="react-path-241" class="st1" d="M756.1,532.9c-7.5,0.5-14.5,3.7-21.7,5.4c-7.7,1.8-15.5,2.9-23.3,4.5
				c-3.7,0.8-7.5,1.6-11.2,2.1c-3.7,0.5-7.2,1.4-10.9,2.2c-7.3,1.6-15.1,2.7-22.2,5.1c-7,2.3-14.4,2.8-21.6,4
				c-7.8,1.3-15.7,2.2-23.5,3.7c-7.7,1.4-15.4,2.8-23,4.2c-3.7,0.7-7.3,2-11,2.2c-4.2,0.2-8.1,0.7-12.3,1.5
				c-15.8,3.1-31.5,6.9-47.2,10.5c-3.8,0.9-7.6,1.8-11.5,2.8c-3.9,1-8,1.5-11.8,2.7c-7.1,2.1-14.2,4.2-21.5,4.7
				c-3.7,0.2-7.1,1.8-10.6,2.6c-3.7,0.8-7.6,1-11.4,1.4c-7.6,0.9-15.4,3.7-22.7,5.8c-7.4,2.1-14.7,4.8-22.1,6.6
				c-7.8,1.9-15.7,3.4-23.5,5.3c-15.1,3.8-29.8,9.3-45.1,12.1c-1.2,0.2-3.1,0.8-4.3,0.4c-1.2-0.5-1.8-2.1-2.5-3.1
				c-1.9-3.1-3.6-6-4-9.7c-0.4-3.3-0.3-6.5-2.5-9.2c-0.6-0.8-1.5-0.9-0.3-1.8c0.7-0.6,3.2-0.4,4.1-0.6c3.3-0.6,6.2-2.2,9.4-3
				c3.7-0.9,7.2-1.9,10.8-3.1c7.2-2.6,14.3-4.9,21.6-7.2c3.6-1.1,7.1-2.3,10.5-3.7c1.7-0.7,3.3-1.5,5.1-1.7c1.9-0.3,3.6-0.2,5.5-0.9
				c7.5-2.4,15.2-4.2,22.9-6c7.3-1.7,14.8-3.6,22.2-4.5c3.7-0.5,7.1-1.4,10.7-2.4c3.8-1.1,7.7-1.4,11.6-2.2
				c6.8-1.4,14.4-1.7,20.8-4.3c3-1.2,5.9-1.3,9.1-1.8c3.9-0.7,7.8-1.5,11.8-2.1c3.8-0.7,7.5-1.5,11.3-2.2c3.8-0.7,8-0.8,11.6-2.1
				c6.4-2.3,13.6-2.3,20.3-3.6c7.9-1.6,15.9-2.5,23.8-4.1c7.6-1.5,15.5-2.6,23-4.6c3.5-0.9,6.8-2,10.4-2.4c4-0.5,7.9-1.3,11.8-2.1
				c7.3-1.4,14.7-1.7,22-3c14.9-2.6,29.3-7.1,43.8-11.2c7.5-2.1,14.8-4.2,22.4-5.7c3.6-0.7,6.9-2,10.4-2.9c3.9-1,7.9-1.8,11.9-2.5
				c3.6-0.7,7.2-1.4,10.7-2.2c1.7-0.4,4.7-2,6.3-1.6c1.6,0.4,1.5,2.9,1.8,4.3c0.8,3.5,1.9,6.9,2.9,10.3c0.9,2.9,1.8,5.8,2.7,8.7
				C758.2,530.4,758.7,532.8,756.1,532.9L756.1,532.9z M745,546.1c-3.9,2.3-6.6,6.2-9.8,9.4c-3.6,3.5-7.4,6.8-11.2,10.1
				c-3.9,3.4-8,6.6-12.2,9.7c-3.9,2.9-7.9,5.6-11.4,8.9c-3.3,3.1-5.7,7.1-9.4,9.9c-3.6,2.7-7.9,4-11.5,6.7c-1.7,1.2-3.2,2.7-5.2,3.5
				c-2.3,0.9-4.7,1.6-7,2.4c-2.3,0.8-4.5,1.1-6.8,1.4c-2.6,0.4-4.4,1.1-7,0.7c1.2-0.7,2.4-1.7,3.7-2.1c1.1-0.4,2.1-0.2,3.3-0.2
				c2.4-0.1,4.5-1.4,7-1.5c-2.2-1.8-5.4-0.6-7.8,0.1c-3.7,1.1-7.4,2.1-11,3.2c-7.3,2.2-14.7,4.2-22.1,6
				c-15.5,3.8-31.1,7.3-46.7,10.9c-7.7,1.7-15.4,2.8-23.1,4.6c-7.3,1.6-14.8,2.3-22.2,3.7c-15.5,2.9-31,5.8-46.5,8.9
				c-15.3,3-30.7,6.1-45.7,10.5c-7,2-13.9,4.5-21,6.1c-7.3,1.6-14.3,4-21.4,6c-7.4,2.1-15,3.7-22.3,6.1c-7.4,2.4-14.9,4.7-22.4,6.7
				c-1.6,0.4-3,1-4.5,1.6c-1.9,0.7-3.5,0.7-5.5,1c-1.5,0.2-2.7,0.9-4.1,1.4c-1.6,0.6-3.3,0.3-4.8,1.2c-3,1.8-6.1,2.2-9.6,2.9
				c-4.1,0.8-8,2.1-11.9,3.3c-7.2,2.3-14.6,4.2-21.8,6.4c-1.1,0.3-12.7,5-12.9,3.6c-0.1-0.9,3-2.6,3.7-3.1c3.2-2.4,6.4-4.8,9.6-7.2
				c5.7-4.4,10.9-9.4,16.3-14.2c5.6-5,11.8-9.2,17.1-14.5c5.1-5,9.2-10.9,14-16.3c2-2.3,3.6-4.5,4.9-7.3c1.5-3,3.2-3.6,6.5-3.6
				c7.2,0.1,14.9-2.2,21.7-4.3c6.9-2.2,14.2-4.7,21.4-5.7c7.3-1.1,14.3-3.3,21.5-4.8c7.6-1.6,15-4,22.4-6.3c7.4-2.2,15-3.9,22.5-6
				c3.5-0.9,6.9-1.9,10.4-2.9c3.8-1.1,7.4-1,11.3-1.5c7.3-0.9,14-3.1,21.1-4.6c3.5-0.7,6.6-1.6,9.9-3c3.4-1.4,7-1.7,10.5-2.5
				c7.7-1.6,15.3-4,23-5.9c7.3-1.8,14.8-3.3,22.2-4.8c3.5-0.7,7.1-1,10.6-1.5c4-0.6,7.8-1.8,11.7-2.5c15.2-2.7,30.4-5.6,45.7-8.1
				c7.8-1.3,15.6-2.8,23.2-5.2c3.3-1.1,6.7-1.1,10-2c3.5-1,6.9-2.4,10.4-3c1.9-0.3,3.8-0.3,5.6-0.9c1.2-0.4,2.3-1.2,3.5-1.6
				c3.6-1.1,7.7-1.1,11.4-2c7.5-1.8,15.2-3,22.8-4.7c7.3-1.7,14.5-3.9,21.8-5.9C746.3,544.3,746,545.5,745,546.1L745,546.1z
				 M273,682.3c-5.7,4.3-11.5,8.5-17,13c-5,4.1-9.3,9-13.5,13.8c-1.4,1.6-3.1,4.1-4.8,1.4c-1.7-2.6-2.5-6.1-3.5-9.1
				c-1.1-3.3-2.2-6.6-3.4-9.8c-0.9-2.4-2.6-4.9-0.8-7.4c1.6-2.3,4.3-4.2,6.3-6.2c2.6-2.6,5.1-5.1,7.8-7.5c5.2-4.6,10.7-9,16-13.4
				c5.7-4.8,11.3-9.7,16.9-14.6c4.9-4.3,9.6-8.8,14.8-12.6c12.3-9,22.3-20.7,33.8-30.7c1.9,7.8,3.2,15.7,5.5,23.4
				c0.9,3.1,2.7,5.8,3.6,9c1,3.7-1.4,4.8-4.1,6.8c1.4-1.9,3.1-3.1,3-5.7c-2.9,0.7-5.1,2.9-7.4,4.7c-2.4,1.9-4.8,3.9-7.1,5.8
				c-5.2,4.4-10.4,8.9-15.6,13.3C293.4,665.3,283.6,674.3,273,682.3L273,682.3z M249.7,631.4c-5,0.3-9.7,1.8-14.7,2.1
				c-2.4,0.1-4.7,0.6-7.1,0.7c-2.7,0.1-5.4-0.3-8.1-0.2c-5.3,0.3-10.5-0.2-15.8-0.5c-5.3-0.3-10.5-0.4-15.7-1.2
				c-2.1-0.3-4.2-0.7-6.4-0.9c-1.7-0.2-4.4-0.3-5.2-2.2c-0.7-1.8-0.1-4.7-0.1-6.5c0-1.7,0.1-3.4,0.1-5c0-2.3-0.1-6.1-3.2-6.4
				c-1.8-0.2-3.5,1-5,1.8c-2.5,1.3-4.9,2.6-7.3,4c-2.3,1.4-4.7,2.9-6.9,4.6c-1.7,1.3-3.5,3.1-5.9,2.8c-2-0.3-3.8-1.7-5.6-2.4
				c-2.6-1.1-5.6-1.6-8.4-1.7c0.4-4.2,0.7-8.5,1.1-12.7c0.1-1.5,0.3-3.1,0.4-4.6c0.1-1.6-0.1-3.8,0.3-5.4c0.7-2.6,5.5-1,7.7-0.8
				c4.1,0.3,8.2,0.6,12.4,1c2,0.2,6,1.4,7.7,0c2.1-1.7,1.5-8,1.7-10.4c0.1-1.8-0.5-6.9,1.2-8.1c1.1-0.8,3.4-0.2,4.6-0.1
				c2,0.1,3.9,0.2,5.9,0.1c15.6-0.3,31.1-3.8,46.2-7.2c3.4-0.7,6.2-1.9,7.9,1.8c1.7,3.7,3.2,7.5,4.9,11.3c1.3,2.9,3.6,5.7,2,8.9
				c-1.7,3.5-3.8,6.9-5.8,10.3c-1.3,2.2-5.3,7.6-0.3,8.1c3.6,0.3,7.9-1,11.4-1.6c1.5-0.3,3-0.6,4.2,0.6c1.3,1.3,1.9,3.9,2.7,5.6
				c1.9,4.3,4,8.4,5.8,12.8C254.3,630.5,252,631.3,249.7,631.4L249.7,631.4z M173.2,630.2c-4.4-0.7-8.7-1.4-13.1-2.1
				c-1.1-0.2-7.5-0.3-6.6-2.2c0.4-0.7,2.7-1.6,3.3-2c1.9-1.2,3.8-2.4,5.7-3.5c3.6-2.1,7.3-4,11.2-5.2
				C173.6,620.2,173.4,625.2,173.2,630.2L173.2,630.2z M136.8,589.3c0.2-2.8,0-6.3,0.7-9.1c0.7-2.5,2.9-3,5.2-2.8
				c2.9,0.3,5.8,1.2,8.8,1.6c3.7,0.4,7.4,0.5,11,0.3c0,4.2,0.6,8.9-0.4,13c-0.8,3.4-4.2,2.1-6.8,2c-4.4-0.3-8.8-0.4-13.1-0.9
				C139.5,593.1,136.7,592.6,136.8,589.3L136.8,589.3z M231.2,556.7c-0.1-0.1-0.1-0.3-0.2-0.5C231,556.4,231.1,556.6,231.2,556.7
				L231.2,556.7z M224.4,537.7c-0.4-1.3-1.2-2.4-1.5-3.7c-0.3-1.1-0.3-2.2-0.8-3.3c-1.1-2.4-2.9-4.4-3.9-7c-1.1-2.9-1.4-6.3-3.2-8.8
				c-0.8-1.1-1.4-1.7-1.8-3c-0.5-1.4-1-2.4-1.7-3.8c-1-2.1-1.5-4-2.7-6.1c-1.4-2.5-2.8-5.2-4-7.9c-0.5-1.2-0.8-4.5-2.1-5.2
				c-1.1-0.6-1.1,0.5-1.9-0.7c-0.7-1-0.6-1.6,0.6-2c-0.5-0.7-1.5-0.4-2.1-1c-0.6-0.6-0.4-1.6-0.7-2.3c0.8,0.2,1.6,0.5,2.4,0.7
				c-2.3-5-4.4-10-6.9-14.9c-2.1-4.2-3.6-8.8-6.6-12.4c-1.5-1.8-0.4-3.7-1.4-5.6c-0.4-0.7-1.1-1.3-1.4-2c-0.4-0.8-0.2-2-0.7-2.7
				c-0.7-1-1.3-0.4-2.1-0.9c-0.6-0.4-0.9-1.2-1.3-1.8c-0.2-0.3-0.9-1.4-0.8-1.7c0.2-1.2,1-0.1,1.6-0.7c-1.3-3.2-2.6-6.3-4-9.5
				c-0.6-1.4-1.7-6.6-4-5c-1.2-3-1-5.5-2.3-8.6c-1.9-4.3-3.6-8.6-5.4-12.9c-0.9-2.1-1.7-4.2-2.6-6.3c-0.8-1.7-2.1-2.6-3.2-4.1
				c-0.9-1.4-1-3.8-1.5-5.5c-2.3-7.1-6.2-13.3-9.4-20c-2-4.2-3.8-8.5-5.7-12.7c-0.9-2.1-2-4-3-6.1c-0.4-0.8-0.7-1.5-0.9-2.4
				c-0.1-0.5,0.1-1.6-0.1-2c-0.3-0.6-1.2-2.1-1.7-3c-0.7-1.4-2.1-2.2-2.4-3.6c-0.2-0.9,0.1-1.3-0.4-2.2c-0.7-1.1-1.1-1.2-1.3-2.5
				c-0.3-2.1-1-3.4-2.2-5c-1.2-1.6-1.9-3.1-2.7-5c-0.6-1.4-2.3-3.4-1.7-5c0.5-1.3,2-1.5,3.2-1.8c2.1-0.5,4.1-1.1,6.1-1.8
				c4.3-1.5,8-3.6,11.7-6.1c3.4-2.3,6.9-5.2,10.6-6.9c3.3-1.5,6.7-4.8,9.9-7.2c3.7-2.8,7.6-6.5,12-8.1c-4.5,10.1-6.1,20.8-7.1,31.8
				c-1,11.4-1.1,22.6-0.8,34c0.3,11.1-0.1,22.2,1.7,33.2c0.9,5.3,2.2,10.5,2.9,15.8c0.3,2.5,1.3,9.3,4.6,9.8
				c2.1,0.3,3.4-1.8,5.1,0.3c1.3,1.5,1.4,3.6,2,5.4c0.7,1.9,2.7,2.9,2.4,5.1c-0.2,1.1-0.7,1.4,0.1,2.4c0.5,0.6,1.6,1.3,2.2,2
				c0-0.3-0.2-1.2,0-1.5c0.3-0.4,0.9,0,1.2-0.4c-0.4,0.3-0.8,0.1-1.1,0.5c-0.6,0.8,0.2,2.3,0.5,3.1c0.7,1.8,1.7,3.4,2.9,5
				c1.1,1.5,2.1,3.4,3.4,4.7c1.3,1.3,2.9,1.8,4.1,3.4c1,1.4,1.7,2.9,3.2,3.8c1.7,1.1,2.5,2,3.7,3.5c2.6,3.4,7.4,5.4,11,7.6
				c3.9,2.3,8.3,4.3,12.9,3.9c0.7,0,1.5-0.2,2.1-0.1c1.2,0.2,1,0.7,1.8,1.3c1.1,0.9,2.4,0.8,3.8,0.9c4.7,0.4,9.6,0.4,14.3,1.1
				c2.3,0.3,9.1,2.5,10-0.8c3.2,2.3,6.2,1,9.7,0.2c3.5-0.8,7.7,0.2,10.8-1.8c1.6-1.1,1.8-1.4,3.8-1.5c1.7-0.1,3.4,0,5-0.8
				c1.6-0.7,2.3-1.3,4-1.6c2-0.3,3.7-1.2,5.5-2c3.7,12.2,9.9,23.1,11.3,36c0.7,6.5,0.2,12.6-0.9,19c-0.5,2.8-0.9,5.4-2.4,7.8
				c-1.6,2.5-3.8,4.7-5.9,6.7c-4.2,3.9-9.1,7-14.1,9.8c-5.2,3-10.6,5.9-16.1,8.2c-5.7,2.3-11.2,4.8-16.8,7.3
				c-6,2.7-11.7,4.1-18.2,5.1c-1.6,0.3-3.2,0.6-4.8,1c-1.3,0.4-3.2,1.3-4.5,0.5c-1.5-1-2.2-4.5-2.9-6.1c-1.2-2.8-2.1-6-3.8-8.6
				c-0.6-0.9-0.9-1.4-1.3-2.4C225.8,539.1,225.7,538.1,224.4,537.7c-0.2,1-0.9,2.9,0.6,3.3C223.8,540.7,223.9,540,224.4,537.7
				L224.4,537.7z M214.9,521.5c0,0.1,0.1,0.3,0.1,0.4C215,521.8,215,521.7,214.9,521.5L214.9,521.5z M194.3,472.4
				c-0.2-0.2-0.3-0.5-0.5-0.7c0.6-0.2,0.6-0.1,1,0.4C194.6,472.2,194.5,472.3,194.3,472.4L194.3,472.4z M156.5,387.2
				c-0.6-0.7-0.5-0.5-0.1-1C157,386.4,157.1,386.8,156.5,387.2L156.5,387.2z M156.9,388.5c-0.3-0.2-0.3-0.3,0-0.5
				C157.2,388.1,157.2,388.3,156.9,388.5L156.9,388.5z M156.4,391.8c0.1,0.5,0.3,0.8,0.7,1C156.7,392.6,156.5,392.3,156.4,391.8
				L156.4,391.8z M152.6,382c-0.1,0.4-0.1,0.8-0.2,1.3c0.1-0.8,0.3-1.6,0.1-2.5c0.1,1-0.1,1,0.6,1.8
				C153,382.4,152.8,382.2,152.6,382L152.6,382z M185.8,394.7c0.1-0.2,0.2-0.3,0.2-0.5C186,394.3,185.9,394.5,185.8,394.7
				L185.8,394.7z M234.1,455.7l0.1-0.6L234.1,455.7z M257.7,460.5c0,0.4,0,0.8,0.1,1.2C257.7,461.3,257.7,460.9,257.7,460.5
				L257.7,460.5z M250.1,461.9c0,0,0.1-0.1,0.1-0.1C250.2,461.9,250.1,461.9,250.1,461.9L250.1,461.9z M269.3,462.1
				c-0.6,0.3-1.2,0.8-1.7,1.2C267.6,463,268.9,462.2,269.3,462.1L269.3,462.1z M477,518.9c-1.1-0.5-2.5-1.6-1.6-3
				c-1.3-0.2-1.3-1.5-1.7-2.6c-0.6-1.7-1.7-3.1-2.6-4.7c3.3-1.5,7.1-1.8,10.6-2.5L477,518.9z M474.2,523c1-1.4,1.9-2.8,2.8-4.2
				C476.7,520.1,475,522,474.2,523L474.2,523z M437.5,444.9l0.3-0.3C437.5,444.6,437.4,444.7,437.5,444.9L437.5,444.9z M429.8,427.7
				c-0.2,0-0.4-0.2-0.5-0.5C429.5,427.5,429.6,427.7,429.8,427.7L429.8,427.7z M426.8,421.1c-1.3-0.9-2.2-2.1-3-3.4
				C424.6,419.1,425.5,420.3,426.8,421.1L426.8,421.1z M423.5,417.2c-0.2-0.4-0.3-0.7-0.5-1.1C423.2,416.4,423.4,416.8,423.5,417.2
				L423.5,417.2z M424.8,414.5c-0.5-0.1-1.2-0.1-1.7,0.1C423.5,414.4,424,414.4,424.8,414.5L424.8,414.5z M433.1,428.2
				c-0.4-0.1-0.3-0.6-0.6-0.8c-0.3-0.2-0.8-0.2-1-0.4c-0.7-0.6-0.5-0.3-0.6-1.5c-0.1-1.5-1-2.3-1.3-3.5c-0.4-1.5,0.2-2.3-1-3.5
				c-1.5-1.5-3.4-2.8-3.9-4.9c-0.2-1,0.1-1.9,0.1-2.8c0-0.7-0.7-2.2-0.4-2.8c0.5-1.1,3.9-1.3,5.1-1.5c5.5-1.3,11-2.5,16.5-3.8
				C442.5,411.5,438.7,420.4,433.1,428.2L433.1,428.2z M435.2,441.1c0.1,0.1,0.1,0.2,0.2,0.3c-0.2-0.3-0.4-0.5-0.6-0.8
				C434.9,440.8,435,441,435.2,441.1L435.2,441.1z M424.8,543.3c0.2-2.8,1.3-5.5,1.9-8.2c0.7-3.1,0.9-6.2,0.9-9.3c0-6-0.6-12-1-17.9
				c-0.7-12.3-2.7-24.5-4.5-36.7c-1.8-11.6-4.1-23.1-9.4-33.7c-2.4-4.8-5.5-9.6-6.8-14.8c-0.3-1.2-0.2-2.5-0.6-3.6
				c-0.4-1.2-1.3-1.8-2.1-2.8c-1.8-2.3-2.8-5.4-4.1-8.1c-1.2-2.4-2.2-5-3.5-7.3c-0.6-0.9-1.2-1.7-2-2.5c-0.6-0.5-1.8-1-2.1-1.7
				c-0.7-1.4,1.2-2.5,2.1-3.6c2.3-2.5,4.4-5.3,6.5-7.9c1.6,8.4,3.3,16.7,6.5,24.7c3.2,7.7,6.6,15.3,10.3,22.8
				c7.2,14.6,14.3,29.2,21.2,43.9c1.6,3.4,3.5,6.6,5.3,9.9c2.1,3.7,3.8,7.6,5.8,11.4c3.8,7.1,6.9,14.6,10.8,21.7
				c3.8,7,8.5,13.5,12.8,20.2c1.1,1.7,5.1,6.3,4.5,8.5c-0.3,1-1.2,1-2.1,1.1c-2.3,0.4-4.6,0.6-6.9,1c-4.4,0.8-8.7,2.1-13.2,2.8
				c-3.9,0.6-7.8,0.9-11.5,2.2c-2.2,0.8-4.2,0.8-6.5,1.2c-2.1,0.3-4.2,1.1-6.3,1.6c-4.6,1.2-9.3,1.8-14,2.7
				C420.3,555.4,424.3,549.9,424.8,543.3L424.8,543.3z M415.1,470.4c1,6,2,12.1,3,18.1c-5.2-2-10.7-3.5-15.4-6.7
				C406.2,477.4,410.8,474,415.1,470.4L415.1,470.4z M397.8,421.9c2.1,0.7,1.5,1.6,0.6,3.4c-0.9,1.8-1.8,3.6-2.5,5.6
				c-1.9,5.1-3.6,10.3-5.3,15.4c-1.6,4.9-3.3,9.7-4.8,14.6c-0.2,0.6-0.6,3.1-1.5,3.1c-1-0.1-2-4.5-2.3-5.4c-1.8-5-3.9-9.9-6.4-14.7
				c-0.7-1.5-2.5-3.5-2.3-5.3c0.2-1.7,2-2.5,3.2-3.3c4.5-2.8,9-5.6,13.4-8.4c1.5-1,3-2,4.4-3.1C395,423.2,396.7,421.5,397.8,421.9
				L397.8,421.9z M325.6,507.3c0-0.2,0-0.5,0-0.7C325.6,506.9,325.6,507.1,325.6,507.3L325.6,507.3z M325.6,506.6
				c0-0.2,0-0.5,0.1-0.7C325.6,506.2,325.6,506.4,325.6,506.6L325.6,506.6z M239.5,576.7c-0.1,0-0.2,0-0.3,0
				C239.3,576.6,239.4,576.7,239.5,576.7L239.5,576.7z M241,595.9c1,2.2,1.9,4.3,3,6.5c0.6,1.2,2.1,3.1,1.3,4.5
				c-0.8,1.3-2.8,1-4.1,1.2c-2.3,0.2-4.7,0.6-7,0.9C236.5,604.5,238.7,600.2,241,595.9L241,595.9z M239.8,576.9c0.2,0.4,0,1,0.2,1.4
				C239.9,577.9,240.1,577.3,239.8,576.9L239.8,576.9z M252.5,604.6c-0.5-0.5,0.1-1.9,0-2.6c-0.1-1.5-0.5-1-1.4-1.8
				c-1.9-1.4,1.1-2.5-0.1-4.5c-0.2-0.4-0.8-0.4-1-0.8c-0.1-0.3,0-0.7-0.2-1c-0.3-0.8-0.6-1.8-0.9-2.7c-0.5-1.4-1.3-4.6-3.4-4.1
				c1.9-4,3.9-8,5.8-12c4.3,11.1,9.1,22.2,16.3,31.8c-5,0-10,0.3-15-0.3C253.6,606,252.5,605.4,252.5,604.6L252.5,604.6z
				 M264.2,628.8c-0.4,0.2-0.8,0.1-1.1-0.3C263.4,628.8,263.8,628.9,264.2,628.8L264.2,628.8z M319.1,594.7
				c-5.8,4.2-11.4,8.6-16.9,13.2c-2.4-6.7-2.6-13.8-2.9-20.8C305.5,590.4,312.6,591.7,319.1,594.7L319.1,594.7z M366.4,573.1
				c-1.7,0.2-3.1-0.8-4.7-1.4c-1.8-0.7-3.7-1-5.6-1.3c-4-0.7-8-1.4-12-2c5.9-7.5,11.7-15,17.6-22.5
				C361.7,555.1,364.7,564,366.4,573.1L366.4,573.1z M390.3,546.5c1.1,2.2,2.3,4.3,3.4,6.5c0.7,1.4,1.4,3.9,2.6,5
				c1.4,1.3,2.9,0.2,2.6-1.5c-0.4-1.8-2-4-2.9-5.6c-0.9-1.7-2.3-2.6-0.5-3.7c1.5-0.9,3.6-1.5,5.2-1.9c4.9-1.3,10.1-1.3,15.1-1.1
				c-1.8,4.2-4.2,8.2-6.7,12c-1.1,1.6-2.3,3.1-3.7,4.4c-1.1,1.1-1.5,2.4-2.5,3.5c-1.2,1.2-3,1.5-4.6,1.9c-1.9,0.5-3.5,1.1-5.3,1.8
				c-1.9,0.7-4.2,0.4-6,1.3c-1.7,0.8-3,1.4-4.9,1.8c-3.7,0.8-7,3-10.6,3.6c-1.8,0.3-1.8,0-2.3-1.8c-0.5-1.5-0.6-3-0.9-4.5
				c-1.6-9.3-3-18.7-4.6-28c-4.2,4.8-8,10.1-12.2,14.9c-2.1,2.4-4.4,4.7-6.6,7.1c-1.3,1.4-4.1,3.7-4.1,5.8c0,3.1,5.1,3.9,7.3,4.3
				c5.9,1,12,1.2,17.4,3.9c-1.7,1.9-4.3,2.2-6.5,3c-3,1.1-6,2.3-9,3.5c-1.5,0.6-3,1.3-4.6,1.8c-1.6,0.5-3.4,0.3-5,0.8
				c-1.3,0.3-2.3,1.2-3.5,1.7c-1.4,0.5-2.7,0.5-4.2,0.7c-3.1,0.4-5.9,1.6-8.8,2.7c-2.9,1.2-5.3,0.9-8.1-0.1
				c-6.1-2.2-12.5-3.8-18.4-6.4c-0.8,6.1-1.1,13,0.6,19c0.6,2.2,2.5,5,1,7.2c-1.2,1.8-4.1,3-5.7,4.3c-5.1,3.8-10.1,7.9-15.8,10.8
				c-2.8,1.4-5.7,2.3-8.8,2.8c-1,0.2-3.3,0.8-4.1,0.3c-0.2-0.1-0.1-0.7-0.3-0.8c-0.7-0.4-0.9-0.5-1.8-0.6c1.6-2.1-0.9-2.1-1.9-3.5
				c3.6-2.9-2.4-5.8-3.3-8.3c2.2,0.2,1.5-1.3,0.7-2.6c-1.1-1.8-2.8-1.8-4.9-2.3c1.5,0.3,3,0.9,4.6,0.9c1.5,0,3-0.3,4.6-0.5
				c1.8-0.2,6.8,0.3,7.7-1.4c1-1.8-1.6-4.8-2.5-6.2c-1.9-3-3.9-5.8-5.6-9c-3.2-5.9-5.8-12.2-8.3-18.4c-1.2-3-2.7-4.4-4.8-1
				c-1.5,2.5-2,5.5-3.9,7.7c-1.3-1.5-1.5-2.7-2.1-4.5c-0.7-2-2-3.7-2.9-5.6c-1.9-4.2,3.2-3.2,5.8-3.4c4.3-0.5,8.1-2.3,12.1-3.7
				c4.3-1.5,8.5-3.1,12.6-5c8.3-3.7,16.7-7.1,24.4-11.9c7.1-4.4,14.6-8.5,20.4-14.6c3.1-3.3,5.5-7.2,7-11.5c0.8-2.3,1.4-4.7,2-7.1
				c0.6-2.1,1.6-4.2,1.4-6.4c0,0.1,0,0.2,0,0.4c2.6-1.9,1.8-5,1.7-7.7c0-0.5-0.2-1.1,0-1.6c0.3-0.6,0.9,0,1.2-0.8
				c0.3-0.8-0.9-2.2-1.1-2.9c0.4,0.2,0.7,0.4,1.1,0.6c0.4-2.4,1-4.7,0.9-7.1c-0.1-2.4-0.7-4.8-1.2-7.2c-0.5-2.2-1-4.4-1.6-6.6
				c-0.1-0.4,0-1.1-0.4-1.4c-0.7-0.5-1.6,0.2-1.8,0.9c0.2-0.7,0.5-0.9,0.5-1.7c0-0.8-0.3-1.7-0.5-2.4c-0.4-2.1-0.7-4.2-1.2-6.3
				c-0.4-1.8-0.7-3.7-1.2-5.5c-0.2-0.6-0.5-1.3-0.5-1.9c-0.1-0.9,0.2-0.8,0.5-1.5c0.1-0.2,0.5-0.4,0.6-0.6c0.2-0.4-0.2-1,0-1.5
				c0.3-0.5,0.7-0.7,1.2-0.9c1.7-0.6,2.3-0.2,3.7-1.6c1.1-1.2,2.6-1.6,4-2.5c1.7-1,3-1.6,4.5-3c1.6-1.4,3.4-2.7,4.8-4.3
				c1-1.1,1.3-3,2.5-3.8c0.8-0.5,1.8-0.5,2.6-1c0.8-0.5,1.5-1.3,2.3-1.9c1.9-1.4,4-2.7,5.9-4c7.9-5.5,15.5-11.5,22.3-18.3
				c3.4-3.4,6.6-7.1,9.8-10.7c0.3-0.4,2.3-3.2,3.1-3.1c0.8,0.2,1.5,3.8,1.9,4.5c1.9,3.9,3.6,7.6,5,11.7c0.6,1.6,1.3,2.5,0,3.6
				c-1.5,1.4-3.9,2.3-5.7,3.3c-4.3,2.5-8.5,5-12.7,7.5c-2.3,1.4-7.7,3.4-8.5,6.2c-1,3.6,3.1,8.6,4.6,11.5c2.1,4.1,3.6,8.4,5.1,12.8
				c0.6,1.8,2.7,9.7,5.7,9c1.5-0.4,2.1-2.2,2.6-3.5c0.8-2.1,1.6-4.2,2.4-6.3c3.7-10.4,7.1-20.9,11.2-31.1c3.4,6,6.1,12.4,8.9,18.7
				c1.2,2.7,2.2,5.4,2.7,8.4c0.6,2.8,1.7,6.4,1.5,9.3c-0.3,5.8-24,14.5-13.2,21.5c4.7,3.1,10.9,3.6,15.6,6.5
				c2.5,1.5,2.4,4.1,2.4,6.7c-0.1,3.3,0.1,6.6,0.3,9.9c0.4,7.1,1.6,14.8,0.1,21.9c-0.5,2.3-0.6,5.4-1.5,7.6c-1.1,3-5.6,1.9-8.2,1.8
				C407.5,540,387.5,541.2,390.3,546.5L390.3,546.5z M481.4,536.8c0.9-0.6,1-0.4,0.3,0.5C481.5,537.1,481.5,537,481.4,536.8
				L481.4,536.8z M488,546.3c-0.5,0.7-1.5,0.7-1.9,0.6C486.5,547,487.5,547,488,546.3L488,546.3z M210.7,384.6
				c6.6-6,14.7-10.3,21.7-15.9c7.6-6,15.5-11.6,23.4-17.2c15.7-11.1,31.1-22.6,47.1-33.4c15.8-10.7,32.2-20.3,48.9-29.6
				c7.7-4.3,14.8-9.5,22.7-13.3c4.2-2,8.3-4,12.5-5.9c2-0.9,3.2-1.2,4.8,0.6c1.1,1.3,1.8,2.9,2.8,4.3c2.8,4.1,5.7,8.1,9.3,11.7
				c1.5,1.5,6.8,6.8,9.2,4.6c1-0.9,1.1-2.8,1.5-4c0.8-2.5,1.7-5,2.5-7.5c1.8-5.1,3.8-10,5.8-15.1c4.1,2.1,8.4,3.8,11.9,6.7
				c3.4,2.8,6.6,5.9,9.6,9.1c1.2,1.3,1.5,1.3,0.9,2.9c-0.3,0.7-0.8,1-0.4,1.9c0.3,0.7,1.3,0.7,1.3,1.7c0,0.9-1.6,2.4-2.3,2.9
				c-1.9,1.3-4.4,2.1-6.4,3.1c-2.3,1.1-8.4,2.8-9.1,5.7c-0.5,2.1,1.5,3.3,2.9,4.4c1.9,1.5,3.9,2.9,5.7,4.4c3.7,3.1,7.1,6.6,10,10.4
				c2.7,3.6,4.5,7.6,7,11.3c0.8,1.2,2.7,3.9,4.4,2.4c1.3-1.2,1.4-4.8,1.8-6.4c1.2-5.4,2.5-10.9,4.4-16.1c4.9,8,8.4,16.5,12.2,25.1
				c3.9,8.9,8.1,17.8,11.8,26.7c0.9,2.2,4.2,6.5,2.3,8.8c-0.9,1.1-2.5,1.7-3.6,2.5c-1.9,1.3-3.7,2.7-5.6,4.1
				c-3.6,2.7-8.2,5.3-11.1,8.8c-2.6,3.2,1,6.2,3.6,7.8c3.9,2.5,8.6,3.5,12.9,5c4.8,1.6,9.4,3.9,14.5,4.6c-0.2-2.2-0.2-4.1-2.2-5.3
				c-2.4-1.3-5.4-1.8-7.9-2.6c-5.9-1.9-11.8-4.1-17.6-6.4c6.1-5.7,12.6-10.9,19.3-15.9c6.3,14.2,8.6,29.8,14.9,44
				c6.3,14.2,12.5,28.7,15.5,44.1c-0.7-0.5-1.3-1-2-1.5c-5.8,8-7.3,18.4-13.8,26c-1-4.9-3.8-8.9-6.2-13.1c-1.1-2-3.6-6.1-2-8.4
				c1-1.4,4-1.5,5.6-1.9c2.6-0.6,5.2-1.7,7.7-2.8c1.7-0.7,3.9-1.2,5.5-2.1c1.3-0.8,2.5-2.6,0.3-2.6c-2,0-4.3,1.3-6.1,1.9
				c-2.7,0.9-5.4,1.7-8.1,2.4c-1.8,0.5-3.7,0.5-5.4,1.1c-2.3,0.7-2.5,2.4-2.3,4.6c0.4,4.8,2.6,8.9,5.1,13c1.3,2.1,2.5,4.2,3.3,6.5
				c0.5,1.5,0.7,3.6,2.3,4.6c3.6,2.2,6.8-6.9,7.8-9c3-6,5.8-12.1,8.6-18.1c1.4,1.2,1.8,3.2,2.3,4.9c0.6,1.9,1.3,3.7,1.9,5.6
				c0.7,2.2,1.4,4.4,2.2,6.6c0.6,1.4,1.6,2.9,1.4,4.5c-0.2,1.9-2.1,3.5-3.2,4.9c-1.2,1.5-2.3,3.1-3.4,4.7c-2.6,3.6-5.2,7.2-7.7,10.9
				c-2.5,3.7-4.5,7.7-6.9,11.5c-2.3,3.6-4.8,7-7.3,10.5c-2.4,3.3-4.1,6.8-6.3,10.2c-2.6,4-5.6,7.6-8.4,11.4c0-0.3-1.1-1-1.3-1.3
				c-0.5-0.7-0.1-1.1-1.1-1.3c-0.9-0.2-1,1-2,0c-0.6-0.6-0.5-1.6-0.3-2.2c0.3-0.7,0.9-0.5,0.8-1.5c0-0.3-0.6-0.6-0.7-0.9
				c-0.2-0.5,0-1.1-0.2-1.6c-0.5-2-2.5-3.3-3.7-1.2c-0.1-0.5-0.3-0.9-0.4-1.4c0.4,0,0.8,0.1,1.2,0.1c-0.3-1.7,0.1-3.4-0.5-4.9
				c-0.5-1.3-1.1-2.2-0.7-3.6c0.4-1.5,1.5-3.6,2.2-5.3c0.9-2.2,1.7-4.4,2.4-6.7c1.1-3.1,3.4-7.9,1.2-11c-1.1-1.6-2.4-1.5-4-1.1
				c-2.4,0.6-4.7,1.2-7.1,1.9c-1.5,0.5-3.4,1.2-4.9,0.4c-1.6-0.8-2.3-3.4-3-5c-1-2.4-1.9-4.7-3.2-7c-1.1-1.9-1.8-4.1-3.2-5.7
				c-1.1-1.3-2.3-2.7-2.6-4.5c-0.1-0.6,0.1-1.4-0.2-1.9c-0.4-0.6-1.1-0.7-1.5-1.5c-0.9-1.8-0.2-3.7-2.3-5c-0.8-0.5-4-1.4-1.3-2.1
				c-1.2-3.2-2.6-6.2-4.1-9.3c-0.7-1.5-1.4-3-2.1-4.6c-0.3-0.7-0.6-1.7-1-2.4c-0.3-0.5-0.8-0.7-1.1-1.1c-0.7-1-0.5-1.7-0.8-2.8
				c-0.3-1.3-1.3-2.3-2.1-3.3c-2-2.8-2.7-6.2-3.7-9.5c-0.4-1.4-1.2-3.1-1.4-4.6c-0.2-1.4,0.3-1.6,1.1-2.9c1.9-3.1,3.8-6.3,5.4-9.5
				c1.4-2.7,2.5-5.6,3.9-8.4c1.1-2.4,2.6-4.6,3.3-7.2c0.6-2.2,0.5-4.6-1.2-6.3c-2.3-2.2-5.7-0.7-8.4,0c-3.4,0.9-6.7,1.8-10.1,2.7
				c-1.6,0.4-6.1,2.7-7.5,1.2c-0.6-0.6-0.4-1.7-0.5-2.5c-0.1-1.2-0.5-2.1-1-3.1c-0.6-1.2-1.3-2.3-1.7-3.5c-0.3-1.1-0.1-2.2-1-3.1
				c-0.8-0.8-0.9-0.4-1-1.7c-0.1-1.2,0.2-2-0.4-3.2c-0.6-1.1-1.4-2-1.9-3.2c-0.4-0.9-0.3-1.6-0.4-2.5c-0.4-2.5-3.1-5-2.6-7.6
				c0.4-2.3,3.1-3.5,3.4-6c0.8-6.4-6.7-2.1-9-0.4c-0.7,0.6-1.6,1.6-2.6,1.4c-0.8-0.2-1-1.4-1.8-1.6c-2-0.6-1.1,3.4-1.6,4.6
				c-1.2,2.8-4.2,4.9-6.2,7.2c-2.4,2.8-4.6,5.7-7,8.5c-0.7,0.9-3,4.5-4.5,4.7c-2.3,0.4,0.8-3.4,1.1-3.9c1.7-2.6,2.7-5.7,3.9-8.5
				c1.3-3.3,2.9-6.4,4.4-9.6c1.5-3,3-6,4.3-9.1c0.8-2,2.8-5.1,2.4-7.3c-0.4-2.4-3-2.3-5-2c-3.2,0.4-6.5,0.9-9.7,1.4
				c-8.1,1.3-16.3,1.9-24.3,3.6c-1.4,0.3-8.8,1.3-7.9,3.3c0.7,1.5,6.6-0.3,7.6-0.4c3.9-0.6,7.9-1,11.8-1.4c4.2-0.4,8.3-0.8,12.5-1.5
				c4.1-0.7,8.1-2.1,12.2-2.4c-2.2,7.2-6.5,13.9-9.4,20.8c-1.5,3.4-3,6.8-4.6,10.2c-0.7,1.6-1.5,4.8-3.4,5.3
				c-2.2,0.6-4.2-2.5-5.4-3.9c-2.2-2.8-4.1-5.8-5.9-8.9c-1-1.7-9.6-17.9-11.4-16.8c-0.7,0.4,11.8,21.5,13.2,23.4c2,2.9,5,8,8.6,9.1
				c0.7,0.2,2.7-0.1,2.8,0.8c0.1,0.9-2.3,1.7-2.9,2c-3.6,2.2-6.5,5.6-9.5,8.4c-3.5,3.3-7.3,6-11.1,8.8c-1.4,1-2.9,2.1-4.2,3.3
				c-1.1,0.9-2.3,2.5-3.8,2.9c-1.3,0.4-1.6-0.3-2.3-1.4c-1.3-2.1-2.6-4.1-3.8-6.1c-5-8-10.4-15.5-17.3-22c-0.8-0.8-2.1-2-2.9-0.6
				c-1,1.8,1,2.5,2.1,3.2c3.6,2.4,6.5,6.8,9,10.2c3,4,5.6,8.1,8.3,12.3c1.3,2,4.8,5.2,1.5,6.8c-3.5,1.7-8.1,1.8-11.8,2.9
				c-4.5,1.4-8.7,3.4-13.2,4.8c-3.8,1.2-7.8,2-11.6,3c-1,0.3-3.1,0.7-3.4,1.8c-0.4,1.3,0.9,1.5,1.9,1.6c3.4,0.1,7.5-0.9,10.7-1.8
				c2.6-0.7,5.2-1.5,7.8-2.3c1.7-0.6,3-1.7,3.9,0.2c-2.8,1.2-5.4,2.7-8.3,3.7c-1,0.4-1.6,1.2-2.5,1.7c-1.3,0.8-2.9,1.1-4.3,1.6
				c-3,1.2-5.8,2.7-8.8,3.7c-3.2,1.1-6.6,1.7-9.8,2.7c-2.5,0.8-4.5,2.3-7.2,2.4c-1.4,0.1-2.9-0.1-4.3,0.1c-1.3,0.2-2.4,1-3.7,1.2
				c-0.9,0.1-2.2,0-3.1-0.1c-0.4,0-0.7,0.1-1.1,0c-0.3,0-0.7-0.5-1.1-0.6c-1.3-0.2-2.9,0.5-4.3,0.5c-1.4,0-2.8-0.2-4.2-0.3
				c-2.6-0.2-5.6-0.4-7.9-1.8c-2.2-1.4-4.3-0.7-6.7-1.7c-2.6-1.1-5-0.2-7.5-1c-1-0.3-1.5,0-2.5,0c-1.3-0.1-2.8-1.7-3.9-2.2
				c-5.6-2.7-10.8-5.7-15.3-10.2c-1.9-1.9-3.3-4.2-5.7-5.3c-2.3-1.1-2.9-3.4-4.6-5.3c-1.6-1.7-8.1-7.1-6-9.6
				c0.7-0.8,2.4-1.1,3.4-1.5c1.5-0.6,3.1-1.3,4.6-1.9c3.5-1.5,7-2.7,10.6-3.9c-1.3,3.7-2.4,7.5-3.8,11.1c-0.4,1.1-1.4,2.4-1.3,3.6
				c0.1,1.5,1.5,1.9,2.2,3c1.2-3.1,2.3-6.2,3.5-9.2c1-2.5,2.5-5.4,2.3-8.1c-0.4-6.9-7.9-2.4-11.3-0.9c-2.7,1.2-5.4,2.3-8.1,3.5
				c-1.5,0.7-3.8,2-5.5,1.2c-2.2-1-2.1-4.1-1.6-6c0.9-3.1,0.5-4.1-2.1-6C202,392.1,206.5,388.5,210.7,384.6L210.7,384.6z
				 M382.7,253.8c0.6,1.5,3.1,5.7,2,7.1c-0.6,0.8-3.2,1.4-4,1.8c-1.7,0.8-3.4,1.5-5.1,2.3C377.9,261.2,380.3,257.5,382.7,253.8
				L382.7,253.8z M419.4,263.5c-1.9,5-3.6,10-5.2,15.1c-0.6,1.8-1.6,9.1-4.3,8.7c-1.4-0.2-2.9-2.1-3.9-3.1c-1.7-1.5-3.2-3.2-4.6-4.9
				c-3.1-3.7-6.4-7.4-8.6-11.7C401.2,264.2,410.4,263.9,419.4,263.5L419.4,263.5z M450.1,285.8c-0.2-0.2-0.4-0.4-0.6-0.6
				C449.7,285.4,449.9,285.6,450.1,285.8L450.1,285.8z M452.7,290.8c1.9,2.9,3.7,5.9,5.6,8.9c-1.2-1.9-2.4-3.8-3.6-5.7
				c-1.2-1.8-1.1-2.1-3.2-1.4c1,2.5,1.4,4.9,3.8,6.4c2.9,1.6,5.4,2.2,6.2,6c0.7,3.4-1,6.9-1.9,10.1c-1.2,4.1-2,8.3-3,12.5
				c-2.4-1-3.3-3.8-4.3-5.9c-1.4-3-3.2-5.8-5.3-8.4c-4.3-5.6-10-9.9-15.5-14.3c4.2-2.1,8.3-4.3,12.5-6.4
				C446.7,291,450.6,287.5,452.7,290.8L452.7,290.8z M540.1,533.7c5-8.3,9.7-16.8,15-24.9c2.6-3.9,5.4-7.7,8.2-11.4
				c2.3-3.1,4.4-6.7,7.1-9.4c3-2.9,5.7-6.2,8.4-9.3c1.3-1.4,2.3-3.1,3.8-4.4c1.6-1.5,3.4-2.8,5-4.3c3.3-3,6.1-6.3,9.5-9.2
				c3.3-2.9,7-5.5,10.6-8.1c2.8-1.9,6.5-5.2,10.1-5.2c3.8,0,3.3,4.5,3.3,7.3c0.1,4.6-0.6,9.1-1.2,13.6c-0.6,4.6-1.3,9.2-2.6,13.8
				c-2.4,8.6-5,17.6-8.4,25.9c-1.7,4.2-3.8,8.1-5.6,12.2c-1.2,2.7-2.1,6.2-4.8,7.9c-1.8,1.1-4.3,1.2-6.4,1.6
				c-2.7,0.5-5.4,0.9-8.1,1.4c-5,0.9-10,1.3-15,2.3c-5.2,1-10.3,1.7-15.6,2.2c-2.8,0.3-5.4,0.9-8.2,1.5c-2.5,0.5-5.1,0.4-7.6,1.1
				C538.6,536.7,539.3,535.1,540.1,533.7L540.1,533.7z M501.7,543.4c1-0.6,1-1.7,1.4-2.7c0.4-1.1,1.1-1.9,1.7-2.8
				c1.1-1.9,1.2-3.8,2.7-5.5c3.4-3.9,4.5-9.5,7.1-13.8c6.2-10.6,12.4-21.3,18.4-32c1.9,3.9,3.8,7.9,5.8,11.7
				c1.6,3.1,4.6,6.7,5.2,10.2c0.6,3-2.9,6.6-4.3,9c-2,3.6-4,7.2-5.6,11.1c-1.3,3.2-2,6.8-4,9.7c-2,2.8-5.4,2.4-8.4,2.7
				c-4,0.5-8,1.4-11.9,2.2c-1.8,0.3-3.5,0.7-5.3,1.3C503.5,544.8,500.2,545.7,501.7,543.4L501.7,543.4z M479.6,317.6
				c9.6,0.6,16.9-3.5,25-7.9c4.1-2.3,7.9-5,11.8-7.5c3.9-2.5,8-4.9,11.6-7.7c1.6-1.2,2.9-2.8,4.5-4.1c1.5-1.2,3.2-2.1,4.6-3.4
				c2.7-2.6,5.6-5.7,7.6-8.9c4.8-7.8,10.7-14.8,16.3-22c3.1-4,5.7-8.4,8.5-12.7c2.9-4.4,5.8-8.8,8.3-13.4
				c17.4,37.1,35.2,74,52.8,111c9,18.9,18,37.8,26.9,56.8c4.3,9.1,8.9,18,13.4,26.9c4.4,8.7,8.2,17.9,12.2,26.8
				c2.2,4.9,5.2,9.4,7.3,14.4c2.1,4.9,4.5,9.6,7.1,14.3c2.5,4.6,4.6,9.4,7.2,13.9c2.5,4.5,3.9,9.5,6.7,13.7
				c-8.2,1.7-16.5,3.2-24.7,5.2c-4.1,1-8.2,1.6-12.3,2.6c-4,1-7.8,2.6-11.9,3.3c-8.4,1.3-16.9,2.8-25.4,3.9
				c-4.2,0.6-8.5,0.7-12.8,1.1c-4.4,0.5-8.7,1.5-13.1,2.3c0.2-2.9,1.9-5.6,3-8.3c1.3-3.1,2.6-6.2,3.6-9.5c2-6.4,3.7-13,5.4-19.5
				c3.3-12.6,6.6-26.9,3.6-39.8c-1-4.3-3.3-8.9-7.5-10.9c-5.5-2.5-10.8,1.5-15.2,4.4c-5.7,3.6-10.9,8-15.9,12.5
				c-2.4,2.2-4.8,4.3-6.9,6.8c-2,2.4-4.5,4.1-6.6,6.3c-10.2,10.9-19,22.9-26.7,35.6c-1.4-3.5-2.5-7-4.5-10.2c-1.5-2.5-3.3-4.8-5-7.1
				c-1.2-1.6-2.9-3.6-2-5.6c1-2.1,4.1-3.1,3.5-5.8c-1.3,0.7-2.5,1.5-3.8,2.2c-3.7-11.8-8.2-23.4-11.9-35.2
				c-1.8-5.9-3.6-11.7-5.5-17.5c-1.8-5.4-4.5-10.4-6.8-15.6c-4.8-10.6-6.4-22.3-10.5-33.2c-0.8-2.2-2.1-4.2-2.9-6.4
				c-0.4-1-0.7-1.7-0.2-2.6c0.3-0.6,1.3-0.9,1.5-1.5c0.3-1.6-2.4-0.9-3.3-1.8c-0.7-0.7-1-2.1-1.4-3c-0.7-1.6-1.4-3.3-2-4.9
				c-5.4-13-11.2-25.8-17.2-38.5C477.1,317.2,478.4,317.5,479.6,317.6L479.6,317.6z M572.1,194.1c-0.6-0.8-0.5-2.1-1.3-2.9
				c-0.8-0.7-1.6-0.5-2.3-1.4c-0.2-0.3-1.2-2-1.3-2.4c-0.1-0.2,0.1-0.9,0-1.3c-0.2-0.7-0.9-1.1-1.3-1.7c-1.6-2.7,1.1-3.5,1.7-6.1
				c0.4-1.5,0.2-2.4,1.4-3.5c0.9-0.8,2.3-1.8,3.4-2.4c0.8-0.5,0.8-0.3,1.6-0.6c0.4-0.1,0.5,0.1,1-0.1c0.8-0.3,1.6-1.5,2.2-2.1
				c1.8-1.8,2.7-3.2,2.1-5.8c-0.3-1.3-0.8-3.5-2.4-3.2c-0.9,0.2-2,1.8-2.7,2.4c-1.2,1.2-2.4,2.6-3.8,3.5c-1,0.7-2.2,0.6-3.1,1.2
				c-1.2,0.7-1.1,1.9-1.6,3.1c-1.2,2.4-4.4,4.3-6.4,5.9c-2,1.7-4.1,3.3-6.5,4.5c-2.1,1.1-5.7,2.6-8.2,1.9
				c-4.1-1.3,2.7-10.8,4.1-12.6c3-3.7,9.9-6.6,8.9-12.2c-0.4-2.5-1.9-4.2-4.5-3.1c-3.2,1.4-6.1,4-9.2,5.5c-3.3,1.7-6.7,3.1-10.1,4.5
				c-1.9,0.8-3.7,1.6-5.6,2.4c-1.4,0.6-2.9,1.6-4.5,1c5-6.9,10-13.9,15.7-20.3c2.7-3,5.7-5.5,8.9-8.1c2.3-1.9,5-3.8,4.8-7.2
				c-0.1-2.5-1.5-5.9-4.5-5.3c-1.9,0.4-3.6,2-5.4,2.8c-1.6,0.6-2.8,1.2-4.2,2c-1.6,0.9-3.7,1.1-5.4,1.5c-1.9,0.5-3.8,1.1-5.8,1.5
				c-4.2,0.9-8.4,0.7-12.6,0.7c3.5-6.1,9.1-10.5,14.5-14.9c3-2.5,5.8-5.3,8.8-7.7c3-2.4,6.2-4.6,9.2-7l0.7,2.6
				c1.4-0.7,1.8-2.5,3.1-3.3c1.7-1,3.7-0.6,5.5-0.1c3.9,0.9,7.3,2.8,10.3,5.4c6.2,5.4,10.7,12.3,14.2,19.6c1.9,3.9,3.6,7.9,5,11.9
				c0.7,2,1.4,4,1.4,6.2c0,2.3-1,4.3-1.6,6.5c-1.1,4.2-1.4,8.7-1.9,13c-0.6,4.6-1,9.2-1.3,13.7c-0.2,2.4-0.5,4.9-0.9,7.3
				c-0.1,0.7-0.1,1.8-0.5,2.4c-0.3,0.6-1.1,0.8-1.4,1.5c-0.3,0.7-0.1,0.7,0.1,1.6c0.3,1.2,0.1,2-0.2,3.2c-0.7,2.5-1.5,5-2.2,7.5
				c-1.9-0.8-4.3-2.8-5.1-4.8c-0.4-1.1,0-1.8,0.1-2.8C573.3,196.5,572.9,195.3,572.1,194.1L572.1,194.1z M520,88.3
				c0,0,0.1,0.1,0.1,0.1C520,88.4,520,88.3,520,88.3L520,88.3z M500.7,45.4c0,0-0.1-0.1-0.1-0.1C500.7,45.4,500.7,45.4,500.7,45.4
				L500.7,45.4z M500.7,47.2c-0.2-0.5,0.4-1.2,0.1-1.6C500.9,45.7,500.6,47.2,500.7,47.2L500.7,47.2z M614.8,296.3
				c0.3,0.4,0.5,0.8,0.8,1.2C615.3,297.1,615.1,296.7,614.8,296.3L614.8,296.3z M618.7,296.4c-0.1-0.2-0.2-0.4-0.4-0.6
				C618.5,296,618.6,296.2,618.7,296.4L618.7,296.4z M621.1,300.4c0-0.1,0.1-0.2,0.1-0.3c-0.1,0.4-0.3,0.4-0.5-0.1
				C620.8,300.1,621,300.3,621.1,300.4L621.1,300.4z M622.9,303.1c0-0.2-0.1-0.4-0.1-0.5C622.8,302.7,622.8,302.9,622.9,303.1
				L622.9,303.1z M107,307.4c-1-0.5-2.3-1.9-3.5-1.9c-0.5,0-1.6,0.3-1,0.9c0.3,0.3-2,0-2,0c-1.3-0.3-2.7-0.8-4-1.3
				c-2.3-0.8-4.6-1.6-6.9-2.5c-4.6-1.6-8.9-3.9-13.4-5.8c-8.7-3.7-16.1-8.8-23.5-14.7c-15.1-12-24.8-29.5-33.7-46.3
				c9.1,0.8,18.5,1.2,27.2-1.6c9.1-2.9,16.4-8.2,24.2-13.6c0.5,1.3,1,2.7,1.5,4c0.7-1.4,1.5-2.9,2.2-4.3
				c13.3,29.8,26.7,59.5,40,89.3C111.7,309.1,109.3,308.5,107,307.4L107,307.4z M19,261.8c2.4,1.1,3,2.2,3,5.1
				C22,264,21.4,262.9,19,261.8L19,261.8z M20.7,143.8c0,0.1,0,0.3,0,0.4C20.7,144,20.7,143.9,20.7,143.8L20.7,143.8z M11.4,164.3
				c0.3-1.1,0.6-2.3,0.9-3.4c0.2,2.2,1.4,3-1.3,4C11.1,164.7,11.2,164.5,11.4,164.3L11.4,164.3z M13.4,166.7
				c-0.2,0.4-0.3,0.3-0.2-0.3C13.2,166.6,13.3,166.6,13.4,166.7L13.4,166.7z M25.5,136.6c5.5-7,10.8-14.1,16.8-20.6
				c4.8-5.1,10.2-10.9,17.5-12.2c-0.6,6.6-5.2,12-8.8,17.3c-2,3-4,5.8-6.4,8.5c-2.1,2.4-3.3,5.1-1.9,8.3c0.8,1.9,2.7,4.6,5,4.3
				c1.4-0.2,2.7-1.6,3.8-2.4c1.6-1.1,3.2-2.2,4.8-3.2c3.1-2,6.1-4,9.2-5.9c2.8-1.7,5.7-4.3,9.1-4.6c-1.2,3.3-3,6.4-4.6,9.6
				c-1.7,3.2-3.2,6.5-5.4,9.4c-2.1,2.8-4.8,4.7-7.5,6.9c-2.3,1.9-2.1,4.7-0.9,7.2c1.5,3,3.6,4.6,6.2,2.2c2.8-2.7,5.6-5,8.8-7.2
				c2.7-1.9,5.3-3,8.3-4.3c1.2-0.5,3.6-2.2,5-1.5c1.9,1,0.3,5.8-0.1,7.4c-0.9,3.7-2.2,7.2-4.1,10.5c-3.1,5.6-6.4,11.5-11.8,15.2
				c-4.4,3.1-14.5,6.3-11.2,13.2c1.5,3,3.1,5.9,4.6,8.9c1,1.8,4.3,5.9,3.1,8.1c-0.8,1.5-3.6,2.5-5,3.3c-1.9,1.1-3.8,2.3-5.8,3.3
				c-3.6,2-7.2,3.8-11,5.3c-7.7,3-16.2,3.4-23.8,6.6c0.5-0.2,0.9-0.4,1.4-0.5c-1.3-0.2-1.9-2.3-2.3-3.4c-0.2-0.5-0.7-1.2-0.8-1.7
				c-0.1-0.6,0.3-1.1,0.3-1.4c-0.1-0.8-0.5-0.6-0.8-1.2c-0.5-0.9-0.3-0.8-0.4-1.7c-0.1-0.7-0.4-1.2-0.6-1.9
				c-0.3-1.2,0.1-2.4,0.3-3.5c-3.3,0.3,1.1-3.6,0.7-4.7c-0.4-1.1-1.6-1.3-1.8-2.6c-0.2-1.4,0-2.9-0.2-4.3c-0.2-1.5-0.5-3-0.2-4.5
				c0.3-1.3,1-2.2,0.1-3.4c-0.6-0.8-1.7-1-2.2-1.8c-0.8-1.3-0.1-2.6,1.2-3.2c-1.1-0.6-1.9-1.6-1.8-3c0.1-1.2,0.7-1.3,1.4-2.2
				c2.2-2.7-2.4-2.8-1.8-5.7c0.3-1.4,1.6-2.5,2-3.8c0.5-1.4,0.7-3.2,0.8-4.7c0.1-1.2-0.6-1.9-0.6-2.9c-0.1-1.1,0.7-1.5,0.9-2.5
				c0.2-1.1-0.7-2.3-0.5-3.4c0.3-1.1,1.4-1.6,1.7-2.8c0.4-1.4-0.3-2.3-0.3-3.5c0.1-1.9,0.9-0.8,1.8-1.5c0.6-0.5,0.3-1.1,0.4-1.7
				c0.2-0.9,0.4-1.2,1-1.9c0.7-0.9,1.6-1.8,2.1-2.8c0.6-1.3,0.8-2.7,1.4-3.9c0.9-1.7,0.8-2.3-0.1-4c-0.5,1.2-1.6,2-2,3.2
				C21.5,141,24,138.5,25.5,136.6L25.5,136.6z M2,195.4c-0.4-0.4,0.2-0.5,0.4-0.2C2.3,195.3,2.2,195.3,2,195.4L2,195.4z
				 M130.1,112.5c0.1,0,0.1-0.1,0.1-0.1C130.2,112.5,130.2,112.5,130.1,112.5L130.1,112.5z M121,1.6c-0.1,0.1-0.1,0.1-0.1,0.2
				C120.9,1.7,121,1.6,121,1.6L121,1.6z M121.3,1.4c-0.1,0-0.1,0.1-0.2,0.1C121.2,1.4,121.2,1.4,121.3,1.4L121.3,1.4z M122.3,1.2
				c-0.3,0.1-0.6,0.1-0.9,0.2C121.7,1.3,122,1.3,122.3,1.2L122.3,1.2z M101.6,109.8c0.5,0.1,1.1,0.3,1.6,0.7
				C102.7,110.1,102.1,109.9,101.6,109.8L101.6,109.8z M305.1,128.6c0.4-6.6,0.3-13.5,2.7-19.8c0.8-2,1.6-4.9,3.8-5.7
				c3-1.1,7.7,0.3,10.9,0.5c6.5,0.4,13.1-0.3,19.5-1.6c3.4-0.7,6.6-2.2,9.9-3.3c3.3-1.1,6.6-2.3,9.7-4c1.3,3.9,3.7,7.3,6.6,10.2
				c2.5,2.5,6.1,4.7,3.8,8.6c-2.1,3.5-3.1,7.2-4.8,10.8c-1.9,4.1-4.9,7.6-7.7,11.2c-0.3-1.2-0.4-2.3-0.4-3.5
				c-1.9,0.4-4.8,2.8-5.8,0.1c-0.3-1,0.3-3-1.1-3.1c-2.1-0.3-2.2,3.6-2,4.8c0.5,2.7,2.2,4,4.6,5.1c-7.2,3.9-13.4,9.3-20.8,12.9
				c-3.7,1.8-7.9,2.5-12,3.2c-2.6,0.5-5.2,0.3-7.6-0.7C305.5,150.3,304.7,136.9,305.1,128.6L305.1,128.6z M769.2,531.7
				c-2.2-3.2-2.6-7.2-3.2-11c-0.7-4.3-1.7-8.4-3.3-12.4c-1.5-3.6-3.3-7.3-5.2-10.7c-0.5-1-1.2-2.3-2.5-2.4c-1.4-0.1-2.1,1.3-3,2.1
				c-1.3,1.1-3.1,1.4-4.7,1.9c-2,0.7-3.9,1.5-5.8,2.2c-3.8,1.2-7.9,1.4-11.8,2.2c-1.8,0.4-3.7,0.8-5.5,1.2c-1.2,0.3-3.3,1.2-4.6,1
				c-2.6-0.4-4.5-6.6-5.4-8.8c-1.5-3.5-3.7-6.8-5-10.4c-1.4-3.7-2.6-7.4-4.3-11c-1.8-3.8-3.6-7.5-5.3-11.3c-0.6-1.5-1.1-3.1-2-4.4
				c-0.9-1.4-2.2-1.7-2.6-3.5c-0.1-0.6-0.1-1.5-0.5-2c-0.7-0.8-1-0.1-1.7-0.3c-0.7-0.3-0.6,0-0.8-0.7c0-0.1,0.4-0.5,0.3-0.7
				c0-0.3-0.3-0.7-0.3-1c-0.3-1.5,0.1-2.5-0.5-4c-0.8-1.9-1.5-3.9-2.2-5.8c-2.9-7.8-7-14.8-10.5-22.3c-0.4-0.9-1.1-1.6-1.4-2.5
				c-0.3-0.8-0.1-1.8-0.5-2.6c-0.5-0.9-1.2-0.8-1.8-1.5c-0.5-0.5-0.5-1.1-0.7-1.8c-0.8-3.5-2.8-6.4-3.7-9.9c-0.5-2-1.6-3.4-2.6-5.2
				c-1.2-2-1.9-4.3-2.9-6.5c-0.9-2-1.8-4-2.8-6c-0.9-1.8-1.5-2-2.9-0.4c-1.1-1.6-2.3-2.9-3-4.6c-0.6-1.5-1.6-1.6-3.1-2.5
				c0.9,0.6,1.5,1.4,2.5,0.4c0.4,1.7,2.6,0.1,2.2-1.3c-0.4-1.5-2.5-1.8-3.7-2.2c0.6-1.6,1.6-0.2,1.6-2c0-1.5-1.5-3.3-2.2-4.6
				c-1.9-3.5-3.3-7.3-4.9-10.9c-1.6-3.7-3-7.4-4.8-11c-0.7-1.5-1.5-3-2.4-4.4c-0.4-0.6-0.8-1.3-1.4-1.7c-0.4-0.3-1.4-0.3-1.6-0.7
				c-0.4-0.8,0.5-2.3,0.4-3.2c-0.2-1.5-1-3.3-1.7-4.7c-1.7-3.5-3.3-7.2-5-10.7c-1.7-3.4-3.5-6.6-4.9-10.2c-0.7-1.8-1.6-3.4-2.5-5.1
				c-0.7-1.4-1.1-2.9-2.3-3.9c0.1,0.7,0.1,1.5,0.2,2.2c-0.1-0.8,0.2-1.9-0.4-2.7c-0.6-0.9-1.8-0.7-2.5-1.4c0.6,0.6,1.5,0.9,2.3,1
				c-1.7-4.5-3-9.4-6-13.2c-0.4-0.5-0.9-1.3-1.5-1.6c-0.3-0.2-1.5-0.1-1.7-0.3c-1-1.1,0.6-3.1,0.3-4.4c-0.3-1.4-1.7-2.6-2.2-4.1
				c-0.8-2.3-1.3-3.8-2.8-5.6c-0.9-1.2-1.2-2.6-1.7-4c-0.9-2.5-1.9-4.9-2.9-7.3c-1.9-4.5-4.5-8.7-6.6-13.1c-1-2.1-1.5-4.4-2.6-6.4
				c-0.9-1.5-2.3-2.6-3-4.3c-0.9-2-1.3-4.2-2.2-6.2c-0.6-1.4-1.3-2.8-1.9-4.2c-0.8-1.9-2.3-6.4-5.2-4.8c1-3.5,2.2-7,3.1-10.5
				c0.2-0.9,0.3-2.1,0.9-2.9c0.7-0.8,1.1-0.6,1.6-1.6c1.3-2.7,0.6-7.1,0.8-10c0.3-3.6,0.9-7.1,1-10.7c0.1-3.6,0.1-7.1,0.3-10.7
				c0.2-3.3,0.4-6.6,0.1-9.9c-0.3-3.1,2-5,2.6-8c0.7-3.2,0.3-6.6-0.2-9.9c-1.7-11.8-7-24.2-14.4-33.6c-5.6-7.1-16-16.3-25.8-12
				c-1.3,0.6-2,1.2-3.3,0.3c-1.1-0.8-1.1-2-2.7-2.1c-1.5-0.1-3,1.3-4.2,2c-1.7,1-3.4,1.9-5.1,2.8c-3.1,1.7-5.8,3.6-8-0.2
				c-0.6-1-1.1-3.5-2.2-4c-1-0.4-1.4,0.5-2-0.4c-0.1,0.1-0.2,0.2-0.2,0.3c0.5-0.6,0-1.2,0.1-1.8c0-0.2-0.1-0.5-0.1-0.7
				c0.3-0.2,0.5-0.5,0.7-0.7c0.1-1-0.8-2.3-1.2-3.1c-1.4-2.7-2.3-5.5-3.7-8.2c-1.7-3.2-2.9-6.4-4.4-9.6c-1.5-3.4-3.6-6.5-5.2-9.9
				c-3.2-7-6.2-14-9.5-21c-0.7-1.4-4.4-11.7-6.9-10.6c0.6-2.5-1.1-4-2.5-5.9c-0.9-1.1-1.4-2.3-2-3.5c-0.6-1-1.5-1.8-2-2.8
				c-0.5-0.9-0.4-1.8-0.7-2.7c-0.3-1.1-1-1.8-1.7-2.7c-1.6-2.1-2.8-4.5-5-6.1c-1.3,5.3,1.7,10.6,3.7,15.4c2.4,5.8,4.6,11.7,6.9,17.5
				c4.6,11.5,9.7,22.8,15.1,34c2.8,5.8,5.8,11.6,8.4,17.6c1,2.4,2.1,4.7,3.4,7c1.4,2.5,2.1,5.3,3.3,7.9c0.9,1.9,2.5,3.8,1.9,5.9
				c-0.6,2.1-3.5,4.7-5.1,6.2c-3.6,3.4-8.4,4.4-9.7,9.6c-1.3,4.9-0.6,11.8,3.6,15.3c4.4,3.6,12.3,1.6,17.2,0.9
				c-3,4.5-6.1,9-9.1,13.5c-2.7,4.2-5.1,8.6-4.5,13.8c1.7,12.6,18,1.7,23.8-1.1c-1.5,5.1-2.6,12.2,0.9,16.8c2.5,3.4,7.7,3,11.3,2.1
				c2.7-0.7,3.5-0.5,5.1,2c1.4,2.1,3,3.8,4.7,5.6c4.1,4.4,6.6,9.1,9.2,14.4c1.5,2.9,2.3,4.9,0.8,8.1c-1.4,2.8-3,5.7-4.6,8.4
				c-3.1,5.2-7.2,9.6-10.8,14.5c-7.2,9.8-13.4,20.2-21.7,29.3c-8.1,8.9-18.6,15.6-28.5,22.5c-5.2,3.6-10.1,7.4-15.9,9.9
				c-2.9,1.3-6,2.3-9,3.3c-1.5,0.5-2.9,0.9-4.4,1.3c-0.8,0.3-2.1,1-3,0.6c-0.6-0.3-1.3-2.3-1.5-2.8c-0.7-1.2-1.3-2.5-2.1-3.7
				c-1.6-2.5-3.5-4.8-5.1-7.2c-3.6-5.5-6.9-11.2-10.9-16.4c-3.7-4.9-8-9.5-12.3-13.9c-4.2-4.2-8.8-8.1-14.4-10.3
				c-5.6-2.2-11.5-2.6-17.5-2.1c-5.6,0.4-10.8,2.2-16.1,3.6c-1.9,0.5-4.5,1.3-6.2,0.1c-0.9-0.6-1.3-1.6-1.9-2.4
				c-0.6-0.8-1.8-1.5-2.2-2.4c-0.7-1.5,0.6-3.5,0.9-5.1c0.5-3.1,0-6.5-0.7-9.5c-2.9-13-7-25.5-9-38.7c-0.5-3.1-1-6.2-1.1-9.3
				c-0.1-1.9,0.9-3.8,0.8-5.7c-0.1-1.8-2-2.4-3.6-1.4c-1.7,1.1-1.7,3.6-1.8,5.3c-0.8,13.5,2.3,26.4,5.6,39.4
				c0.8,3.2,1.5,6.3,2.4,9.5c0.7,2.7,1.5,5.5,0.4,8.2c-1,2.5-2.6,4.7-3.7,7.1c-1.2,2.5-2.2,5.7-4,7.8c-1.7,2-3.4,2.5-2.6,5.5
				c0.2,0.7,0.7,1.3,0.4,2c-0.3,1-2.5,2-3.3,2.5c-5.5,3.5-11.4,6.5-17,9.8c-2.4,1.5-4.8,3.5-7.5,4.6c-2.5,1-4.7,2-6.9,3.6
				c-5.2,3.6-10.6,6.8-16,10.1c-5.5,3.5-11,7-16.4,10.5c-5.1,3.3-9.9,7.3-15.2,10.3c-5.3,3-10.7,5.9-16.1,8.8
				c-1.2,0.7-2.3,1.4-3.7,1.4c-1.1,0-1.9-0.4-3,0c-2.6,1-5,3.8-7.1,5.5c-5,4-10.5,7.4-16,10.9c-2.6,1.7-5.2,3.5-7.6,5.4
				c-2.1,1.6-4,3.6-6.4,4.9c-2.4,1.4-4.5,2.5-6.7,4.4c-2.2,2-4.5,3.9-6.8,5.8c-2.5,1.9-4.9,3.8-7.3,5.9c-2.1,1.9-3.9,4.2-6.1,6
				c-2.1,1.9-4.5,3.4-6.4,5.6c-2,2.3-3.6,5.1-5.2,7.7c0-0.3-1.3-1.2-1.4-1.4c-0.7-1-0.5-2.1-1-3.2c-1.8,1.8-0.4,6.3-0.2,8.5
				c-0.3-4.7-0.1-9.4-0.7-14.1c-0.6-4.6-1.5-9.2-1.6-13.8c-0.1-4.7,0.2-9.4,0.4-14.2c0.1-2,0.2-4,0.6-6c0.2-0.8,0.6-1.7,0.6-2.5
				c0.1-1.1-0.3-1.2-0.7-2.2c-0.7-1.6-0.1-1.7,0.7-3c0.9-1.5,0-2-0.4-3.4c-0.6-1.9,1.1-2.3,1.1-4c0-0.7-0.7-1.4-0.6-2
				c0-1.4,0.6-0.6,1.1-1.5c0.5-0.8-0.8-1.5-1.1-2.4c-0.3-0.8-0.3-1.5,0.1-2.3c0.1-0.2,0.4-0.4,0.5-0.6c0.2-0.4,0.1-0.5,0.2-0.8
				c0.7-2.6,1.8-5.2,2.7-7.8c0.8-2.4,0.2-4.9,0.2-7.4c0-2.1,1.1-3.8,1.5-5.8c0.5-2.2-0.9-3.1-1.8-5c-1-2.1-0.9-4.9,0.1-7
				c0.3,1.1,0.7,2.2,1,3.3c0.2-0.9,0.7-1.8,0.6-2.7c-0.1-1.1-0.7-1.2-1-2c-0.6-1.4,0.1-0.8,0.6-2.1c0.3-0.7-0.1-1.5,0-2.2
				c0.1-0.9,0.4-1.6,0.6-2.4c0.3-1.4,0-2.4,1-3.5c0.8-1,2.1-1.7,3.1-2.5c1.9-1.5,3.7-3.2,5.5-4.9c2.5-2.3,6-4.1,5.8-7.8
				c-3.8,1.4-6.6,4.7-9.7,7.2c-3.4,2.9-7.3,5.1-10.7,7.9c-7.3,6-15.3,11.3-23.4,16.1c-4.1,2.4-8.2,4.7-12.3,7
				c-3.7,2.1-7.2,4.6-11.3,6.1c-3.7,1.3-8.3,3-12.1,1.5c-1.5-0.6-3-1.7-3.6-3.2c-0.5-1.3,0-3.4-1.3-4.3c-0.5-0.4-1.5,0-1.7-0.8
				c-0.1-0.6,1-1.3,1.1-1.9c0.2-1.5-1.6-4.2-2.2-5.6c-0.3-0.8-0.6-1.9-1.3-2.5c-0.3-0.2-0.8-0.2-0.9-0.5c-0.2-0.3,0-0.5-0.2-0.8
				c-0.4-0.8-0.3-1.4-1-2.1c-0.8-0.8-1.8-1.4-2.7-2c0,0,0.8,0.4,0.8,0.5c-0.1-1.3-0.8-2.4-1-3.7c-0.2-1.3,0.2-2.5-0.4-3.7
				c-0.7-1.3-2-2.1-2.7-3.4c-0.7-1.3-1-2.8-1.6-4.1c-1.1-2.5-3-4.1-3.5-6.9c-0.1-0.6-0.1-1.2-0.4-1.7c-0.3-0.5-1-0.4-1.3-0.9
				c-0.4-0.8,0.1-1.5-0.6-2.3c-1.4-1.6-3.8-1.1-2.6-3.8c1.2-2.8,0.4-2.9-1.3-5c-1.7-2.1-2.2-5.4-3-7.9c-0.3-1-0.5-2.1-1.2-2.8
				c-1.2-1.2-1.6-0.4-1-2.3c-2.3,0.1-2.4-4.1-2.7-5.7c-0.2-1.1-0.4-2.5-1.2-3.3c-0.5-0.6-1.7-0.5-1.7-0.5c-0.5-0.4-1.4-2.2-1.5-2.7
				c-0.1-0.6,0.5-1,0.4-1.7c-0.1-0.7-0.8-1.4-1.3-1.9c-1.8-1.9-4.7-5.9-3.6-8.7c4.6,4.8,9,9.7,13.6,14.5c3.7,3.8,7.7,7.2,12.8,8.7
				c5.8,1.8,12.1,2.1,18.1,1.9c3.2-0.1,6.3-0.8,9.4-0.6c3.3,0.2,6.4,0,9.6-0.7c1.4-0.3,2.8-0.9,4.2-1c1.1-0.1,2.1,0.1,3.2-0.1
				c2.8-0.5,5.2-2.2,7.7-3.5c5.3-2.7,10.3-5.8,14.9-9.8c8.7-7.6,14.3-17.8,19.8-27.8c6.1-11.3,11.5-22.8,18.3-33.7
				c3.3-5.4,6.6-10.9,10.5-15.9c3.6-4.6,8-8.4,12.7-11.8c4.5-3.2,9-7,14.6-8.1c3-0.6,6.1-0.8,9.1-1.3c3.2-0.5,6.3-0.9,9.5,0
				c2.8,0.8,5.6,1.8,8.5,2.6c3.1,0.9,6.3,1.3,9.2,2.8c2.6,1.3,4.9,3.1,7.4,4.6c2.3,1.3,5.6,1.9,6.8,4.4c1.2,2.5,1,5.6,2,8.3
				c1.1,3,2.7,5.9,4.5,8.5c3.1,4.4,7.1,8.3,12.6,9c6.7,0.8,13.3-1.7,19.4-4.2c6.3-2.5,11.3-7.2,17.4-10.1c0,2.2,0.3,4.4,0,6.6
				c-0.3,2.4-0.9,4.8-1.5,7.2c-1.1,4.7-2.2,9.3-4.1,13.7c-1.8,4.3-4.4,8-7.1,11.8c-2.6,3.6-5,7.5-8,10.7c-5.5,5.7-13.3,9.1-21,10.3
				c-8,1.2-17,0.9-23.2-4.7c-6-5.4-10.8-12.4-12.1-20.5c-1.6-9.4-1.3-19.1-0.6-28.5c0.3-4.8,0.7-9.6,1.5-14.4
				c0.7-4.1,2.6-8.5,1.1-12.6c-0.3-0.9-0.5-1.9-1.4-1.9c-1.6-0.1-3,2.4-3.7,3.5c-2.2,3.8-2.8,8-3.6,12.2
				c-1.9,10.2-2.3,20.8-1.7,31.2c0.3,5.1,0.5,10.3,1.9,15.3c1.4,4.9,3.5,9.8,6,14.3c-1-0.2-1.5,0.4-1.2,1.3c0.4-0.4,0.8-0.9,1.3-1.3
				c4.9,6.3,10.6,13.8,18.4,16.4c4.6,1.5,9,2.8,13.9,2.6c4.8-0.1,9.3-1.5,13.7-3.3c4-1.6,8.2-3,11.5-5.9c3.4-2.9,6.2-6.8,8.9-10.3
				c5.9-7.7,10.8-16.1,13.7-25.4c1.4-4.6,2-9.2,2.8-13.9c0.4-2.3,0.7-4.7,0.8-7c0-1.9-0.5-3.8-0.5-5.7c0-3.6,3.5-4.9,6.7-5.4
				c4.1-0.6,6.1,3,8.2,5.9c2.8,3.8,5.5,7.7,8,11.7c1.1,1.8,1.8,4.1,2.9,5.8c0.8,1.1,2.2,1.7,3.2,2.9c2.9,3.6,6,7.5,8.3,11.5
				c2.3,3.8,5.6,7.3,8.5,10.7c3.2,3.7,6.7,7.2,9.9,10.9c2.5,2.9,5.9,4.6,8.4,7.5c2.6,2.9,6.8,4.7,10,7c1.8,1.3,3.6,2.8,5.3,4.2
				c1.7,1.5,3.1,3.3,4.9,4.7c6.5,4.9,13.1,9.4,21.6,9.7c1.9,0.1,3.4-0.6,5.2-0.7c1.9-0.1,3.7,0.8,5.7,0.7c4.5-0.4,9.2-1.4,13.6-2.7
				c8.7-2.6,18-5.8,25.4-11.2c3.7-2.7,6.8-6.1,9.9-9.5c1.7-1.8,5.5-6,2.7-8.6c-2.4-2.2-6.7,3.9-8.2,5.3c-3.3,3.1-7.2,5.2-11.4,6.9
				c-4.2,1.7-8.5,3-12.8,4.5c-4.5,1.6-8.8,3.4-13.5,3.9c-2.4,0.3-4.9,0.4-7.3,0.7c-2.5,0.3-5,0.9-7.5,0.6c-4.5-0.7-9.4-1.2-13.5-3.5
				c-7.9-4.4-13.9-12-21.1-17.4c-3.6-2.7-7.5-5-10.9-8c-3.5-3.1-6.5-6.8-9.6-10.3c-6.7-7.8-13.3-15.8-19.8-23.8
				c-2.9-3.6-6.1-7-8.7-10.8c-1-1.5-1.8-3.2-1.5-5.1c0.3-2.2,1.8-4.1,2.1-6.4c0.5-4.3-1.7-8.6-3.5-12.4c-0.7-1.5-1.7-3.2-0.5-4.6
				c1.2-1.5,3.1-2.6,4.4-4.1c3.1-3.4,6.2-6.9,9.1-10.6c1.3-1.6,2.7-3.2,3.7-5c1.3-2.2,1.8-4.7,2.5-7.1c2.8-9.4,3.9-19.1,2.8-28.9
				c-1-8.9-1.7-19-5.7-27.2c-3.8-7.8-10-14-16.6-19.6c-3.8-3.2-7.7-6.3-11.5-9.5c-3.7-3.1-7.8-5-11.9-7.5c-8.1-4.9-17-5.7-26.2-4.9
				c-4.8,0.4-9.7,0.2-14.3,1.7c-4.4,1.4-8.5,3.8-12.4,6.3c-7.8,5-15.5,10.2-23.4,15.1c-16,9.9-36,18.1-54.9,13.3
				c-9.4-2.4-18.6-6.1-27.2-10.6c-8.5-4.6-16.5-9.8-25.6-13.3c-4.7-1.8-9.4-3.4-14-5.3c-2-0.8-4-2-6.2-2.3c-0.8-0.1-1.9,0.2-2.6-0.2
				c-0.6-0.3-0.4-0.7-0.9-1.1c-1.1-0.7-2.9-0.6-4.3-1.1c-1.2-0.5-3.4-2.1-4.8-1.9c-0.7,0.1-1,0.8-1.8,0.8c-0.7,0-1.4-0.8-2-1.2
				c-2-1.1-4.5-1.3-6.7-1.6c-4.3-0.6-8-1.2-12.1,0.3c-3.9,1.4-7.9,2.6-11.8,3.9c-2.1,0.7-3.3,1.3-5,2.5c-1,0.7-2.3,0.9-3.5,1.3
				c-3.5,1.4-7.2,4.6-8.8,8c-0.8,1.7-1.9,1.3-2.9,2.6c-1.1,1.3-0.6,3.2-1.9,4.5c-1.1,1.1-1.4,2.2-2.6,3.4c-1.4,1.5-2.2,3.5-3.1,5.3
				c-4,8.9-6.8,18.6-8.1,28.4c-0.6,4.8-0.7,9.6-0.3,14.4c0.4,4.5,0.2,9.4,1.7,13.8c0.2-0.3,0.3-0.7,0.4-1c0.3,0.4,1,0.9,1,1.5
				c0,0.8-0.5,1.3-1.2,0.5c1.1,3.9,2.6,7.4,4.6,10.9c0.8,1.5,1.5,1.9,2.8,2.4c1.4,0.5,1,0.8,1.9,2.1c0.7,1.1,1.2,1.2,2.4,0.7
				c0.5-0.2,0.6-0.7,1.2-0.6c0.5,0.1,1.1,1.2,1.4,1.5c0.6,0.6,1.1,1.1,1.9,1.3c1,0.2,1.5-0.5,2.2-0.4c1.5,0.2,2.2,1.6,3.8,1.8
				c1.6,0.2,2.4,0.3,3.9,0.9c2.1,0.9,4.5,1.1,6.8,1.1c1.9,0,3.9-0.1,5.7-0.7c1-0.3,1.7-0.8,2.7-0.9c0.9-0.1,1.7,0.1,2.6-0.1
				c1.8-0.4,3.4-1.2,5.3-1.5c1.7-0.3,3.4-0.8,5-1.4c1-0.3,2.4-1,3,0.2c0.7,1.5-1.2,4-1.7,5.2c0.3,0,0.7,0,1-0.1
				c-1.4,0.5-1.3,0.5-2,2c-0.7,1.5-1.6,2.8-2.2,4.3c-1.3,3.5-1.7,7.4-2.4,11.1c-1.7,7.9-3.4,15.5-3,23.6c0.4,7.1,1,14.6,6.1,20
				c1,1.1,2.2,2.2,3,3.6c0.7,1.4,1,2.8,2,4.1c1.9,2.4,5,4.4,8,5.1c3.4,0.8,7.1,1.6,10.6,1.1c3.4-0.5,6.8-0.9,10.2-1.6
				c7.3-1.4,12.9-7,17.6-12.4c2.5-2.8,5-5.6,7.3-8.5c0.6-0.8,1.4-2.4,2.4-2.8c1.3-0.5,2.3,0.6,3.5,1c1.8,0.7,4,1,5.9,1.4
				c1.4,0.3,2.6,0,2.5,1.7c-0.1,1.5-2,3.9-2.6,5.3c-0.9,1.8-1.8,3.7-2.7,5.5c-3.6,7.2-7.3,14.3-11.4,21.2
				c-3.8,6.5-8.1,12.7-14.1,17.5c-5.7,4.6-12.5,8.4-19.2,11.3c-3.7,1.6-7.7,2.1-11.7,2.5c-1.8,0.2-3.5,0.3-5.3,0.5
				c-0.8,0.1-1.5,0.3-2.3,0.3c-0.8,0-1.6-0.5-2.3-0.4c-1.1,0-1.9,0.8-3.1,0.8c-1.8,0-3.5-0.2-5.3-0.3c-4-0.2-8-0.2-12-1
				c-7.6-1.4-12.6-5.9-18.1-11.1c-2.3-2.2-4.9-4.4-7-6.8c-0.6-0.7-1-1-0.7-1.9c0.1-0.4,0.8-0.8,1-1.1c0.7-0.9,1.6-2.2,1.9-3.4
				c0.6-1.9-0.9-6.1-3.6-5.3c-1.8,0.6-2,3.4-3.8,4.1c-1.6,0.6-1.9-0.6-2.2-1.8c-0.4-1.6-0.5-2.8-1.7-4c-1.1-1.2-2.5-1.6-2.6-3.5
				c0-0.7,0.3-1.3,0.3-2c-0.1-0.7-0.9-1.6-0.8-2.3c0.2-1.4,3.1-2.2,4.2-2.9c1.6-1,2.9-2.3,4.1-3.7c2.9-3.2,5.2-7.1,7.1-10.9
				c3.3-6.5,6.1-13.9,5.3-21.3c-0.3-2.8-1.1-5.7-2.9-7.9c-2.9-3.4-6.8-2.7-10.8-2.7c3.2-6,7.7-14.9,3.2-21.4
				c-3.6-5.3-10.8-2.4-15.7-1.1c1-4.9,2.4-9.9,1.4-14.9c-0.6-3.2-2.1-7.3-5.4-8.6c-3.7-1.6-8.3,0.7-11.4,2.8
				c-3.7,2.4-6.9,5.9-9.5,9.4c-1.3,1.7-4.1,7-6.2,3.3c-0.7-1.2-0.8-2.7-1.3-4c-0.9-2.4-2.1-4.1-3.5-6.1c-1-1.3-0.7-2.7-1.5-4.1
				c-0.5-0.9-1.2-1.5-1.7-2.4c-0.6-1.1-0.8-2.3-1.1-3.5c-0.6-2.1-1.9-3.7-3-5.5c-1.2-2.2-1.1-4.6-2-6.9c-2-5.4-5-10.6-7.4-15.8
				c-2-4.4-4.1-8.8-8.2-11.6c-1.1,3.2-0.9,5.1,0.2,8.2c1,3.1,2.1,6.3,3.2,9.3c2.2,5.9,4.9,11.5,7.5,17.2c2.6,5.8,4.8,11.7,7.3,17.5
				c1.2,2.8,2.5,5.6,3.8,8.4c0.9,2,3.3,5.4,2,7.6c-0.5,0.9-1.5,1.5-2.2,2.3c-0.9,1.1-1.7,2.3-2.5,3.5c-1.6,2.4-3.4,4.6-5.1,7
				c-3.5,4.9-6.7,10.2-10,15.3C2.1,157-1.2,169.8,0.4,182c0.8,6.4,0.7,12.8,1.6,19.2c0.9,6.3,2.3,12.6,4.1,18.7
				c1.6,5.6,5,10.9,4.7,16.8c-0.3,4.7-0.4,9.5,0.5,14.2c0.4,1.9,0.9,3.8,1.8,5.6c0.5,0.9,1,1.7,1.7,2.5c0.7,0.8,2,1.4,2.6,2.2
				c0.4,0.5,0.3,1.4,0.5,2c0.3,1,0.7,1.8,1.2,2.7c1.5,2.6,3.2,5.4,5.2,7.7c3.7,4.1,7.4,8.5,11.5,12.3c4.2,3.9,8.3,8.1,12.7,11.7
				c1.2,1,2.5,1.9,3.9,2.6c0.6,0.3,1.3,0.8,1.9,0.9c0.4,0.1,1-0.1,1.4,0c1,0.3,0.1,0.1,1,1c0.8,0.8,1.6,0.9,2.7,1.4
				c5.7,2.9,10.8,6.5,16.9,8.6c6.7,2.3,13.4,4.8,20.4,5.9c3.1,0.5,10.4-1.2,11.1,3.2c2.1-2.1,4.6-0.4,6.9,0.2c0-0.6-0.4-2.2,0-2.7
				c0.6-0.6,3.1,0,3.6,0.4c1.2,0.9,1.6,2.8,2.1,4.1c0.9,2.2,1.9,4.3,2.9,6.4c3.8,8.4,7.6,16.8,11.4,25.2c7.7,16.8,15,33.7,22.3,50.6
				c1.7,3.9,3.3,7.9,4.9,11.9c1.5,3.6,3.6,6.9,5.3,10.4c1.9,3.9,3.2,8.1,5,12c1.9,4.1,3.7,8.1,5.5,12.2
				c7.5,16.6,14.7,33.3,21.9,50.1c8.2,19,16.6,37.9,25,56.8c-9,2-18,4.3-27.1,5.6c-4.3,0.6-8.6,0.5-12.9,1.3
				c-2.2,0.4-4.2,0.9-6.4,0.9c-2.2-0.1-4.4,0-6.6,0c-8.8,0.3-18,0.2-26.7-1.1c-3.5-0.5-7.4-1.6-10.8,0.2c-2.9,1.6-3.8,4.6-4.3,7.7
				c-5.8-1.4-10.8-5-16.5-6.7c-5.4-1.6-11.6-2.1-17-0.2c-5.5,1.9-11.4,4.7-16.1,8.1c-4.8,3.6-8.2,8.6-11.1,13.7
				c-3.3,5.7-6.2,11.6-9.4,17.3c-3.3,5.9-6.7,11.7-9.5,17.9c-5.7,12.3-10.1,25.4-13.1,38.7c-1.1,5-1.8,10.4,1.6,14.8
				c3.5,4.5,9.1,4.5,14.1,2.9c2.8-0.9,5.2-2.3,7.8-3.7c2.4-1.3,4.9-2.4,7-4.2c4.6-3.9,9.7-7.3,14.4-11.1
				c8.8-7.3,18.6-12.8,25.8-21.8c3.6-4.6,8.3-8.9,10.9-14.2c0.8-1.7,1.3-5.1-1.5-5.2c-1.8,0-3.4,2.2-4.5,3.3
				c-5,5.4-10.5,10.3-16.4,14.8c-2.8,2.1-5.8,3.9-8.7,5.7c-2.9,1.9-5.5,4.1-8.3,6.1c-2.7,2-5.7,3.6-8.3,5.8c-2.7,2.2-5.4,4.2-8.3,6
				c-5.8,3.7-11.8,7.5-18.5,9.6c0-4.6,2.5-8.3,4-12.5c1.5-4.3,2.8-8.5,4.7-12.8c2-4.5,4-9.1,6.2-13.6c2-4.2,4.6-8.1,6.6-12.4
				c1.8-3.8,4.5-7,6.1-10.9c0.8-2,2.2-3.7,3.3-5.6c1.2-2.1,2.2-4.2,3.4-6.3c4.6-8,11-13.4,19.3-17.5c4.5-2.3,9.4-3.6,14.4-3.7
				c5.7-0.2,11.4,1.5,17.1,1.5c-0.2,3.6,0.3,7.8-0.9,11.3c-0.4,1.2-1.1,1.9-0.9,3.1c0.1,0.5,0.7,1,0.9,1.7c0.2,0.9-0.1,2-0.2,2.9
				c-0.4,8-0.2,15.9,0.2,23.9c0.1,2.6,0.1,6.1,2.8,7.6c1.1,0.6,1.3,0.3,2.4-0.1c1.6-0.6,2.5-0.2,4,0.5c1,0.4,1.9,0.9,2.9,1.3
				c0.5,0.2,1.5,0.4,1.7,1c0.1,0.3-0.1,1,0,1.1c0.6,0.9,0.3,0.5,1.6,0.4c1.8-0.2,2.8,0.5,4.3,1.4c13.3,7.8,29,8.6,44,10.3
				c7.9,0.9,15.6,2.3,23.6,2.4c7.9,0.1,15.9,0.2,23.8-0.5c3.5-0.3,7-0.9,10.4-1.4c1.2-0.2,5.8-2,4.4,1c-0.6,1.3-2.4,2.1-3.4,3
				c-1.1,1-1.9,2.4-3.2,3.3c-1.6,1.2-3.3,2-4.8,3.4c-5.4,4.8-10.3,9.9-16,14.3c-2.3,1.8-5,3.7-6.5,6.3c-1.5,2.6-1.5,6-1.2,8.8
				c0.3,3.2,1.7,6,3,9c1.6,3.7,2.7,7.5,4,11.3c1.3,3.6,2.6,7.1,4,10.6c0.9,2.2,1.8,5.3,3.6,7.1c0.8,0.8,1.9,1.5,3.1,1
				c1.1-0.5,1.2-1.8,2-2.6c1.2-1.1,1.9-0.3,3.3,0c2,0.4,2.7-0.5,4.4-1.1c1.2-0.4,2.5,0.1,3.7-0.5c1.1-0.5,1.9-1.6,2.9-2.2
				c2.9-1.6,7.4-1.5,10.6-2c15.9-2.8,31.4-7.5,47-11.3c7.8-1.9,15.7-3.6,23.5-5.6c3.6-1,7.3-2,10.9-3.1c1.9-0.6,3.9-1.1,5.8-1.9
				c1.7-0.7,3.2-1.7,5.1-1.9c3.6-0.5,6.7-1.9,10.3-2.8c3.8-0.9,7.4-2.6,11.1-3.7c3.8-1.1,7.7-1.9,11.5-3c3.9-1.1,7.7-2.6,11.5-3.7
				c7.5-2.2,15.3-3.3,22.7-6.2c1.5-0.6,3-1.4,4.6-1.7c2-0.4,3.9-0.4,5.8-0.9c3.9-1.1,7.7-2.6,11.6-3.6c7.5-1.9,15-3.7,22.4-5.6
				c7.1-1.9,14.3-2.7,21.5-4.2c7.8-1.7,15.6-3.4,23.3-5.2c3.5-0.8,7-1.8,10.6-2.3c3.8-0.5,7.2-2.2,10.9-2.7
				c15-2.1,29.8-4.5,44.5-7.9c7.7-1.8,15.4-3.6,23.2-5.2c3.5-0.8,7.4-1.2,10.7-2.5c3.5-1.4,7-1.7,10.6-2.8c7.5-2.2,15.4-3.2,23-5.1
				c7.5-1.8,15.2-3.1,22.6-5.2c1.4-0.4,3.7-1.8,5.1-1.3c1.1,0.3,1.3,1.6,2.2,2.2c2.4,1.6,4.9-1.5,6.4-3c2.2-2.2,4.4-3,6.9-4.5
				c3.1-1.9,6.1-5.1,8.5-7.8c10-11.2,23.7-17.7,34.5-28.1c5.6-5.3,10.6-11,15.5-16.9c2.3-2.7,4.8-5.3,7.3-7.8
				c1.4-1.4,2.8-2.7,4.2-4.1c0.9-0.9,2.3-3.1,3.5-3.4c1.1-0.3,2.4,0.8,3.7,0.5c1.1-0.2,2-1.1,2.6-2
				C770.2,537.7,770.8,534.1,769.2,531.7L769.2,531.7z"/>
			<path id="react-path-242" class="st1" d="M656,377.6C655.9,377.6,656.1,377.7,656,377.6C656.1,377.6,656,377.6,656,377.6"/>
			<path id="react-path-243" class="st1" d="M480.6,534.3C480.5,534.3,480.5,534.4,480.6,534.3C480.5,534.4,480.6,534.3,480.6,534.3
				"/>
			<path id="react-path-244" class="st1" d="M421.6,213c0.8-0.1,1.7-0.2,2.5-0.3C422.9,211.7,422.6,212.2,421.6,213"/>
			<path id="react-path-245" class="st1" d="M160.7,393.5c-0.4,0.1-0.7,0.1-1.1,0.2C160.2,394.6,160.2,394.2,160.7,393.5"/>
			<path id="react-path-246" class="st1" d="M324.1,338.7c-1,0.8-1.8,1.8-2.5,2.8c1.2-0.2,2.4-0.5,3.6-0.7
				c-5.5,9.9-9.1,20.7-12.5,31.5c-5.2-4.9-10.2-10-15.1-15.1c-1.6-1.7-4.4-3.6-5.4-5.7c-0.4-1-0.3-1.6-1.1-2.3
				c-1-0.9-2.9-1.3-4.1-1.8C299,343,311.7,341.3,324.1,338.7 M280.5,349.1c1.4-0.4,3.2-1.7,4.7-1.5c1.7,0.2,1.9,2.2,2.9,3.4
				c3.1,4.2,7.4,7.9,11,11.6c3.7,3.7,7.3,7.7,11.2,11.2c1,0.9,2.8,3.1,4.1,2.1c1.5-1.1,2.2-5.2,2.9-6.9c1.8-5,3.4-10.1,5.5-15
				c2.2-4.9,4.6-9.8,7-14.7c0.6-1.3,1.9-3.1,0.9-4.5c-1.2-1.7-3.8-0.5-5.4,0c-5.2,1.5-10.7,2.4-16,3.4c-5.9,1.1-11.6,2.8-17.2,4.5
				c-2.7,0.9-5.4,1.7-8.1,2.6c-2.2,0.8-4.9,1.5-6.3,3.5C278.6,349.3,279.4,349.4,280.5,349.1"/>
			<path id="react-path-247" class="st1" d="M353.3,327.5c7.4-2.4,15.1-4.4,22.9-5.3c3.9-0.4,7.9-0.4,11.8-0.4c2.8,0,6.9-0.2,4.5-4
				c-1.7-2.7-5.3-4.6-7.7-6.7c-2.5-2.2-4.2-5-5.8-7.9c-1.9-3.3-3.9-6.6-5.7-10c-1.4-2.5-2.4-6.1-5.2-7.5c2.1,7,6.2,13.2,9.9,19.4
				c1.7,2.8,3.4,5.9,5.9,8.1c2,1.7,5.3,2.8,6.2,5.6c-7.3,0-14.7,0.1-21.9,1.2c-6.1,0.9-12.5,4.7-18.7,4.2c3.7-8.4,8-16.5,12-24.8
				c1.5-3,3-6.2,3.8-9.5c0.7-3.1-1-1.8-2,0.2c-3.6,7.1-7.3,14.2-11,21.3c-1,1.9-2,3.9-2.9,5.9c-0.8,1.9-2.1,4-2.2,6.2
				C347,327.1,350.3,328.5,353.3,327.5"/>
			<path id="react-path-248" class="st1" d="M239.3,410.3c7.1-1.9,14-4.7,21.2-6.2c6.6-1.3,14.1-0.7,20.3-3.4
				c-2.1-3.9-6.4-4.8-9.5-7.8c-3.4-3.2-6.3-7.2-9.3-10.9c-3.1-3.8-5.5-8-8.4-11.9c-1.6-2.2-4.6-6.7-7.7-6.5
				c-1.6,0.1-2.7,1.8-1.5,3.2c0.9,1,2.8,0.8,4,1.4c3.5,1.8,5.3,6.6,7.5,9.7c2.9,4,6.1,7.8,9.2,11.6c3.5,4.2,7.3,7.2,11.7,10.3
				c-13.6,0.2-26.7,4-39.5,8.2c2.2-6.6,3.3-13.5,4.3-20.4c0.5-3.4,0.9-6.8,1.3-10.3c0.3-3,0.9-6.5,0.2-9.5c-2,3.4-2,7.7-2.4,11.5
				c-0.5,4.6-1,9.3-1.8,13.8c-0.8,4.3-2.2,8.5-3,12.9C235.3,408.5,235.9,411.2,239.3,410.3"/>
			<path id="react-path-249" class="st1" d="M475.4,433.5c1.1,6,0.9,12.1,2.2,18.1c0.6,2.9,1.3,5.8,2,8.7c0.5,2.1,1.6,5.2,0.7,7.3
				c-1.4,3.7-8.1-3.8-9.6-5c-5-3.9-9.9-7.9-14.8-11.8C462.3,445.1,468.8,439.3,475.4,433.5 M453.2,452.4
				c6.6,5.8,14.2,10.4,20.5,16.4c2,1.9,5.7,6.4,8.2,3.1c2.3-3.1,0.7-8.6,0-11.9c-1-4.4-1.7-8.8-2.2-13.3c-0.2-2.3-0.4-4.6-0.6-6.9
				c-0.2-2.2-0.7-4.5-0.7-6.8c0-0.7,0-1.5,0.4-2.1c0.4-0.6,1.2-0.7,1.5-1.2c0.9-1.5-0.7-1.7-1.9-1.7c-1.7,0-2.1,0.3-3.1,1.5
				c-1.2,1.5-2.5,2.5-4,3.7c-4,3.1-8,6.1-11.8,9.4C457.4,444.5,449.8,449.4,453.2,452.4"/>
			<path id="react-path-250" class="st1" d="M445.6,359.1c0.1,8.3,1.6,16.6,4.6,24.4c-8.8-1.8-16.6-6.3-24.2-10.8
				C432.5,368.1,439.1,363.6,445.6,359.1 M425.2,376.2c4,2.3,7.9,4.9,12.1,6.8c3.6,1.6,7.6,2.2,11.3,3.5c2.1,0.8,6.5,2.9,5.3-1.3
				c-0.4-1.5-1.4-3-2-4.4c-0.9-2.2-1.7-4.4-2.2-6.7c-1-4.6-1.4-9.3-1.5-14c-0.1-3.6,2.6-5.8,6.1-6.7c1.1-0.3,3.7-1.3,1.3-2.5
				c-1.3-0.7-3.3,0.5-4.4,1c-3.9,1.9-7.3,4.5-10.9,6.9c-4.5,3-9.1,5.8-13.6,8.8c-1.4,0.9-3.3,1.9-3.8,3.7
				C422.2,373.4,423.6,375.3,425.2,376.2"/>
			<path id="react-path-251" class="st1" d="M271,438.8c-6.4-2.2-13-3.3-19.6-4.5c4.6-6,9.8-11.6,15.5-16.6
				c4.5,7.9,8.9,15.9,11.6,24.6C275.9,441.2,273.6,439.7,271,438.8 M278.9,438.1c-1.6-3.8-3-7.7-4.9-11.4c-0.8-1.6-1.6-3.1-2.5-4.6
				c-0.6-0.9-1.6-2-1.7-3c-0.2-1.2,0.4-1.3,0.1-2.5c-0.4-1.3-1.1-2.4-2.6-2.1c-2.8,0.5-6.2,4.2-8.1,6.1c-3,2.8-5.9,5.8-8.5,8.9
				c-2.6,3-2.9,6.3,1,8.3c3.2,1.7,7.3,1.7,10.8,2.2c4,0.6,8,1.3,11.6,3.3c1.5,0.8,5.1,4.4,6.1,1.4
				C280.9,442.6,279.6,439.8,278.9,438.1"/>
			<path id="react-path-252" class="st1" d="M319.3,387.1c-4,8.4-7.8,16.8-11.2,25.5c-1.5,3.9-3.1,7.8-4.4,11.9
				c-0.4,1.1-1.6,7.4,1.3,5c0.9-0.8,2.1-2.6,2.5-3.6c0.7-1.7,0.1-3.3,0.7-5c1.5-4.1,3.2-8.1,4.7-12.2c1.6-4.1,3.1-8.2,4.7-12.3
				c1.3-3.4,4.3-7.4,3.3-11.2C320.4,385.7,319.6,386.3,319.3,387.1"/>
			<path id="react-path-253" class="st1" d="M475.3,633.7c-0.1,0-0.2-0.1-0.3-0.1C475.1,633.7,475.2,633.7,475.3,633.7 M598.5,581.2
				c-21.3,1.1-42.2,6.6-62.9,11.5c-20.8,5-41.5,10.9-61.9,17.7c-10.1,3.4-20.1,7-30.2,10.4c-8.5,2.9-18,5.8-25.4,11
				c-2.1,1.5-5.6,4.8-2.4,7.1c2,1.4,5.9,1.8,8.3,1.9c2.3,0.1,4.6-0.5,6.9-0.5c2.8,0,5.6,0.2,8.5,0c5.3-0.4,10.5-1.4,15.7-2.5
				c5.6-1.2,11-2.7,16.7-3.3c2.1-0.2,3.7-0.8,5.7-1.5c2.2-0.7,4.7-0.6,6.9-1.4c0.9-0.3,1.5-1.1,2.4-1.4c1.1-0.4,2.3,0,3.5-0.1
				c2.7-0.2,5.5-1.1,8.2-1.6c2.9-0.6,5.7-1.2,8.6-1.8c2.2-0.5,4.5-0.8,6.2-2.3c-2.2-1.7-3.5-1.3-6.1-0.6c-2.9,0.8-5.9,1.4-8.9,2.1
				c-6,1.4-12,2.9-18,4.2c-12.3,2.6-24.5,4.5-36.9,5.6c-3.1,0.3-6.1,0.5-9.2,0.9c-2.9,0.4-5.2,0.8-8.2,0.2c-2.4-0.5-4.5-0.6-1.9-2.8
				c0.8-0.7,1.8-1.1,2.6-1.7c1.1-0.7,1.1-1.3,1.8-2.4c1.2-1.8,3.5-1.3,5.5-1.4c2.2-0.1,4.1-1.5,6.3-2.1c2.4-0.7,4.5-0.9,6.7-2.2
				c1-0.6,0.9-0.4,1.9-0.4c1.3,0,2.2-0.3,3.4-0.9c2.3-1.1,3.9-2.1,6.5-2c1.4,0.1,1.9-0.4,3.3-1.1c1.4-0.7,2.8-1,4.3-1.2
				c3.3-0.4,6.3-1.1,9.4-2.4c1.4-0.6,2.5-1.4,3.9-2c0.2-0.1,2.4-0.4,2.5-0.5c0.2-0.2-0.2-1.3,0.7-1.4c0.8-0.1,1.1,0.8,2,0.7
				c0.4-0.1,0.3-0.6,0.6-0.7c0.6-0.3,0.9-0.4,1.6-0.4c2.7,0,4-0.5,6.5-1.7c1.1-0.5,2.1-0.8,3.2-1.1c1.2-0.3,1.6-0.9,2.6-1.4
				c1.7-0.9,2,1.1,3.9,0.6c0.9-0.2,1.6-0.9,2.4-1.4c1.1-0.6,1.9-0.6,3.1-0.7c2.3-0.3,4.3-1.3,6.5-1.7c0.9-0.2,1.7-0.6,2.6-0.8
				c1.2-0.3,2.5,0,3.7-0.4c2-0.7,2.9-2.1,5-2.1c2.6,0,4.8-0.9,7.3-1.8c2.6-1,5.2-2.2,8-2.6c2.6-0.4,5.2-0.3,7.8-0.9
				c2.6-0.6,5.1-1.6,7.6-2.5c2.7-0.9,5.4-1.3,8.3-1.8c2.4-0.4,5-0.5,7.3-1.1c1-0.3,1.9-0.9,2.9-1.1c1.2-0.3,2.3-0.2,3.4-0.7
				c1-0.5,1.9-1.3,3.1-1.4c1.4-0.2,2.7,0.1,4.2-0.2c1.3-0.3,2.4-0.2,3.7-0.3c1.1-0.1,1.7-0.7,2.9-1.1c2.5-0.9,5.4-0.4,8-0.9
				c2.6-0.5,5.4-1,7.6-2.5C606,580.3,601.8,581,598.5,581.2"/>
			<path id="react-path-254" class="st1" d="M549,608c-8.3-0.6-16.4,0.9-24.6,1.8c-6.7,0.7-13.9,0.9-20,4.1
				c7.6-0.5,15.2-0.7,22.7-1.8c6.8-1,13.9-3.1,20.8-1.3c-3.1,2.4-7.1,3.3-10.7,4.5c-4.6,1.5-9.2,3.2-13.7,4.7c1.7,2.2,5.9-0.3,8-0.9
				c3.3-1,6.5-2,9.7-3.3c2.8-1.1,5.7-1.9,8.3-3.4C552.6,610.9,552.8,608.3,549,608"/>
			<path id="react-path-255" class="st1" d="M399.3,521.3c-1.1-2.3-4.2-3.8-5.8-5.8c-2.3-2.9-4.6-5.8-7-8.7c-2.2-2.7-4.3-5.4-6-8.5
				c-1.8-3.3-3-6.9-5-10.2c-0.6,1.2-1.3,2.6-1.1,4c0.2,1.3,1.3,2,2,3c1.8,2.6,2.8,5.8,4.6,8.5c3.9,5.7,8.7,10.9,13.1,16.2
				c-10.6,1.4-21.2,2.8-31.8,4.2c2.4-6.9,5.3-13.8,7.6-20.7c1.1-3.3,2-6.7,2.9-10.1c0.7-2.7,1.8-5.9-0.2-8.3
				c-1.2,4.2-2.1,8.6-3.6,12.7c-1.5,4.1-3.3,8.1-4.9,12.2c-1.6,4-8.4,17.1,0,17.8c3.5,0.3,7.4-0.7,10.9-1.2c4.4-0.7,8.7-1.4,13.1-2
				C389.6,524.3,400.9,524.9,399.3,521.3"/>
			<path id="react-path-256" class="st1" d="M330.2,546.9c-2.8-3.2-5.7-6.3-8.6-9.5c-1.9,2-1.3,2.7,0.6,4.6c1.7,1.7,3.6,3.3,5.3,5.1
				c1.7,1.8,1.4,2.7-0.4,4.2c-2,1.7-4.1,3.2-6.1,4.8c-4.1,3.4-8.2,6.7-12.4,10c-3.4,2.7-7.4,6.8-11.6,8.1
				c-1.1-5.6-2.1-11.3-3.2-16.9c-2,0.5-2.4,1-2.1,3.1c0.4,2.7,1.3,5.3,1.8,7.9c0.4,2.3,1.4,4.8,1,7.1c-0.2,1-0.9,1.9-0.9,2.9
				c0,1.2,0.7,1.9,1.2,2.9c8.2-5.3,15.9-11.4,23.5-17.5c3.6-2.9,7.1-6,10.7-8.8c1.1-0.9,2.7-1.7,3-3.2
				C332.4,550.2,331.2,548.1,330.2,546.9"/>
			<path id="react-path-257" class="st1" d="M355,458.9c-10,1.9-20.1,3.1-30.2,4.4c2.1,3.7,5.7,2.7,9.2,2.2
				c5.1-0.7,10.3-1.3,15.5-1.7c0.4,9.1,1.2,18.2,1.2,27.3c0,2.3-0.1,5.3-2.8,5.9c-3.7,0.9-8.8-1.5-12.3-2.6c0.7,1.2-0.4,2.4,0.9,3.5
				c0.8,0.7,2.2,0.8,3.1,1.1c3,1,6,2.3,9.2,1.7c4.7-1,4.1-6.5,4-10.2c-0.2-7.2-1-14.4-0.6-21.6c0.1-2.8,1.3-3.9,3.4-5.6
				c0.8-0.6,1.7-1.2,1.8-2.3C357.5,459.5,356.2,458.7,355,458.9"/>
			<path id="react-path-258" class="st1" d="M16.9,214.6c-0.2,0.1-0.1,0.1-0.2,0.4C16.8,215,16.9,214.9,16.9,214.6"/>
			<path id="react-path-259" class="st1" d="M210.6,580c-1.9-1.1-2.6,1-3.4,2.3c-1.5,2.6-3,5.1-4.5,7.6c-1-2.2-1.3-4.6-1.5-7
				c-0.1-1.2,0-5.2-2-4.1c-1.8,1-0.4,4-0.2,5.4c0.4,2.3,0.6,4.7,1.4,7c1.7,4.9,4.6,1.8,6.4-1.1c1.4-2.3,3-4.4,4.3-6.7
				C212.1,581.9,212.4,581.1,210.6,580"/>
			<path id="react-path-260" class="st1" d="M236,619.7c-3.2,3.7-6.4,7.4-9.5,11.1c4.6-0.2,6-2.7,8.8-5.7c0.9-1,2.3-2.7,3.7-2.9
				c1.1-0.2,0.8-0.3,1.6,1c0.5,0.9,1.2,1.7,1.8,2.5c0.6,0.8,2.5,3.3,3.5,1.2c0.5-1-1.8-3.3-2.4-4.1
				C241.7,620.3,239.1,616.3,236,619.7"/>
			<path id="react-path-261" class="st1" d="M336,142.6c1.3,5.4,6.4,1.4,8.3-1.1c2.7-3.5,4.4-8,5.2-12.4c0.4-1.8,0.6-4.1-0.2-5.8
				c-0.9-2-2.7-1.6-3.9-0.1c-1.5,1.8-2,4.6-2.9,6.8c-1,2.4-2.1,4.8-3.5,7c-1.2-1.2-2.9-2.6-3.6-0.3
				C334.8,138.5,335.6,140.9,336,142.6"/>
			<path id="react-path-262" class="st1" d="M327.6,131.4c2.4-0.2,6.2-1.8,7.1-4.4c1.7-4.9-5.6-2.6-7.8-2.3c0.1-1.8,1.4-7.3-1-8.2
				c-1.8-0.7-2.8,3.1-3,4.3C322.2,124.4,322.5,131.9,327.6,131.4"/>
			<path id="react-path-263" class="st1" d="M317.8,141.6c0,1.7,2.9,9.9,5.7,6.6c1.2-1.5-0.2-2.6-1.1-3.7c-1.4-1.8-2-4-3.3-5.9
				C318.7,139.5,317.8,140.7,317.8,141.6"/>
			<path id="react-path-264" class="st1" d="M430.4,219.1c-0.9,1-1.8,1.9-1.1,3.3c0.3,0.6,1.5,2.1,2.4,1.9c0.8-0.2,0.7-1.4,0.6-2
				c-0.4-1.3-1.7-1.6-1-3.1C431,219.1,430.7,219.1,430.4,219.1"/>
			<path id="react-path-265" class="st1" d="M278.3,211.6c0,0.2,0.1,0.3,0.2,0.5C279.6,211.1,278.4,211.1,278.3,211.6"/>
			<path id="react-path-266" class="st1" d="M84,297.3c-0.1-0.2-0.2-0.3-0.3-0.5c-0.3,0.3-0.3,0.6,0,0.9
				C83.8,297.6,83.9,297.5,84,297.3"/>
		</g>
	</g>
</g>
</svg>
