<?xml version="1.0" encoding="utf-8"?>
<!-- Generator: Adobe Illustrator 24.0.2, SVG Export Plug-In . SVG Version: 6.00 Build 0)  -->
<svg version="1.1" id="Layer_1" xmlns="http://www.w3.org/2000/svg" xmlns:xlink="http://www.w3.org/1999/xlink" x="0px" y="0px"
	 viewBox="0 0 1024 768" style="enable-background:new 0 0 1024 768;" xml:space="preserve">
<style type="text/css">
	.st0{display:none;fill-rule:evenodd;clip-rule:evenodd;fill:#FFFFFF;}
	.st1{fill-rule:evenodd;clip-rule:evenodd;}
</style>
<g id="react-group-199">
	<g id="react-group-200">
		<path id="react-path-203" class="st0" d="M303.3,421.1c4.7,35.6,9.5,71.2,14.2,106.8l3.8,28.7c0.5,3.6,0,10.8,1.9,14
			c0.7,1.1,2.4,1.7,3.6,2.4c4.3,2.3,8.7,4.7,13,7c36.6,19.7,73.3,39.3,109.9,59c35.2,18.9,70.3,37.7,105.5,56.6
			c3.6,2,9.5,7,13.4,5.7c3.7-1.3,7.5-4.4,10.9-6.4c6.5-3.8,13-7.6,19.5-11.4c39.4-23.1,78.7-46.1,118.1-69.2
			c16.2-9.5,32.5-19,48.7-28.6c4.4-2.6,8.9-5.2,13.3-7.8c2.3-1.4,2.6-1.3,3.5-3.6c3.4-8.6,5-18.5,7.4-27.5c2.7-9.9,5.3-19.8,8-29.6
			c1.2-4.4,0.6-5-1.3-9.2c-3.8-8.4-7.7-16.9-11.5-25.3c-8.5-18.7-17-37.4-25.6-56.1c-3.4-7.6-11.7-12.9-17.7-18.4l-92.8-86.4
			c-2.4-2.2-4.7-4.4-7.1-6.6c-0.4,13.2-3,27.4,0.8,40.1c6.3,20.9,12.5,41.8,18.8,62.7c3,10.1,6.1,20.2,9.1,30.3
			c0.6,1.9,4,9.3,3.1,11c-0.5,0.9-4.8,1.8-5.8,2.2c-4,1.5-8.1,3.1-12.1,4.6c-11.2,4.3-22.5,8.5-33.7,12.8
			c-10.1,3.8-20.2,7.7-30.3,11.5c-3.4,1.3-7.4,3.7-11.1,3.5c-3.2-0.2-6.9-1.8-10-2.6c-5.5-1.4-11-2.8-16.5-4.3
			c-10.8-2.8-21.6-5.6-32.4-8.4c-12.2-3.1-22.4-12.3-32.8-19.1c-17.9-11.7-35.8-23.4-53.6-35.1c-4.1-2.7-4.1-4.2-5.7-9.1
			c-3.7-11-7.3-22-11-33c-2-5.9-4.4-11.8-5.8-17.8c-2.4-9.9-3.9-20.2-5.8-30.2c-0.6-3-1.2-6.1-1.7-9.1c-7.5,3-15,6.1-22.5,9.1
			c-1.1,0.4-6.4,1.8-6.8,2.8c-0.3,0.7,1.3,3.8,1.5,4.4c6.2,18.4,12.4,36.8,18.6,55.2c2,5.8,3.9,11.6,5.9,17.4
			c-4.7-7.3-9.3-14.7-14-22c-3.7,12.3-7.3,24.7-11,37c-8.7-10-17.3-20-26-30c-3,10-6,20-9,30c-9.3-12.3-18.7-24.7-28-37
			c-1.1,6.4-2.2,12.9-3.3,19.3c-0.3,1.9-0.3,7.5-1.6,9.1C308.3,421.7,305.2,421.1,303.3,421.1"/>
		<g id="react-group-201" transform="translate(94.999879, 58.999801)">
			<path id="react-path-204" class="st1" d="M799.2,439c-0.5,16.8-0.2,38.5-9.3,53.2c-1.5,2.4-6.5,9.8-7.1,3.3
				c-0.5-6.4,1-12.7-0.5-19.2c-0.8-3.5-3.6-11-8.4-7.9c-2.4,1.6-3.1,5.5-4,8c-1.4,3.7-3,7.3-4.5,10.9c-5.2,12.7-10.6,27.9-22.1,36.3
				c1.5-11,5.6-22.7,2.9-33.8c-0.9-3.8-3.8-10.7-8.7-8.5c-4.8,2.2-7.9,11.8-10.2,16.1c-6.9,13-13.9,25.8-21.6,38.3
				c-3.9,6.3-8.1,12.1-13.2,17.4c-3.2,3.4-7.2,9.1-12.2,9.6c0-9.6,3.2-18.9,6-27.9c3.1-9.7,5.9-19.5,9-29.3
				c2.6-8.5,4.8-16.8,6.6-25.5c0.7-3.6,1.3-7.3,4.4-9.6c2.7-2.1,7.1-3.1,10.1-4.6c8-4,16.3-8.4,23.8-13.3c3.1-2,5.7-4.7,8.9-6.5
				c3.7-2.1,7.1-3.9,10.5-6.4c14.6-11,27.8-24.6,36.6-40.7c1.4,6.5,3.3,12.8,3.6,19.5C799.8,425.3,799.4,432.2,799.2,439 M679,516
				c-2.3-3.9-5.9-2.3-9-0.4c-4.9,3-9.7,5.9-14.6,8.8c-10,5.9-19.7,12.2-29.4,18.5c-19.8,12.8-40.3,23.3-61.1,34.1
				c-20.2,10.5-39.5,23-58.4,35.6c-4.5,3-9.1,6.1-13.4,9.4c-3.9,2.9-7,7-11,9.6c-4.2,2.7-7.2,0.5-11.2-1.5
				c-5.1-2.5-10.4-4.6-15.6-6.8c-20.9-9.1-41.9-18.5-62.3-28.8c-20.2-10.2-39.4-22-58.8-33.8c-9.2-5.6-18.3-11.5-27.4-17.3
				c-9.7-6.2-19.7-10.8-29.9-16c-4.5-2.3-8.5-5.5-13.1-7.6c-4.9-2.2-10-3.8-14.3-7c-2-1.4-3.6-3.1-5.8-4.2c-1.8-0.8-3.9-1-5.7-1.9
				c-3.7-1.8-4.7-5.4-5.4-9.2c-4.6-24.3-7-49.3-9.7-74c-1.5-13.8-3.2-27.6-5.2-41.4c-0.9-6.2,0.9-11,1.9-17.1
				c1.1-7.1,1.6-14.2,2.4-21.3c3.6,6.7,6.8,13.8,11.4,19.9c3.4,4.5,9.2,10.9,15.5,10.8c9.7-0.2,9.3-16.9,9.7-23.5
				c4.4,4,5.8,10.4,9.5,15c3.4,4.2,7.9,9.4,13.1,11.3c10.9,4,9.8-16.2,9.2-21.9c-0.3-2.9-1.9-7.4,1.9-6.1c3.5,1.2,7,6.2,10,8.5
				c5.1,4,10.8,7.2,16,11c6.5,4.7,13.6,8.1,20.3,12.4c4.2,2.7,8.7,3.3,13.3,5.4c6.7,2.9,12.5,7.3,18.9,10.9
				c12.6,7,26.5,13.2,40.2,17.5c4.4,1.4,10.4,5.2,13.7,1.3c2.1-2.4,3.4-6.1,5.2-8.9c2.2-3.4,4.6-6.8,7.1-10.1
				c8.7-11.7,18.4-22.7,29.2-32.6c12.5-11.5,26.2-21.8,40.9-30.4c6.3-3.7,32.6-20.2,38.4-8.6c-4.7-0.3-8.9,1.4-12.9,3.6
				c-1,0.5-6.1,4.2-4.9,1c-1.5,0.3-2.8,2.2-3.9,3.1c-1.9,1.5-4.9,3.2-7.1,4.4c-2.2,1.2-5,1.5-7,3c-0.7,0.5-1.2,1.4-1.9,2h-2
				c-0.3,1.1-0.6,2.2-0.9,3.4c-1.1-3.7-2.8,1.1-4.7,2.7c-1.1,0.9-3,1.9-4.3,2.5c-1,0.4-1.2-0.6-2.1,0.2c-0.9,0.7-1.4,2.3-2.4,3.1
				c-1.2,1.1-2.6,1.9-3.9,2.8c-2.5,1.8-5.1,3.2-7.5,4.8c-3.4,2.3-5.1,6.1-8.4,8.5c-1.5,1.1-3.9,1.2-4.8,2c-2.1,1.8-1.4,4.5-5.3,4.6
				c0.4,0.6,0.6,1.2,0.6,1.8c-0.9-0.2-1.8-0.5-2.5-1.2c0.2,3.9-3.7,5.3-6,7.7c-1.3,1.4-3,3.3-3.9,5c-0.2,0.3-0.5,2.5-0.5,2.5
				c-0.4,0.2-2.5-1.7-2.3-1.6c-0.6,3.6-4.1,7-5.6,10.3c-0.8,1.8-1.6,4.6-3.2,5.8c-0.4,0.3-1.8,0-2.8,1.1c-0.8,0.9-1.7,2.4-2.1,3.6
				c-0.2,0.8,0,2.7-0.3,3.2c-0.6,0.8-1.5,0-2.4,0.6c-1.7,1.1-1.7,2.9-4.1,3.1c1.7,4.1,11.8,5.3,15.4,6.5
				c10.4,3.3,21.2,6.5,30.9,11.5c2.5,1.3,4.9,2.4,5.3,5.3c0.6,4.1-1.5,9.6-1.9,13.8c-1.1,11.3-1.3,22.9-1.1,34.3
				c0.2,10.7,0.6,21.6,1.1,32.3c0.5,10,2.5,19.7,3.6,29.6c0.3,2.7,0.1,14.9,4.8,14.3c3.9-0.5,1.4-8.9,1.4-11.3
				c-0.2-5.3,1-10.7,0.9-16.1c0-2.6,1.1-4.8,1.2-7.2s-1.1-4.4-0.7-6.9c0.3-2.4,7.5-16.3,0.6-14.7c0.4-2,0.8-4,1.3-6
				c0.7,0.7,1.3,1.4,1.8,2.3c0.6-4.3,0.4-8.5,0.8-12.8c0.2-1.9,1-4.1,0.7-6c0.1-0.8-0.1-1.6-0.3-2.4c-0.4-0.4-0.9-0.7-1.6-0.7
				c-0.3-1.1-0.4-1.4,0.2-2.4c0.2-0.7,0.7-1.2,1.5-1.3c1.4-0.2,1.6-1,0.5-2.4c0.6-2.9,0.6-4.7,0.2-7.5c-0.3-2.4,0.9-7-0.4-9.2
				c-1.5-2.5-2.3-0.1-2.5-3.5c-0.1-0.7-0.1-2.3,0.2-3c0.3-0.8,1.3-0.5,1.4-0.8c0.8-1.9,0.9-5.7-2.1-5.4c0.1-1.4,0.2-2.8,0.4-4.1
				c2.2,2.5,1.4,0.4,2.6-1c1.6-1.9,3.3-2.2,5.6-2.9c6.3-2,12.3-4.9,18.4-7.3c13-5.1,26.2-9.6,38.8-15.5
				c26.5-12.6,52.5-26.2,79.1-38.5c-1.9-3.5-0.7-3.7,0.7-7c1.9,1.3,1.5,0.4,2.8,0.3c-0.1-1.1,0.2-1.4,1-1c0.6,0.2,1.3,0.3,2,0.2
				c1.7,0.3,3,1.2,4.5,1.5c0.5,0.4,1,0.6,1.6,0.8c0.5-0.1,1-0.4,1.4-0.8c2.4,0.5,3.2,2.3,3.4,4.9c0,0.5-1.4,0.9-1,1.6
				c0.7,1.1,2.6,0.8,3.7,1c-0.2,1.1-0.5,2.2-0.7,3.4c4.8-2.2,3.5,4.7,5,6.9c0.4,0.6,1.3,0.1,1.8,0.9c0.6,1,0.4,2.3,0.9,3.3
				c1.2,2.1,2.3,1.9,3.5,4.3c6.1,12.8,14.2,24.8,20.1,37.9c2.8,6.2,5.3,12.6,8.2,18.8c2.7,5.7,4.2,10.5,2.3,16.8
				c-4.4,14.4-9.2,29.1-15,43.1C679.6,516.9,679.3,516.5,679,516 M369.7,623.8c-0.4,0.7-0.8,1.4-1.2,2.1
				C367.5,620.6,370,623.1,369.7,623.8 M350.1,613.8c-1.3-0.4-0.8-2.6-0.7-3.5c0.8,1.1,1.7,2.1,2.4,3.3
				C351.2,613.7,350.7,613.8,350.1,613.8 M296.5,593.4c1.4-0.8,2.4-1.3,4-2.2C298.9,594.3,298.9,594.3,296.5,593.4 M212.2,316.5
				c-2.1,5.2,4.4,37.7-1.7,38.7c-0.9-2.8-1-10.7-4.6-11.6c-4.5-1.2-4,6.9-4.6,9.4c-9.2-6.4-13.3-18.7-17.6-28.5
				c-5.6-12.5-10-25.4-14.2-38.4c-3.6-11.1-6.6-22.4-10.2-33.5c-2.3-7-4.7-13.9-6.3-21.1c-0.3-1.6-1.6-5.5-0.5-7
				c1.6-2.2,7.4,0.3,9.3,0.9c12.2,3.7,24.8,5.2,37.3,7.4c13.9,2.4,27.8,4.8,41.8,6.6c3.5,0.5,7,0.9,10.5,1.3c2.3,0.3,5.7,0,7.9,1
				c4.4,2.1,5.3,9.9,6.9,14c6,15.3,13.2,30,19.5,45.1c5.7,13.6,10.1,28.1,18.3,40.5c-6.1-2.7-13.9-17.1-20.8-8.8
				c-3,3.6-2.2,8.3-2,12.6c0.3,6.2,0.4,12.4,0.4,18.6c-6.7-1.7-11.2-9.4-14.8-14.8c-4.8-7.4-7.9-14.3-10-22.8
				c-0.9-3.7-3.4-3.8-5.6-6c-1.4-1.4-2.1-3.3-4.1-1.3c-2.5,2.6-0.8,9.7-0.4,12.8c1,7.2,4.4,18.4,1.1,25.2
				c-4.5,9.2-16.4-13.9-17.8-17.3C229.5,337.8,216.8,305.3,212.2,316.5 M203.9,159c0.8,0.1,1.5,0.2,2.3,0.3
				c-0.6,0.5-1.9,2.4-2.9,1.9C203.4,160.6,203.6,159.8,203.9,159 M243.7,150.5c-0.2,0.3-0.5,0.5-0.7,0.8c-1.1-1.3-0.7-3.3-0.7-4.9
				C243.7,147.3,244.1,149,243.7,150.5 M246.9,165.5v4.4C243.9,168.6,243.9,167.9,246.9,165.5 M250.5,171.1c-2.1-0.6-2.3-1-2-4.3
				C249.4,168.6,249.9,169.8,250.5,171.1 M262.6,203.7c-0.9,2.3-6-3.1-5.8-4.7c0.2-1.5,1-2,2.1-1c0.4,0.3-0.2,1.5,0.1,1.9
				C259.7,201.4,261.4,202.6,262.6,203.7 M262.6,217.3c-1.3,3.2-3.6-1.8-0.2-2C262.6,215.9,262.7,216.6,262.6,217.3 M260.1,212.2
				c-0.5-0.7-1-1.3-1.4-2c1.7,0.3,3.1,2.9,4.9,1.2C263.4,214,261.6,214,260.1,212.2 M148.4,170.6c-2.8-3,15.3-5.2,17.5-5.7
				c15.9-3.8,30.8-9.3,45.7-16c7.1-3.2,14.1-6.4,21-10c3-1.5,7.1-2.8,9.6-5.1c1.8-1.6,1.7-2.9,4-3.9c2-0.8,2.1,0,3-1.5
				c0.5-0.9,1.2-4.2,0.8-5.2c-0.9-2.7-2.1-0.5-3.9-2.3c-1.3-1.3-1-5.1-0.6-6.6c0.5,0.7,0.7,1.5,0.8,2.4c1.9-1,1.2-4.2,3.3-4.8
				c2.2-0.6,2,1.2,2.6,3c1.7-2.5,0.3-4.6-0.6-7c4.6-0.9,9.6-1.7,14.2-0.2c3.3,1.1,6.2,3.9,9.7,4.4c3.4,0.5,4.1-1.1,6.6-2.8
				c2.1-1.3,3.8,0.2,4.9-0.8c-0.7,3.4-6.3,3-5.6,7.2c0.3,1.9,2.7,3.7,3.8,5.2c1.4,1.9,2.4,4,3.3,6.1c3.6,8.3,5.1,17.8,6.6,26.7
				c3.7,21.8,4.2,44,7.7,65.9c1.7,10.4,3.3,20.8,4.2,31.4c0.2,2.6,1.8,8.6,0.5,11.1c-1.1,2.1-3.6,2.1-5.8,2.7
				c-4.2,1-8.2,2.4-12.3,3.9c-3.7,1.4-4.7,2.2-7.1-1.2c-2.3-3.3-3.4-7.3-5-10.9c-2.1-4.6-4.6-9.1-7-13.6c4.7,0,7.4-2.5,7.3-7.3
				c-0.1-5.3-4.5-6.6-6.3-10.9c-1.7,2.3-1.9,2.3-3.1,0.2c-1.4-2.5-2.4-7-3.3-9.8c0.6,0.7,1.2,1.3,1.9,2c1.6-2.2-0.9-5.6-1.7-7.6
				c-1.3-3.1-1.5-6.5-2.7-9.7c-0.7-1.7-2.2-3.1-2.6-4.8c-0.2-1.2,0.7-2.3,0.5-3.5c-0.4-2.1-2.8-4.4-3.5-6.5
				c-1.1-3.3-2.4-6.2-3.8-9.4c-1.9-4.4-1.5-8.9-1.8-13.6c-0.4-4.8-1.9-9.4-2.4-14.2c-0.4-3.3,0.8-7.5-1.7-10.1
				c-0.3,4.4,1,4.3-3.2,5.1c-4.7,0.9-8.1,4.4-12.6,5.5c-0.9,0.2-1.6-3.8-1.2,1.7c-2.1-1.6-6.7,0.4-5,1.3c-1.3,1.4-3.8,0.4-4.3,2.5
				c-4.4-4.3-11.4,10.2-16.6,2.7c-0.9,5.1-4.6,8.2-9.6,8.8c-2.5,0.3-4,1.2-6.3,1.9c-0.5,0.2-0.6,0.8-1.2,1c-0.8,0.3-2-0.5-2.6-0.4
				c-1.2,0.3-2.5,1.9-4.2,2.2c-1.9,0.4-4,0.2-5.9,0c-2.4-0.3-3.5-0.6-5.8,0.2c-2.1,0.7-4.4,2.7-6.3,0.5
				C159.4,175.8,152,174.5,148.4,170.6 M290.7,106.3c-2.3-0.3-0.7-2.3,0.4-2.9C294,101.8,293.3,106.6,290.7,106.3 M161.7,125.4
				c13.7-19.7,37.1-33.3,57.6-44.7c11.2-6.2,22.7-12.3,34.5-17.4c5.9-2.5,11.8-5,17.8-7.2c3.2-1.2,6.4-2.3,9.7-3.3
				c0.9-0.3,2.5-1.2,3.5-1.1c-0.2,0,2.3,0.7,1.8,0.9c1.6-0.7,2.4-2.5,4.3-3.3c2.1-0.8,4.8-1.2,7.1-1.2c2-0.1,3.8,0.8,5.7,0.8
				c1.3,0,2.3-0.6,3.6-0.6c0.6,0,0.6,0.9,1,1c0.2,0,1.8-0.6,1.9-0.6c0.6,0.4,1.2,1.9,1.7,2.5c1.6,1.7,3.9,2.9,6,3.8
				c2.6,1.1,8.9,2.2,5.9,6.3c2.1-0.3,3,1.6,0.4,2c-1.4,0.3-2-1-3-1.9c-2.4-2-8.2-4.9-11.7-4.8c-1.9,0.1-3.5,1.6-5.3,2.1
				s-2.6-0.3-4.2-0.2c-1.8,0.2-3,1.7-4.7,2c-1.6,0.3-2.5-0.8-4-0.8c-1.7,0.1-3.4,1.6-5,2.1c-2.6,0.8-4.5,1.3-7.1,2.7
				c-4.9,2.6-10.5,3.5-15.6,5.7c-4.1,1.8-8.7,2.7-12.5,4.6c-4.2,2.2-8.4,4.3-12.5,6.7c-3,1.7-9,2.3-12.3,1.9c0,6-3,1.8-6,4.4
				c0.7,0.6,1.5,1.1,2.4,1.4c-3.2,1.3-6.2,2.9-9.4,4.4s-6.7,1.9-8.8,4.8c-2,2.7-1.3,1.3-4.2,2.3c-1.3,0.5-2.5,2-3.5,3
				c-1.7,1.7-2,4.3-3,0.8c-0.3,0.4-1.4,3.1-1.6,3.2c-1.2-1.3-1.4,0.2-2,0.8c0.4,1.2-0.1,1.9-1.5,2.3c-0.7,0.5-1.4,1-2.1,1.5
				c-2.5,1.8-5.8,3.3-7.5,5.9c-1.3-0.8-1.8-2.1-1-3.5c-2.5,2.3-5.5,4.7-6.2,8.3c-0.3-0.3-0.7-0.5-1.1-0.7c-1,0.7,0.3,2.7,1,3.2
				c2.8-1.1-0.7-0.7,1.2-0.5c0.5,0.1,1.1,0.5,1.7,0.5c1.8,0,3.4-0.1,5.1-0.3c3.8-0.6,7.6-1.7,11.3-2.8c4-1.2,8.1-2.4,12-3.9
				c3.2-1.2,6.4-2.6,9.6-3.9c1.3-0.5,2.6-1.1,3.8-1.6c2.4-1,3.7-2.7,3.4,0.2c1.9-0.3,3.6-3.1,5.1-4.2c2.1-1.6,4.4-2.7,6.9-3.5
				c1-0.3,1.7-0.7,2.8-0.7c0.5,0,0.8,1.4,1.1,1.4c2.2-0.5,1.2-1.8,2.2-3.5c2.2-3.9,8.1-6,11.7-8.2c2.3-1.4,3.9-3.3,6-4.8
				c1-0.7,1.7-1,2.7-1.3c0.8-0.2,1.8,1.6,2.3-0.2c-1.8-0.8-3.4-1.7-5.1-2.2c-1.3-0.4,0.3-1.7-1.7-0.9c-0.8,0.3-1.1,1.9-1.4,2.5
				c-2.2-2-8.5,0.1-11.1,0.9c-0.2,0.1-1-0.4-1.4-0.3c-1.5,0.1-2.6,2.2-3.6,3c-2.7,2.3-5.6,3.3-8.8,4.7c0.9-4.8,7.3-6.7,11-8.6
				c5.5-2.7,10.6-6.1,16.6-7.5c4-1,9.3-1.7,11,2.9c1,2.8,1.2,9.7-2.3,11c-0.4-1.3,0.8-2.4,1.2-3.5c-3.5,1.3-4.1,5.5-6.7,7.7
				c-1.5,1.2-2,1.6-2.7,2.8c-0.7,1.2-1.1,2.3-2.7,3.5c-2.7-5.8-2.3,2.1-3.7,3.1c0.6-0.4-2.3,0.8-1.9,0.6c-0.1,0-1.4-1.9-2.2-1.9
				c-1.4,0.1-1.2,1.7-1.9,2.5c-2.4,2.7-5.4,4.5-9.2,4.1c-0.1,1.9,0.5,4.2-2.1,4.4l-0.3-4.3c-1.4,1.5-3.3,2.8-4.5,4.5
				c-1.3,1.9-1.2,3.1-3.4,4.4c-2.3,1.3-7.2,4-9.9,4.2c0.7-1,0.6-1.8-0.4-2.6c-1.4,1.4-3.4,1.6-4.9,2.8c5.1,2.1-3.9,2-5.1,2.3
				c-0.8,0.2-1.4,0.9-2.2,1c-1,0.2-1.2-0.9-2-0.5c-1.3,0.5-0.8,1.9-2.1,2.6c-1,0.5-2.6,0.5-3.7,1c-2.6,1.2-8.2,3.7-10,0.6
				c-0.9,5.3-10.1,2.1-13.4,1.7C165.5,133.8,157.4,131.6,161.7,125.4 M181.2,70.7c0.7-0.6,1.3-0.5,2,0.1c-0.9-4.8,6.2-7.2,9.3-9.2
				c4.1-2.7,8.9-8,14.3-7.6c-0.9,0.7-1.8,1.4-2.7,2c1.3,0.2,2.6,0.3,3.9,0.5c-0.7,1.1-1.5,2.2-2.2,3.2c-1.2-6.6-7.5,1.7-9.3,3
				c-1.8,1.2-3.7,2.1-5.3,3.6s-3.1,4.2-5.7,2.8c-0.2,3.8-3.3,2.8-5.4,4.9C179.9,72.7,180.7,71.8,181.2,70.7 M209.1,51.8
				c6.5-2.4,12.1-6.9,18.2-10.1c5.8-3.1,11.8-5.8,17.7-8.7c3-1.5,8.5-5.2,12-3.3c4.6,2.6-1.7,3.4-3.4,4.3c-0.6-4-2.8-0.4-1.5,1.8
				c-3.5-1.5-11.3,4.5-14.7,6.1c-0.8,0.4-0.4,0.6-1.3,1c-0.2,0.1-2.4,0.6-3.1,0.8c-3.2,1.1-5.3,0.2-6.6,4.1
				c-0.3-0.9-0.6-1.8-0.9-2.7c-2,4.5-8,6.4-11.9,9.1c-1,0.7-3.8,3.3-5.1,2.8C206.8,56.3,207.5,52.4,209.1,51.8 M326,65.3
				c2.7,0.2,0.1,1.5,0.9,2.3c-0.1-0.1,1.6,1.4,1.4,1c0.3,0.5,1,0.5,1.4,1.6c1.3,3.8-4.4,7.8-6.3,9.9c-3.7,4.2-5.9,9.5-9.7,13.6
				c-1.7,1.8-3.5,3.1-5.9,3.8c-1.7,0.5-3.5,0-5,1.6c-1.3,1.3-1,2.1-2.4,2.8c-2.4,1.2-3.5,0.2-5.9,2.8c-2-5.6,3.8-5.5,6.9-8.6
				c4.2-4.3,8.9-8.6,12.8-13.2c3.5-4.1,4.9-7.6,6.6-12.6c0.5-1.6,1.1-4.9,2.6-5.9C325.7,62.9,324.4,65.2,326,65.3 M339.5,209.6
				c7.2-8,16.1-15.2,25.7-20.1c3.5-1.7,8.4-4,11.9-1.3c3.5,2.6,2.8,7.8,1.3,11.4c-1.4-0.5-0.1-5.5-0.8-6.7c-1.5-2.7-4.8-1.3-7.1-0.4
				c-2.6,1.1-5,2.2-7.1,4.1c-0.8,0.8-2.5,1.5-3,2c-0.8-0.3-1.3-0.1-1.4,0.7c0.2,0.5,0.1,1-0.1,1.5c-0.1,0.2-1.2-0.5-1.3-0.4
				c-0.7,0.6-1.3,1.3-2,1.8c-1.4,1.1-2.5,1.6-3.8,3.2c-2.4,3-5.6,4.7-8,7.5c-0.5,0.6-1.2,2.3-1.3,2.4c-1.2,1.4-3,2.6-4.4,4.1
				c-2.4,2.6-4.9,4.4-7.7,6.6c-1.2,1-2.6,2-3.4,3.4c-0.4,0.6-0.6,4-0.6,4c-2.7,3-2.2-3-2-3.7C326.7,221.6,334.2,215.5,339.5,209.6
				 M324.7,264c0.3,1.3,0.6,2.3,1,3.6C323.5,265.8,323.5,265.8,324.7,264 M322.4,268.1c-0.8,0.8-1.6,1.6-2.4,2.4
				C318.3,268.6,322.7,267.8,322.4,268.1 M321.3,236.2c-0.8,3.4-3.9,7.5-6,10.2c0.2-0.3-1.8,0.3-2,0.4c-0.8,0.4,1.1,3.3-1.6,2
				c-0.9,0.5,0.9,2.7-0.4,3.6c-3.6-8.3,6.3-15.5,10.1-21.6C323.3,232.5,321.8,234.3,321.3,236.2 M297.7,281c2.7,0.7,4,0.3,5.8-2.4
				c1.1-1.6,1.5-4.3,3.9-2l0.4-3c3.5,1.4,3.2,6.6,4.8,9.5c0.7-3.3,2.5-12.4,7.9-10.9c6.1,1.6-4,12.1-5,14.7
				c-2.1-3.2-1.3-0.2-2.8,0.2c-1.4,0.4-3.5-0.6-5.1-0.5c-5,0.3-9.4,2.5-14,4.4c-1.2-3.1-2.3-6.2-3.5-9.4c2.7,0.2,8.3-7,9-1.7
				c-2-0.3-2.6-0.3-3.5,1.6C296.3,281.2,297,281,297.7,281 M308.9,321.7c0,0,5.2,0.3,5.6,0.1c3.5-1.3,2.2-5.3,3-8.2
				c1.5,1.3,0.7,3.8,1.1,5.5c0.5,2,2.1,3.8,2.2,6c0.3,4.9-3.7,3.8-6.8,5.4c-2.6,1.4-2.9,3.1-5.1-0.6c-0.6-1-1.9-3.6-1.8-4.9
				C307.3,323.9,309.3,322.8,308.9,321.7 M313.1,343l-1.4-1.6c4.3,1.3,1.8-0.7,2.7-3.3c3.3,2.2,6,4.4,8.5,0.1l4.5,18.1
				c-3,0.7-6.9-3.9-9-5.5c-1.2-0.9-7.8-4.5-3.8-5.5C314.1,344.5,313.6,343.8,313.1,343 M342.3,286.3c-2.5,2.4-5,3.7-7.7,5.5
				c-2.4,1.6-1.6,3.5-3.6,5.3c-1.4,1.2-4.6,2.4-6.3,3.4c-3,1.6-5.7,2-8.8,0.1c0.8,6.8-3.8,7.3-9.6,8.7c-2.8,0.6-4.4,1.6-6.4-0.9
				c-1.4-1.7-1.9-4.9-0.2-6.4c2.7-2.5,9.9-1.6,13.3-3.2c2.6-1.2,5.3-7.9,8.5-5.5c-1.7-2.7,0.3-3.4,1.7-5.3c1.6-2.1,2.6-4.5,4.2-6.6
				c3.1-3.9,7.9-7.8,12.3-10.2c3.9-2.1,5.9-0.6,6.5,3.8c0.3,2.2,0.3,5.5-0.9,7.4c-0.4,0.6-1.7,0.6-2.1,1.2
				C342.7,284.6,343.3,285.3,342.3,286.3 M388.1,233.7c3.1,2.4,2.8,7.5,3.3,10.9c0.7,4.9,0.2,9.6,0.1,14.5
				c-0.1,5.2-2.6,8.6-3.8,13.4c-1.3,5.4-3,8.3-6,12.8c3.2,0.5-1.6,10.2-2.4,11.4c-0.9,1.4-7.8,7.6-4.8,7.6c-1.6,2.2-3.4,4.4-5.1,6.5
				c-0.6,0.8-1.8,1.2-2.3,1.7c-1,1.2-1.1,2.3-1.8,3.6c-1.1,2.1-1.5,1.5-3,3.1c-1,1.1-1.7,2.5-2.7,3.5c-3.2,3.3-3.6,0.6-5.5-1.9
				c-0.3,0.7-0.8,1.1-1.5,1.3c-0.6-2.8,3.3-5.7,5-7.4c2.7-2.8,5.1-6,7.5-9c5.1-6.6,9.6-13.7,13.2-21.2c3.8-8,6.9-16.7,8.5-25.5
				c1.2-6.7,2.4-18.1-6.6-19.8c-6.5-1.2-13.7,2.7-19,5.9c-3.3,1.9-6.5,3.9-9.7,6.1c-3.4,2.4-6.3,5.7-10,7.6c2-1-4.6,2.1-3.6,1.2
				c-0.5,0.4-0.1,1.7-0.4,2.2c-0.4,0.7-1.8,1.5-2.5,1.9c-1.7,1.3-4.4,2.6-5.1,4.6c-10.7-7.6,10.5-21.1,16-24.5
				C356.9,237.4,375.6,224.1,388.1,233.7 M416.8,159.8c-0.1-5.5,4.4-12.9,7.4-17.4c1.5-2.2,3.8-2.1,4.7-4.7c0.5-1.5-0.2-3,0-4.5
				c0.2-2,1.1-3.6,2.1-5.4c9.1-15.7,20.2-29.5,32-43.2c5.8-6.7,11.3-13.7,17.6-20.1c2.6-2.6,9.7-12.1,13.7-11.2
				c2.1,0.5,3.4,3.8,4.3,5.4c1.6,2.7,3.3,5.3,5.3,7.8c5.1,6.7,11,12.5,18,17.2c4.3,3,8.7,5.8,13,8.9c3.5,2.5,8.8,5.5,11.3,9
				c2.5,3.6-1.2,6.6-3.2,9.6c-3.1,4.6-6,9.4-9.1,14c-1.2-0.9-0.9-2.7-1.8-3.9c-0.8-1-1.8-1.4-2.9-2.1c-2-1.2-4-2.7-5.8-0.7
				c-3.2,3.5,1.2,11.8,5.9,10.9c0.6,3.5-8.8,9.2-11.2,11.1c-7.2,5.9-14.6,11-24.1,11.5c-3.8,0.2-7.9-0.1-11.5-1.4
				c-1.8-0.6-3.7-1.5-5-2.8c-1.6-1.6-2-4-3.6-5.6c-1.4-1.4-3.2-1.6-4.6-3s-2-3.6-2.6-5.4c-1.1-3.5-1.3-7.2-2.3-10.7
				c-0.6-2.1-1.1-5-3.2-2.9c-2.9,3-1.5,12.3-0.7,15.8c1.1,5.1,3.6,9.1,6.2,13.5c2.9,4.7,3.9,9.1,4.4,14.6c1,10.2,3.9,20,8.5,29.2
				c1.9,3.9,4.2,7.5,6.3,11.3c1,1.8,3.1,7.8,5.8,7.8c4.2-0.1-1.8-12.3-2.6-14.4c-4.6-11.4-9-23.4-10-35.8c6.6,1.7,13.8,3.3,20.7,2.2
				c-4.4,9.9,0.2,19.7-0.4,29.9c-0.3,5.1-0.5,9.8-0.4,14.9c0.1,4.5-1.9,8.9-3.7,13c-3.5,8-7.8,17.9-14.2,24
				c-5.4,5.1-12.6,5.5-19.6,4.3c-16-2.7-26.4-15-33.1-28.9c-4.3-8.9-7.6-18.5-9.6-28.2C416.4,182.5,417,171.2,416.8,159.8 M437.5,84
				c-14.9-10.8,6.7-23,17.8-21.3c2.6,0.4,7.3,1.5,7.1,4.8c-0.2,2.8-4.8,5.8-6.6,7.5C450.8,79.8,445.7,89.9,437.5,84 M545.9,323.4
				c-0.5-0.5-4.7,0.7-3-1.8c1.4-2,5.2,0.5,6.6,1C548.3,323.4,547.3,324.6,545.9,323.4 M483.9,453.7c-1.3,0.2-2.6-3.3,2-0.7
				C485.2,453.2,484.5,453.5,483.9,453.7 M483.7,510c0.2,1.5,0.6,2.6-0.5,3.7C482.3,512.5,482.2,510.9,483.7,510 M485.6,533.2
				c-0.1,0.8-0.3,1.7-0.4,2.5c-1.1-0.5-2.1-1.1-3.2-1.6C483.2,533.8,484.4,533.5,485.6,533.2 M486.9,513.6c1.6,0.6,0.8-1.3,2-1.6
				c0.4,2-0.1,3.7-1.2,5.3C487.6,517,487,513.6,486.9,513.6 M527.5,373.3c-2.2-0.3-2.6,2.1-4.2,3c-1.1,0.6-4.3,0.1-4.9,1.3
				c0.8,0.2,1.6,0.5,2.4,0.7c-1.8,1-3.7,2-5.5,3c4.4,0,9-2.1,13.4-1.5c1.9,0.3,3.2,0.9,4.4,2.4c0.7,0.9,1.3,2.4,1.4,3.5
				c0.1,1.2-0.8,2.1-0.7,2.6c2,0.1,1.7,3.3,1.3,4.6c-1,2.9-4.8,7.4-8.2,5.5c1.4,2,1.1,3.2-1.1,4.4c0.2-0.7,0.3-1.9-0.8-1.7
				c-0.3,1.1-0.2,2.9-1.1,3.8c-1,1-2-0.2-2.9,0.5c-1.2,0.7-0.8,1.9-1.7,2.7c-1.2,1.1-1.4,0.3-2.8,0.5c-2.2,0.3-0.8-1.1-2.6,0.7
				c-0.6,0.6-0.5,2.2-1.5,3.1c-1.9,1.7-7,3.5-8.8,1.3c-4.4,6.9-17.5,8.6-23.6,3.1c-9.7-8.7,8.4-26.5,14.4-32.2s12.7-10.5,19.5-15.3
				c3.8-2.7,7.8-5.1,11.8-7.5c2.5-1.5,5.6-4.2,8.7-3.9c2.7,0.2,5.1,2.4,8,2.8c2.1,0.3,6.1,0.8,3.5,3.6c-1.2,1.3-6.1,3.5-7.7,3.8
				c-1,0.2-2-0.2-2.9,0c-1.6,0.3-2.7,1.7-4.5,1.5C531.3,372.4,530.2,373.7,527.5,373.3 M556.4,276.1c0,2-3.7,1.5-4.5,0.8
				c-1.3-1.1-1.3-4.6-1.8-6.1C552.2,271.4,556.3,273.4,556.4,276.1 M526.2,208.5c7.9-6.5,16.1-12.4,24.8-17.6
				c3.1-1.9,7.5-5.6,11.4-5.2c1.6,0.2,5,2.1,3.8,4.1c-0.2,0.4-2,0.5-2.6,0.8s-1.1,1.2-1.7,1.6c-4.1,3-9,4.8-13.1,7.9
				c-3.4,2.5-6.5,5.3-10.1,7.5c-3.5,2.1-7.1,3.4-10.4,5.7c0.1,0-4.3,1.5-3.4,1.8C521.1,213.9,525.1,209.4,526.2,208.5 M578.6,206.1
				c4.7-1.9,9.2-4.1,14.1-5.4c2.4-0.6,4.9-1.1,7.5-0.8c0.4-0.8,1-0.9,1.7-0.5c0.6,0.9,1.3,1.5,2.2,2c1.4,1.1,6.5,2.5,5.5,4.8
				c-0.7,1.6-5.8,1.7-7.2,2c-4.3,1.1-8.2,3.4-12.6,4c-0.4,0.1-1.8-0.4-1.8-0.4c-1.7,0.4-3.1,2.1-4.6,3c-3.2,1.8-7.7,2.1-10,5.3
				c7.3,5,13.7,0,20.2-3.7c3.9-2.3,8-3.9,12.3-5.3c2.2-0.8,4.4-1.5,6.7-2.2c0.9-0.3,1.9-0.6,2.9-0.7c0.9-0.2,1.6,0.1,2,1
				c2.7-0.1,2.9-1.8,4.6,1.4c2.3,4.5-1.2,4.2-4.5,4.8c-4.6,0.8-9.2,2.5-13.8,3.6c-1,0.3-10.2,2.4-10.2,2.5c-0.4,2.9,25.8,0.2,28-0.2
				c4-0.8,8.2-2.9,12.3-2.4c3.2,0.4,10.3,5,5.3,8.1c-1-4.7-4.4-0.8-6.2,0.8c-2.4,2.1-5.8,1.9-9,2.8c-4.4,1.1-15.8,5.4-19,0
				c1,4.8-17.1,2.4-19.6,2.2c-2.4-0.2-5.6,0.4-7.9-0.3c-1.5-0.5-2.4-1.4-3.8-1.7c-0.4,0.4-0.8,0.6-1.3,0.8c-0.7-0.4-1.4-0.8-2-1.4
				c-4.8-2.2-12.4-3.5-9.7-10.6C563.4,212.7,572.4,208.6,578.6,206.1 M624.1,210.2c0.1-0.4,0.2-0.8,0.4-1.3c0,1.3,3.1,1.8,2.7,3.5
				c-0.8,3.7-4.3-1.8-4.6-2.4C623,210.1,623.5,210.2,624.1,210.2 M642.7,216.3c0.4,1.5,4.4,4.7,3.4,5.4
				C644.5,219.6,640.1,220.6,642.7,216.3 M574.3,353.5c1.5-2.9,6,2.1,5.5-3c2.4,0.2,0.9,2.1,3.8,1.3c1.1-0.3,1.8-1.5,3.2-1.8
				c0.4-0.1,1.9,0,2.4,0c1.8-0.1,8.7-0.2,3.9-2.6c2.7-1.8,3-0.9,5.4,0.7c-0.6-3.3,2.9-1.4,4.6-1c-1.2-1.9,1.7-3.9,2.7-5.2
				c-0.3,2-0.2,4.2,2.7,2.9c0.7-0.3,0.6-1.7,1.1-1.9c1-0.4,1.6,0.3,2,0.3s1.1,0.2,1.9-0.1c1-0.4,0.5-1.7,1.8-1.9
				c0.8-0.1,1.4,1.1,2.4,1.1c0.5,0,1.4-0.5,1.8-0.5c0.1,0,0.6-1.2,1.2-1.2c0.9,0,1.2,2.3,1.6,2.8c1.5,2.2,3.6,3.6,6,4.8
				c-4.3,3.9-12.9,3.5-18.3,4.8c-2.9,0.7-5.4,1.8-8.1,3.1c-0.6,0.4-1.2,0.9-1.7,1.5c-0.4-0.3-0.8-0.5-1.1-0.8
				c-1.5,0.1-2.8-0.6-4.5-0.4c-5.1,0.9-9.1,4.7-14.2,5.5c-2.3,0.4-4.2,0.9-5.7-1.1C573.1,359.2,573.3,355.4,574.3,353.5 M567.3,330
				c1.2,1-0.2,4.1,2,3.8c1.6-0.2,1.3-2.7,2.5-3.2c1.6-0.7,2.6,0.9,4.2,0.8c2.9-0.3,2.7-2.8,0.3-3.9c2.5-0.7,3.3,2.3,5.5,2.3
				c2.9,0,2.2-3.5,4.7-4.1c1.1-0.2,0.7,1.3,1.4,1.5c1.4,0.4,2.4-0.3,3.6-0.9c1.1-0.5,1.9-1.6,3.1-1.9c0.6-0.2,2,0.1,2.4-0.2
				c0.8-0.6,1.5-2.9,2.3-3.2c-0.2,0.1,2.5,1.4,2.8,1.5c-0.2,1-0.8,1.1-1.6,0.3c0,2.2,6.1,2.9,4.9,0.2c3.3,1.4,0.8,2.1,0.5,4
				c-0.1,0.8-0.6,0.7-0.4,1.6c0.1,0.4,1.8,0.1,1.8,0.6c-0.1,3.3-10.6,4.3-12.6,4.6c-4.1,0.6-8,1.6-12,2.9c-3,0.9-8,3.6-11.2,3.4
				C567,339.9,566.4,334,567.3,330 M557.2,296.4c-1.1-3.7,2.4-11.2,7-10.3c1.1,0.2,1.4,1.2,2.3,1.6c1.2,0.6,3.2,0.3,4.3,0.9
				c2.4,1.3,1.2,4.8,3.6,6C570.6,295.5,558.9,302.2,557.2,296.4 M561.6,310.6c1.6-0.9,4.3-1,5.4-2.7c0.6,0.4,1.6,2.7,2.6,2.3
				c0.5-0.2,0.9-1.4,0.9-1.4c0.9,0,1.1-1.2,2.4-1.1c1.2,0.1,2.6,1.6,3.7,2.2c-0.2-3.7,0.8-4,3.7-6c0.7-0.4,1.2-2.1,1.8-2.7
				c-0.6,3.9,0.9,3.9,4,4.5c3.9,0.7,6.3,2.8,7.8,6.5c-3.3-0.6-7.6,0.1-8.9,3.7c-2.6-4.8-12.2,1.8-15.3,3.2c-2.3,1-5,2.4-6.9,0
				c-1.4-1.7-0.6-3.6-0.5-5.1c0-0.5,0.5-0.5,0.4-1.2C562.7,312,561.5,311.6,561.6,310.6 M596.8,386.3c-0.9,0.3-5.4,0.5-5.4-1
				C591.4,384,599.3,385.3,596.8,386.3 M589.5,381.5c-3.4,2.1-7.2-5.3-8.4-7.4c3.6,0.5,5.3-2.5,7.4-4.8c2,4.4,5,2.1,8.2,0.6
				c3.8-1.7,7.9-1.7,11.7-3.1c1.2-0.4,2.3-1.1,3.5-1.6c0.9-0.4,1.9-0.7,2.8-1.1c0.7-0.6,0.9-1.3,0.7-2.2c-0.3-0.7-0.1-1.2,0.6-1.4
				c0.9,0.3,1.8,0.4,2.7,0.5c1.5-0.3,3.6-1.7,1.8-3.2c1.9-1.7,3.8,0,5.7,0.8c-0.4-1.3-0.9-2.5-1.3-3.8c0.9,0.4,3.6,4.2,3.9,4.2
				c1.8-0.1,1.6-2.5,2.6-3.4c0.6,0.7,0.8,6.1,3,4.3c1-0.8-1.1-3.4-1.7-4c2.6,0.6,4.9,3.7,5.6,6.2c-1.2,0.2-2.4-0.1-3.5-0.8
				c-0.7,3.4,5.6,2,6.6,3.8c2,3.5-10.9,5.9-12.6,6.2c-3.4,0.6-7.3,0.9-10.4,2.4c-3,1.4-3.7,1.8-7.1,2.1c-3.9,0.3-7.8,1.6-11.6,2.6
				C596.5,379.1,592.4,379.7,589.5,381.5 M661.6,257.6c3.1-1.1,13.6-6.9,16.3-4.4c-0.3-0.3,1.9,4.3,1.9,4c0.2,2.4,0.1,3.3-2.8,4.5
				c-2.1,0.8-3.9-0.9-5.8-0.2c-2.1,0.8-0.6,2.1-1.7,3c-1.2,1-3.4,1.5-4.9,1.9c-3.6,1.1-7.1,2-10.7,3.2c-7.2,2.4-14.8,4.6-22.2,6.3
				c-5.5,1.3-14.9,4.4-20,0.7c-0.5,2.1-1.7,1.8-3.4,2.1c-1.3,0.2-3.7,0.9-4.9,0.9c-2,0.1-7.4-0.5-6.6-3.2c-0.2,0.8,4.2-1.8,3.5-2
				c1.9,0.4,1.3-0.6,2.8-1.1c2-0.7,4.1-0.7,6.2-1.4c5.2-1.8,9.5-4.2,15-5.4C636.8,264,649.5,261.9,661.6,257.6 M159.9,541.2
				c-1,0-1.8-2.9,1.3-0.8C160.7,540.6,160.3,540.9,159.9,541.2 M135.5,537.4c-1.4,0.4-1.9-0.4-1.6-2.3
				C135.8,534.4,136.3,535.1,135.5,537.4 M116.7,533.6c-0.4-1.7,0.9-2.1,2-2.8C118.6,533,118.6,533,116.7,533.6 M69.4,519.7
				c-1.9-0.4-4.4-2.3-4.9,0.8c-0.3-0.7-1.9-4.1-1.2-4.9c0.4-0.4,1.7,1.5,1.6,1.3c1.7-3.4,4.5,0.7,6.2,1.9
				C70.4,519.1,69.9,519.4,69.4,519.7 M565.2,146.6c0.7-1.4,1.4-1.8,2.3-1.3C566.1,148.5,561.4,150.3,565.2,146.6 M598.2,116
				c1.2,2.2-0.6,3.1-1.9,5C597.1,119,597.6,117.7,598.2,116 M741.5,331.3c4.2,0,13.3-2.2,15.8,2.6c1.7-3.3,3.6,2.9,5.1,3.9
				c0.2,0.1,1.2-0.7,1.7-0.4c0.7,0.4,1.4,1.7,1.8,2.4c1.3,2.2,1.8,4.8,2.5,7.2c-7.4,0-15-1.7-22.4-2.4c-4.9-0.4-9.6-0.4-14.5-0.2
				c-1,0.1-2.9-0.3-3.7-0.1c-0.8,0.2-2.4,1.9-3.3,1.6c1.4,2.7,19.9,9.2,21.3,6.2c-1.7-1-5.4-1.8-5.4-4.2c0-2.7,3.5-2.7,5.3-2.6
				c4,0.2,10.8,1.5,12.4,5.7c0.7,1.8,0.9,6.3,0.1,8c-0.5,1.1-1.3,2.5-2.7,2.7c-0.6,0.1-1.3-0.6-1.4-0.6c-2.8,0.6-7.9,2.8-10.9-0.3
				c-2.2,2.8-12.6-0.3-15.8-1.3c-5.6-1.9-13.3-4.4-16.7-9.6c-4.1-6.4,4.3-11.7,9.1-14.3C726.6,332.1,734.2,331.3,741.5,331.3
				 M769.8,346c1.3,0.4,2.6,0.7,3.9,1.1C773.3,349.4,768.2,347.6,769.8,346 M809.1,428.9c0.4-9.1-2.2-17.2-3.8-26
				c-0.4-2.2,0-6-1.7-7.8c-1.6-1.7-5.1-0.3-5.3-3.4c-1.6,1.8-1.4,2.2-3.3,0.1c0.4,0.9,0.4,1.8,0.2,2.8c-1.2-0.7-5.5-3-5.2,0.2
				c-3.6-0.8-2.5-3-4.6-4.7c-0.3-0.2-1.5,0.6-1.9,0.3c-0.8-0.7-1.2-1.3-1.9-2.1c-0.9,1.1-2.1,1.8-3.1,2.7c-0.6-1.4-1.8-2.4-3.3-2.7
				c1.4,2.9,4.7,6.5,0.1,8.2c-2.8,1-7.3-0.2-10.2,0c-10.8,0.8-22.7-1.5-33.2-4.1c-10.8-2.7-21.6-6.4-31.3-11.9
				c-2.1-1.2-3.4-2.5-5.1-4c-1.7-1.4-3-1.6-5.1-2.5c-3.7-1.6-7.2-4.2-10-7.1c-6.1-6.2-11.8-14.4-10.1-23.5s7.9-16.2,14.6-22.1
				c7.9-7.1,16.8-13,26.2-17.7c4.2-2.1,15-10.1,19.2-5.4c2.7,3,1.2,6.8-2.5,7.5c-0.9,0.2-1.8-0.4-2.7,0c-1.3,0.6-0.8,1.3-1.4,1.8
				c-0.9,0.9-1.9,2.2-3.3,3c-4.9,2.6-9.6,4.7-14.3,7.9c-2.2,1.5-4.2,2.1-6.1,3.4c-1.9,1.3-2.3,3.4-4.9,2.1c0.9,3.7-4.5,7.7-6.7,9.9
				c-3.3,3.5-7.3,8-5.7,13.2c3,10.2,16.6,17.9,25.4,22.4c10.9,5.6,22.9,10,35,11.9c6,0.9,12.3,1.5,18.3,2.1c4.7,0.5,12-1.2,15.4,3.1
				c0.1-5,15.6-4.5,18.9-5.2c-6.6-22.6-19.6-42.7-33.5-61.5c-6.8-9.2-13.5-18.7-21.3-27.2c-8.5-9.3-18.2-17.5-27.5-26
				c-18.1-16.7-38.6-31.6-59.4-44.7c-20.8-13.1-42.3-26-65.1-35.3c-26-10.7-53.4-17.7-80.8-23.7c3.7-4.7,9.8-7.1,14.5-10.5
				c1.7-1.2,3.9-4.1,6.1-4.5c2.3-0.4,4.2,2.1,5.9,3.4c4.8,3.6,8.1,2.1,13.6,1.9c3.3-0.1,11.1,1.7,12.4-2.7c1.8,2.5-0.8,4.4-2.2,6.2
				c1,1.4,1.8-0.1,2.8-0.3c0.3-0.3,0.6-0.5,0.9-0.8c0.5-0.7,0.9-0.7,1.3,0c0.6,0.9,1.2,0.7,1.8-0.6c0.2-0.1,0.3-0.2,0.5-0.3
				c0.7-0.4,1.4-1,2.1-1.4c5-3.6,9.4-6.6,14.9-9.2c4.6-2.2,2.1-6.4,5.2-9.4c0.7-0.7,1.9-0.3,2.6-0.9c0.7-0.6,0.8-1.2,1.4-1.8
				c1.3-1.4-0.2-3.1,3-1.4l-1.2-6.6c6.3,6.1,6.3-11.5,7.2-14.2c-0.1,0.3,0.6-2.3,0.6-2.3c0.2-5.3,0.9-9.2-5.3-9.5
				c2.4-1.5,3.1,1.4,4.2-1.6c0.5-1.5-1.2-4.1,1.6-3.1c0.6-3.2,0-5.8-0.7-8.9c-0.7-3.2-0.3-5.3-0.3-8.5c0-3.6-1.6-7.2-2.2-10.8
				c-0.4-2.8,0-7.1-3.6-6.1c-0.5-0.8,1.3-3.2,1.2-4.4c-0.1-1.9-2.1-3.8-2.7-5.5c-0.8,0.9-2,1.2-3.2,0.8c1.1-2.4,0.1-3.2-1-5.3
				c-0.6-1.2-0.2-2.5-1.5-3.4c-0.7-0.5-2,0.3-2.5-0.2c-1.2-1.2-0.8-2.9-1.6-4.5c-1.1-2-3.5-3.6-5.1-5.2c-9.4-9.3-19.5-16-31.8-19.3
				c-12.5-3.4-27-4.6-39.5-0.7c-5,1.6-9.4,1.4-13.9,4.3c-1.5,1-1.6,0.7-2.3,2.3c-0.2,0.4,1.4,1.4,0.4,2c-1,0.7-2.2-0.7-2.7-1.8
				c-6.5,4.7-12.5,10.9-16.2,18.1c-3.7,7.1-4,15.5-5.4,23.2C461,52,452.2,48.5,442.7,52c-8.3,3.1-14.7,9.9-16.3,18.7
				c-1,5.4,0.1,10.8,2.5,15.6c1.1,2.1,2.3,4.4,4.3,5.8c1.5,1.1,4.2,1,4.9,3c1.1,3.1-5.3,9.7-6.9,12.4c-3,4.9-5.8,9.9-7.9,15.2
				c-7.6-10.7-14.9-22.5-23.5-32.4c-8.2-9.3-17.9-17.7-27.4-25.6c-19.8-16.4-40.4-31.8-62.5-44.9C289.2,7.7,264.3,1,240.3,3.3
				c-23.5,2.3-41.5,17.2-56.6,34.3c-29.1,32.9-46.9,79.9-48.6,123.7c-0.5,13.2,0.5,26.2,3.7,38.9c1.5,6.1,1.3,12.1,2.2,18.2
				c1,6.9,2.8,13.9,4.5,20.7c6.5,25.9,14.7,51.8,24,76.9c4.8,13,10.6,25.8,18.5,37.3c3.6,5.3,8.3,9.5,12.3,14.5
				c3.8,4.9,4.8,10.9,5.6,16.9c2,14.4,3.3,28.8,4.5,43.3c0.5,6.1,1.1,12.2,1.9,18.3c0.7,5.3-1.1,5-5.5,6.9
				c0.9-4.8-20.4-1.5-22.5-1.2c-2.2,0.4-4.5,0.4-6.2,0.6c-1.9,0.3-3.8,0.8-6,0.7c-3.3-0.1-9.4-0.9-10.6,3.2
				c-0.9-4.8-6.5,0.5-2.3-0.4c-4.3,0.5-8.7-0.3-13.1,0.1c-5,0.5-10,0.9-15,1.7c-3.5,0.5-6.8,1.9-10.2,2.2c-4.4,0.5-9.1,0.4-13.5,0.8
				c-16.5,1.5-33.6,5.1-49.6,9.2c-3.6,0.9-7.8,1.6-11.3,3.1c-0.9,0.4-1.8,1.3-2.7,1.6c-1.5,0.6-1.3,0.2-2.6,0.4
				c-7.9,1.6-16.1,4.2-24.1,6.2c-4.4,1.1-11.6,2.1-15.2,5.2c-1.6,1.4-3,3.8-0.4,5.4c2.1,1.2,5-0.7,6.7-1.8
				c-1.5,3.9-4.3,5.8-2.8,10.2c1.2,3.5,3.9,7.8,8,5.5c0.6,1.3,0.8,3.9,2.4,4.3c1.5,0.4,2.5-1.4,4-1c0.5,0.2,0.3,1.1,0.8,1.4
				c0.8,0.4,1.6,0.6,2.5,0.9c0.8,0.3,2,0.8,2.9,0.9c0.5,0,1.7-0.9,1.7-0.9c1.2,0.2,1.8,2.5,2.7,3.1c1.1,0.9,2,1.1,3.4,1.4
				c2.9,0.6,6.6,1.7,8.6-1.2c-0.4,2.1,2.4,1.9,3.7,2.2c-0.1-1.1-0.8-2.1-1.7-2.8c2.8,0.2,1.7,3,3.8,3.8c1.5,0.5,1.3-0.8,2.5-1
				c1.5-0.2,2.7,0.9,5-0.1c0.5,2.3,0.7,4.6,3.5,4.9c1.6,0.2,5.5-2.8,5.2-0.3c3.7-1.1,5-0.3,7,2.9c0.3-2,1.9-1.4,3.3-1.5
				c2.3-0.2,2.3,0,4.1-1.3c0.2-0.1,1.5-3.3,2.2-1.3c0.3,0.9-1.6,3-2.2,3.5c0.8,0.4,3.6,1.9,4.7,1.6c0.9-0.2,0.9-1.8,2-1.9
				c-0.3,0.9-0.5,1.8-0.8,2.7c2.1,0.3,3.9-1.1,5.6-2.2c1.6,4.1,6.2,1.8,8.7,4.9c1.3,1.6,1.4,2.9,3.9,3.3c2.6,0.4,4.9-0.7,7.1,1.4
				c-0.7-1.3-2.4-2.4-0.7-3.9c1.2,1.7,1.8,3.7,3.1,5.2c0.2-0.8,0.4-1.6,0.6-2.4c3.5,3.8,8,3.8,12.5,5.9V536c3.2,4.9,3.4,1.8,7.3-0.2
				c-0.3,1.5-0.5,2.9-0.8,4.4c2.8-0.2,5.4,3.1,7.7,0.3c1.4,2.3,3.1,1.2,5.3,1.9c1.3,0.4,2.2,1.7,3.5,2.1c1.9,0.7,2.4,0.7,4.2,1.3
				c1.6,0.5,2.5,1.6,4.4,1.9c1.3,0.2,2.4,0.2,3.7,0.1c0.5,0,0.3-1.1,1.4-0.8c1.6,0.4,2.8,2.4,4,3.5c1.8-4.4,6.7,1.5,9.1,2.3
				c0.2-1.1,0.2-2.5,1-3.4c1,2.1,1.3,3.9,3.3,5.2c1.2,0.8,2.9,1.3,4.2,1.6c0.8,0.2,2.4,0,2.9,0.2c0.9,0.4,1.2,1.6,2.1,1.7
				c0.5,0.1,1.3-1.3,1.7-1.2c1.8,0.5,2.9,2.7,4.7,3.9c5.5,3.6,12.5,3.9,18.6,4.7c1.5,0.2,1.8-0.2,3,0.7c0.7,0.5,0.4,2,1.2,2.4
				c3.1,1.6,3.1-1.8,3.8-3.8c1,1.4,1.2,3.1,2.6,4.2c0.8,0,1.5,0,2.3,0.1c0.4,0.5,0.7,1.1,0.8,1.7c1.9,1.3,4,0.8,5.9,1.8
				c0.6,0.3,1.7,2.2,2.5,2.7c1.4,1,3.5,1.5,5.1,1.9c3.3,0.9,8.1-0.3,10.1,3.2c2.6-2.8,1.6,0.5,3.4,1.3c1.1,0.4,2.6-1.2,3.8-1.1
				c2.1,0.3,2.9,2.6,3.5,4.2c1.3-0.3,0.4-3.9,0.4-4.7c1.6-0.2,1.9,4,2.2,4.9c2.5-1.2-1.6-5,1.1-6.2c-0.2,3.2,2.3,5.9-2.3,6.3
				c0.6,1.9,15.4,4.1,16.4,2.4c0.2,3.2,2.3,0.2,3.1-0.9c0.1,1.8-0.5,4.5,1.5,5.3c1.4,0.6,4.6-0.9,5.1-2.3c0.6,2.1,1.7,2,3,3.4
				c0.9,0.9,1.5,2.5,2.4,3.3c1.7,1.4,5,1.2,7,0.9c4-0.6,3.5-1.4,4.9,2.7c0.3-1.6,1.3-4.8,3.1-2.4c1.1,1.5-1.3,4.9-1.9,6.3
				c1.5-0.8,3-1.8,4.8-2.2c0.1,0.5,0.2,1.7-0.1,2.2c0.1-0.1,1.9,1.1,2.6,1.5c-0.2-0.1,0.5-3.2,0.5-3.1c2.4,1.5,0.7,4.4,2.9,5.9
				c0.6,0.4,1.9-0.1,2.5,0.2c1.2,0.4,2.2,1.5,3.2,2.2c-0.8-1.1-0.7-3-0.7-4.3c0.5,0.3,0.9,1.4,1.4,1.5c0.2,0,2.3,0.3,2.3,0.3
				c2.2,1.5,1.7,1.7-0.1,3.6c0.7,1.1,3.5-0.8,4.2-1.1c0.2,0.4,0.2,1.9,0.5,2.2c0.2,0.4,0.4,0.9,0.5,1.3c0.6-0.4,1.2-0.6,1.8-0.4
				c0.4,0.1,3.6,1.4,3.8,1c-0.7-0.2-1.3-0.6-1.9-1c1.8-1.6,3-2.5,4.7-0.1c0.2,0.3-0.5,1.4-0.3,1.8c0.8,1.5,2.5,2.6,3.6,3.8
				c0.5-1.6-0.6-5.7,2-5.6c2.1,0.1,3.6,5.1,2.9,6.7c0.8-0.9,5.7-1.8,6.6-1.5c2.6,0.8,1.9,3.2,5.1-0.3c2.2,1.5,0.3,2.1,0.7,3.9
				c0.6,0.1,1.1,0,1.6-0.4c-0.4,7.8,5.4,1.8,9.1,3c1.5,0.5,1.9,2.1,3.4,2.6c0.8,0.3,1.8-0.4,2.6-0.2c0.7-0.1,1.3-0.2,1.9-0.3
				c0.8-0.4,1.2,0,1.1,1.4c1.3,0.7,0.8,0.9,2.4,1.1c1,0.1,1.9-0.9,3-0.8c1.9,0.3,1.7,1.8,2.9,2.6c1.1,0.7,2.4,0.7,3.7,0.5
				c0.7-0.1,2.7-1,2.9-1c1.5,0,0.7-0.3,2.4,0.9c1.4,1,1.9,1.6,3.6,2.1c1.9,0.5,5.4,1.6,6.6,0.3c1.8,2.6,3.1,0.7,5.4,0.9
				c1.2,0.1,1.4,0.6,2.4,0.7c1.7,0.3,3.8,0,5.7,0.6c2.9,0.9,3.2,1.4,6.1,1.5c0.5-0.2,1.1-0.4,1.6-0.6c0.2,0.9,0.6,1.6,1.2,2.2
				c1.6,0.3,2.7-0.5,4.1-1.4c1,3.1,4.3,3.4,7.1,3.8c4.5,0.7,8.8,1,13.2,2.5c3.7,1.2,7.3,2.7,10.9,4.3c3.1,1.4,6,3.5,9.6,2.5
				c8-2.2,15.7-10.4,22.3-15.1c7.9-5.6,16.4-10.1,24.6-15.1c32.8-19.9,67.5-36.7,99.9-57.4c17.7-11.3,34.1-24.6,53-33.8
				c-2.7,11.2-7.3,22.5-6.5,34.2c0.3,4.7,1.7,10.3,5.4,13.6c4.5,4.1,9.5,1.5,13.9-1.4c9.3-6.2,15.4-15.3,22.3-23.8
				c8.2-10.1,14.5-20.9,20.6-32.4c1.4,2,0.3,5.4,0.4,7.7c0,2.9,0.8,5.6,2.1,8.2c3.4,6.6,9.9,8.2,15.8,3.7
				c11.3-8.7,17.9-24.2,24-36.6c3.5,6.4,8.4,14.6,16.7,10c6.9-3.8,10.9-12.3,13-19.5C810.1,471.8,808.1,450.4,809.1,428.9"/>
			<path id="react-path-205" class="st1" d="M798.7,302.8c-0.8-1.9-1.1-1.6,0.3-3.4C800.1,300.5,799.2,301.4,798.7,302.8
				 M833.4,417.9c-2.2-6.3-0.8-13.1-2.2-19.5c-0.6-2.9-1.6-5.8-1.9-8.8c-0.2-1.3-1.3-7.3-0.5-8.3c-2.5-1.5-2.5-2.6-3.1-5.6
				c0.9-0.9,0.8-1.7-0.3-2.4c-0.7-0.9-1.4-1.8-2.2-2.6c3.2,1.5,1.3-2.4,1-4.7c-0.3-1.8-0.4-3.7-1-5.4c-0.7-2.1-2.4-3.2,1-3.2
				c-1.1-1.3-2.8-2.6-3.4-4.2c-0.8-2.3,0.5-5.2-1.1-7.2c-0.9-1.1-5.7-1.5-4.8-4c0.4-1.2,2.3-0.3,2.9-1.2c2.3-3.4-4.6-4.8-4.9-6.2
				c-0.4-1.9,2.1-2.3,2.2-4c0.1-1.7-2.5-4.5-3.2-6c-1,0.2-2,1.7-3.1,1c-0.2-0.1,0.1-6-0.1-6.8c-0.2-0.8-0.7-2.8-0.9-3.2
				c-0.7-1.5-2.7-2.2-3.1-4c-0.2-1.1,4-2.7-0.8-2.7c1.7-3-1.4-4.8-2.6-7.4c-1.5-3.3-2.3-6.9-3.8-10.2c-1.5-3.2-3.1-6.3-5.2-9.2
				c-1.9-2.6-2.7-5.1-4.3-7.8c-0.3-0.2-0.6-0.5-0.9-0.7c-1.3,0.2-1.7-0.4-1.2-1.7c-1-1.4-1.7-3-2.6-4.5c-1-1.7-2.3-3.2-3.4-4.9
				c-1.4-2.3-1.8-4.8-3.3-7.1c-1.9-2.8-4-5.2-5.8-8.1c-2.2-3.6-4.6-5.9-7.4-8.7c-1.3-1.3-1.5-4.7-3.1-6.6c-1.8-2.1-3.5-2.6-4.7-5.3
				c-1.6-3.5-3.9-5.2-6.2-8.2c-1.9-2.5-2.8-5.4-4.9-7.8c-1.8-2.1-3.8-4-5.7-6c-2.4-2.5-4.2-5.5-6.6-7.9c0.4,0.3-2.2-1.7-2-1.6
				c-0.6-0.3-2.4-0.5-2.1-0.4c-3.8-2.2-8.5-10.3-14.1-6c-3,2.3-1.5,6.4,0.5,8.6c0.9,1,5.5,5.7,6.5,3.7c1.1,1.5,4.4,8.9,7.2,6.8
				c-0.3,2.5,1.2,1.7,2.2,3.4c0.6,1.1,0.3,1.7,0.8,3.4c1.3,4.8,6.1,9.6,8.7,13.8c6.5,10.5,13.6,20.5,20,31c6.2,10,13.1,19.5,19,29.7
				c6.7,11.6,15.1,22.5,20.2,34.9c0.2,0.4,1.6,1.1,1.9,1.7c0.6,1.1,0.5,3,0.9,4.2c1.4,4.3,3.6,8.5,6.1,12.1c2.2,3.1,2.4,7.4,3.9,11
				c2.1,5.2,4.4,10.3,6.5,15.4c3.2,8.1,5.4,15.8,7.7,24.2c1.4,5.5,2.6,10.9,3.1,16.5c0.4,5.2,0.5,10.6,2.4,15.5
				C832.7,423,834.3,420.4,833.4,417.9"/>
			<path id="react-path-206" class="st1" d="M94.2,529c-2.3-0.5-4.5-1.1-5-3.8c-0.3,1.3-0.7,2.5-1,3.8c2.8,0.6,5.7,1.3,8.5,1.9
				C96.1,529.7,95.6,529.2,94.2,529"/>
			<path id="react-path-207" class="st1" d="M100.5,91.4c0.2-0.8,0.4-1.5,0.7-2.2c0.2,0.7,1.1,2.2,0.6,2.9
				C101,92.9,100.3,92.5,100.5,91.4 M111.9,69.8c0.8,0.3,2.4,0.4,3.4,0.7c-2.5,2.1-2.9,1.5-6.1,1.2C109,69.6,109.9,68.9,111.9,69.8
				 M90.6,122.7c0.3,0,0.7,0,1,0c0-0.9,0-1.9-0.1-2.8c3.3,0.7,1.5-5.1,0.4-6.3c3.3,0.1,4.9-10.2,5.9-12.2c0.9-1.8,2-2.5,2.6-4.6
				c0.6-1.9,1.2-3.6,2.1-5.4c1.9-4.1,4.5-7.8,4-12.6c1.6,3.6,3.1,0,4.1-1.7c1.7-2.8,5.8-6.3,6.2-9.6c0.4-2.9-1.8-3-0.5-5.7
				s2.3-2.4,4.6-3.3c1.5-0.6,1.8,0.1,2.8-1.8c0.7-1.2,0.4-2.1,1.3-3.1c0.4,0.3,0.8,0.4,1.2,0.4c0.7-0.9,1.2-2,1.4-3.1
				c0.6-1.6,0.9-3,1.7-4.5c0.8-1.4,2.3-5.2,3.1-5.8c0.8-0.7,5.5-0.4,5.5-0.3c1.9-2.4-1.6-4.9,3.3-4.3c-1-1.8,2.4-4.1,3.4-5.1
				c2.5-2.5,2.7-3.7,3.2-6.8c0.3-1.6-1.5-1.4,0.9-1.8c1-0.2,1.9,1.1,2.6,0.9c3.1-0.8-0.1-0.6,0.7-1.9c0.3-0.4,1.6-2,1.6-2
				c-0.1,0.1,0.3-1.4,0.6-1.8c0.6-0.1,1.2-0.2,1.7-0.3c0.3-0.6,0.5-1.2,0.8-1.8c2.2-1.8,5.5-2.7,7-4.7c1-1.3,0.7-2.6,2-3.9
				c1.2-1.2,2.8-0.3,3.1-3.2c0.3-3.6-3.5-5.2-5.1-1.6c-4.3-5.2-22.1,14-24.1,16.5c-8.9,10.9-17.7,22.1-25,34.2
				c-7.1,11.8-13,24.1-17.6,37.1c-2.2,6.3-3.6,12.5-4.9,19c-0.5,2.2-3.8,11.8-2.4,14C90,122.8,90.3,122.7,90.6,122.7"/>
			<path id="react-path-208" class="st1" d="M793.9,390.4c1.5-1,1.5-1,1.8-2.9C793.6,387.9,793.6,387.9,793.9,390.4"/>
			<path id="react-path-209" class="st1" d="M52,518C52.1,518,52.1,518,52,518C52.1,518,51.9,517.9,52,518"/>
			<path id="react-path-210" class="st1" d="M51,519c0.5,1,1.2,1.3,2.2,0.7C53.7,520.4,49.8,516.2,51,519"/>
			<path id="react-path-211" class="st1" d="M119,60.3c-2.4,4.6,0.6,1.3,0.4,2.8C119.5,62.1,119.9,60.7,119,60.3"/>
			<path id="react-path-212" class="st1" d="M502.2,131.9c1,8.3,12.4,4.4,14.9-0.6c1.9-3.6,6.5-18.1,1.5-21.1
				c-3.7-2.3-4.5,7.5-5.5,9.6c-1.5,3.6-2.8,1.1-6.2,2C503.1,122.8,501.7,128.4,502.2,131.9"/>
			<path id="react-path-213" class="st1" d="M489.8,116.7c4.1,0.9,8,0.4,10.9-2.8c1.6-1.8,3.7-5.3,0.8-7c-2.6-1.6-5.6,2.1-8.3,1.3
				c-3.7-1-1.8-5-3.1-7.7C485.4,103.3,482.8,115.2,489.8,116.7"/>
			<path id="react-path-214" class="st1" d="M494,137.6c-3.9,0-3.9,4.8-1.9,6.9c2,2,6.9,4,9.5,2.4
				C506.8,143.9,497.1,137.9,494,137.6"/>
			<path id="react-path-215" class="st1" d="M266.7,328.7c0.8,0.4,3.3,2.5,4.3,1.5c-1.5-1.5-2.9-2.9-4.4-4.4
				C265.8,326.7,265.3,328,266.7,328.7"/>
			<path id="react-path-216" class="st1" d="M248.2,117.9c-0.4,0.3-0.8,0.6-1.2,0.9c1.4,1.2,1.4,1.5,2.8,0.4
				C249.4,118.7,248.8,118.2,248.2,117.9"/>
			<path id="react-path-217" class="st1" d="M513,392.8c-0.8-1.4-2.3,1.2-3.3,1.6c-1.6,0.7-3-3-2.5,1.4c-3.7-1.7-5.9,2.2-8.3,4.2
				c-3.4,2.9-7.5,4.4-9.7,8.4c10.6,2.5,22.1-6.6,30-12.6c1.3-1,7.7-5.9,3.4-6.4C520.8,389.3,514.3,395.2,513,392.8"/>
			<path id="react-path-218" class="st1" d="M509.8,384.3c2.1-1.6-2.4-1.8-3.1-1.9c0.1,1.3,0.1,2.6,0.2,3.9
				C507.9,385.6,508.9,385,509.8,384.3"/>
			<path id="react-path-219" class="st1" d="M502.1,389.7c0.6-0.4,2.3-1.6,1.2-2.5c-1.1,0.7-1.8,1.8-2,3
				C501.5,390.1,501.8,389.9,502.1,389.7"/>
			<path id="react-path-220" class="st1" d="M331.2,284.7c-1.3,0.5-1.9,1.3-1.8,2.5C331.4,286.7,331,284.8,331.2,284.7"/>
		</g>
	</g>
</g>
</svg>
